<svg width="1930" height="486" viewBox="0 0 1930 486" fill="none" xmlns="http://www.w3.org/2000/svg">
<rect width="1930" height="486" fill="url(#paint0_linear_103_17414)"/>
<mask id="mask0_103_17414" style="mask-type:luminance" maskUnits="userSpaceOnUse" x="0" y="0" width="1930" height="486">
<rect width="1930" height="486" fill="white"/>
</mask>
<g mask="url(#mask0_103_17414)">
<mask id="path-3-outside-1_103_17414" maskUnits="userSpaceOnUse" x="1361" y="340" width="535" height="104" fill="black">
<rect fill="white" x="1361" y="340" width="535" height="104"/>
<path d="M1362.65 441L1399.48 342.945H1430.17L1466.99 441H1439.73L1433.88 424.015H1394.77L1388.92 441H1362.65ZM1400.91 404.89H1427.6L1420.6 384.194C1420.22 383.147 1419.75 381.863 1419.18 380.34C1418.7 378.723 1418.18 377.058 1417.61 375.345C1417.13 373.537 1416.65 371.729 1416.18 369.921C1415.7 368.113 1415.23 366.543 1414.75 365.211H1413.75C1413.37 367.019 1412.8 369.065 1412.04 371.348C1411.37 373.632 1410.66 375.916 1409.9 378.199C1409.23 380.483 1408.61 382.481 1408.04 384.194L1400.91 404.89ZM1478.71 441V342.945H1538.65C1543.7 342.945 1548.26 343.944 1552.35 345.943C1556.45 347.941 1559.68 350.748 1562.06 354.364C1564.53 357.979 1565.77 362.214 1565.77 367.067C1565.77 371.348 1565.01 375.012 1563.49 378.057C1562.06 381.101 1560.11 383.575 1557.64 385.479C1555.26 387.382 1552.54 388.809 1549.5 389.76V390.331C1553.02 391.093 1556.21 392.472 1559.06 394.47C1561.92 396.373 1564.15 398.99 1565.77 402.321C1567.48 405.651 1568.34 409.695 1568.34 414.452C1568.34 420.066 1567.01 424.872 1564.34 428.868C1561.68 432.769 1558.16 435.767 1553.78 437.86C1549.4 439.953 1544.5 441 1539.08 441H1478.71ZM1504.25 421.303H1532.09C1535.13 421.303 1537.56 420.399 1539.37 418.592C1541.27 416.784 1542.22 414.024 1542.22 410.313C1542.22 408.315 1541.79 406.555 1540.94 405.032C1540.17 403.415 1538.99 402.178 1537.37 401.321C1535.85 400.465 1533.94 400.037 1531.66 400.037H1504.25V421.303ZM1504.25 381.91H1529.8C1531.9 381.91 1533.66 381.482 1535.08 380.626C1536.61 379.769 1537.75 378.58 1538.51 377.058C1539.37 375.535 1539.79 373.727 1539.79 371.634C1539.79 368.589 1538.89 366.21 1537.08 364.497C1535.27 362.785 1532.99 361.928 1530.23 361.928H1504.25V381.91ZM1632.16 442.713C1621.4 442.713 1612.17 440.857 1604.47 437.146C1596.85 433.34 1591 427.679 1586.91 420.162C1582.82 412.645 1580.77 403.224 1580.77 391.901C1580.77 380.578 1582.82 371.206 1586.91 363.784C1591 356.267 1596.85 350.653 1604.47 346.942C1612.17 343.136 1621.4 341.233 1632.16 341.233C1642.91 341.233 1652.09 343.136 1659.7 346.942C1667.41 350.653 1673.31 356.267 1677.4 363.784C1681.49 371.206 1683.54 380.578 1683.54 391.901C1683.54 403.224 1681.49 412.645 1677.4 420.162C1673.31 427.679 1667.41 433.34 1659.7 437.146C1652.09 440.857 1642.91 442.713 1632.16 442.713ZM1632.16 422.731C1636.25 422.731 1639.86 422.112 1643 420.875C1646.14 419.638 1648.76 417.83 1650.85 415.452C1653.04 413.073 1654.66 410.171 1655.71 406.745C1656.75 403.32 1657.28 399.466 1657.28 395.184V388.904C1657.28 384.527 1656.75 380.626 1655.71 377.2C1654.66 373.775 1653.04 370.873 1650.85 368.494C1648.76 366.115 1646.14 364.307 1643 363.07C1639.86 361.833 1636.25 361.215 1632.16 361.215C1627.97 361.215 1624.31 361.833 1621.17 363.07C1618.03 364.307 1615.41 366.115 1613.32 368.494C1611.22 370.873 1609.65 373.775 1608.61 377.2C1607.56 380.626 1607.04 384.527 1607.04 388.904V395.184C1607.04 399.466 1607.56 403.32 1608.61 406.745C1609.65 410.171 1611.22 413.073 1613.32 415.452C1615.41 417.83 1618.03 419.638 1621.17 420.875C1624.31 422.112 1627.97 422.731 1632.16 422.731ZM1745.71 442.713C1736.29 442.713 1728.15 441.238 1721.3 438.288C1714.54 435.338 1709.36 430.914 1705.74 425.014C1702.13 419.115 1700.32 411.788 1700.32 403.034V342.945H1726.01V402.463C1726.01 408.743 1727.68 413.691 1731.01 417.307C1734.34 420.923 1739.24 422.731 1745.71 422.731C1752.18 422.731 1757.13 420.923 1760.55 417.307C1763.98 413.691 1765.69 408.743 1765.69 402.463V342.945H1791.24V403.034C1791.24 411.788 1789.43 419.115 1785.81 425.014C1782.2 430.914 1777.01 435.338 1770.26 438.288C1763.5 441.238 1755.32 442.713 1745.71 442.713ZM1836.94 441V363.926H1805.11V342.945H1894.32V363.926H1862.49V441H1836.94Z"/>
</mask>
<path d="M1362.65 441L1361.72 440.648L1361.21 442H1362.65V441ZM1399.48 342.945V341.945H1398.79L1398.54 342.594L1399.48 342.945ZM1430.17 342.945L1431.1 342.594L1430.86 341.945H1430.17V342.945ZM1466.99 441V442H1468.43L1467.93 440.648L1466.99 441ZM1439.73 441L1438.78 441.326L1439.01 442H1439.73V441ZM1433.88 424.015L1434.82 423.69L1434.59 423.015H1433.88V424.015ZM1394.77 424.015V423.015H1394.06L1393.82 423.69L1394.77 424.015ZM1388.92 441V442H1389.63L1389.86 441.326L1388.92 441ZM1400.91 404.89L1399.96 404.564L1399.5 405.89H1400.91V404.89ZM1427.6 404.89V405.89H1428.99L1428.54 404.569L1427.6 404.89ZM1420.6 384.194L1421.55 383.874L1421.55 383.863L1421.54 383.852L1420.6 384.194ZM1419.18 380.34L1418.22 380.622L1418.23 380.657L1418.24 380.691L1419.18 380.34ZM1417.61 375.345L1416.64 375.599L1416.65 375.63L1416.66 375.661L1417.61 375.345ZM1416.18 369.921L1415.21 370.176L1416.18 369.921ZM1414.75 365.211L1415.69 364.875L1415.46 364.211H1414.75V365.211ZM1413.75 365.211V364.211H1412.94L1412.77 365.005L1413.75 365.211ZM1412.04 371.348L1411.09 371.032L1411.08 371.05L1411.08 371.068L1412.04 371.348ZM1409.9 378.199L1408.95 377.883L1408.94 377.901L1408.94 377.919L1409.9 378.199ZM1408.04 384.194L1408.99 384.52L1408.99 384.51L1408.04 384.194ZM1363.59 441.352L1400.41 343.297L1398.54 342.594L1361.72 440.648L1363.59 441.352ZM1399.48 343.945H1430.17V341.945H1399.48V343.945ZM1429.23 343.297L1466.05 441.352L1467.93 440.648L1431.1 342.594L1429.23 343.297ZM1466.99 440H1439.73V442H1466.99V440ZM1440.67 440.674L1434.82 423.69L1432.93 424.341L1438.78 441.326L1440.67 440.674ZM1433.88 423.015H1394.77V425.015H1433.88V423.015ZM1393.82 423.69L1387.97 440.674L1389.86 441.326L1395.71 424.341L1393.82 423.69ZM1388.92 440H1362.65V442H1388.92V440ZM1400.91 405.89H1427.6V403.89H1400.91V405.89ZM1428.54 404.569L1421.55 383.874L1419.66 384.514L1426.65 405.21L1428.54 404.569ZM1421.54 383.852C1421.16 382.801 1420.68 381.513 1420.11 379.989L1418.24 380.691C1418.81 382.212 1419.28 383.493 1419.66 384.536L1421.54 383.852ZM1420.13 380.058C1419.66 378.428 1419.13 376.752 1418.55 375.029L1416.66 375.661C1417.22 377.363 1417.74 379.017 1418.22 380.622L1420.13 380.058ZM1418.57 375.09C1418.1 373.282 1417.62 371.474 1417.14 369.667L1415.21 370.176C1415.69 371.983 1416.16 373.791 1416.64 375.599L1418.57 375.09ZM1417.14 369.667C1416.66 367.839 1416.18 366.241 1415.69 364.875L1413.81 365.547C1414.27 366.846 1414.74 368.387 1415.21 370.176L1417.14 369.667ZM1414.75 364.211H1413.75V366.211H1414.75V364.211ZM1412.77 365.005C1412.4 366.766 1411.84 368.774 1411.09 371.032L1412.99 371.665C1413.76 369.355 1414.34 367.271 1414.73 365.417L1412.77 365.005ZM1411.08 371.068C1410.42 373.34 1409.71 375.611 1408.95 377.883L1410.85 378.516C1411.61 376.22 1412.33 373.924 1413 371.628L1411.08 371.068ZM1408.94 377.919C1408.27 380.194 1407.66 382.18 1407.09 383.878L1408.99 384.51C1409.57 382.782 1410.19 380.772 1410.86 378.479L1408.94 377.919ZM1407.1 383.868L1399.96 404.564L1401.85 405.216L1408.99 384.52L1407.1 383.868ZM1478.71 441H1477.71V442H1478.71V441ZM1478.71 342.945V341.945H1477.71V342.945H1478.71ZM1552.35 345.943L1551.92 346.841L1551.92 346.841L1552.35 345.943ZM1562.06 354.364L1561.22 354.913L1561.23 354.921L1561.23 354.928L1562.06 354.364ZM1563.49 378.057L1562.59 377.609L1562.59 377.621L1562.58 377.632L1563.49 378.057ZM1557.64 385.479L1557.03 384.686L1557.02 384.692L1557.01 384.698L1557.64 385.479ZM1549.5 389.76L1549.2 388.806L1548.5 389.025V389.76H1549.5ZM1549.5 390.331H1548.5V391.138L1549.29 391.309L1549.5 390.331ZM1559.06 394.47L1558.49 395.29L1558.5 395.296L1558.51 395.302L1559.06 394.47ZM1565.77 402.321L1564.87 402.757L1564.88 402.768L1564.88 402.778L1565.77 402.321ZM1564.34 428.868L1565.17 429.432L1565.18 429.423L1564.34 428.868ZM1504.25 421.303H1503.25V422.303H1504.25V421.303ZM1539.37 418.592L1538.68 417.867L1538.67 417.875L1538.66 417.884L1539.37 418.592ZM1540.94 405.032L1540.03 405.458L1540.05 405.491L1540.06 405.523L1540.94 405.032ZM1537.37 401.321L1536.88 402.193L1536.89 402.199L1536.9 402.205L1537.37 401.321ZM1504.25 400.037V399.037H1503.25V400.037H1504.25ZM1504.25 381.91H1503.25V382.91H1504.25V381.91ZM1535.08 380.626L1534.59 379.754L1534.58 379.761L1534.57 379.768L1535.08 380.626ZM1538.51 377.058L1537.64 376.567L1537.63 376.588L1537.62 376.61L1538.51 377.058ZM1504.25 361.928V360.928H1503.25V361.928H1504.25ZM1479.71 441V342.945H1477.71V441H1479.71ZM1478.71 343.945H1538.65V341.945H1478.71V343.945ZM1538.65 343.945C1543.56 343.945 1547.97 344.917 1551.92 346.841L1552.79 345.044C1548.55 342.972 1543.83 341.945 1538.65 341.945V343.945ZM1551.92 346.841C1555.85 348.765 1558.95 351.455 1561.22 354.913L1562.9 353.814C1560.41 350.041 1557.04 347.117 1552.79 345.044L1551.92 346.841ZM1561.23 354.928C1563.58 358.36 1564.77 362.393 1564.77 367.067H1566.77C1566.77 362.035 1565.49 357.599 1562.89 353.799L1561.23 354.928ZM1564.77 367.067C1564.77 371.232 1564.03 374.735 1562.59 377.609L1564.38 378.504C1565.99 375.289 1566.77 371.465 1566.77 367.067H1564.77ZM1562.58 377.632C1561.22 380.544 1559.36 382.888 1557.03 384.686L1558.25 386.271C1560.86 384.263 1562.9 381.659 1564.39 378.481L1562.58 377.632ZM1557.01 384.698C1554.73 386.519 1552.13 387.89 1549.2 388.806L1549.8 390.715C1552.96 389.728 1555.78 388.244 1558.26 386.259L1557.01 384.698ZM1548.5 389.76V390.331H1550.5V389.76H1548.5ZM1549.29 391.309C1552.68 392.043 1555.75 393.37 1558.49 395.29L1559.64 393.651C1556.67 391.574 1553.36 390.142 1549.71 389.354L1549.29 391.309ZM1558.51 395.302C1561.2 397.099 1563.33 399.574 1564.87 402.757L1566.67 401.884C1564.98 398.406 1562.63 395.648 1559.62 393.638L1558.51 395.302ZM1564.88 402.778C1566.5 405.934 1567.34 409.812 1567.34 414.452H1569.34C1569.34 409.578 1568.46 405.368 1566.66 401.863L1564.88 402.778ZM1567.34 414.452C1567.34 419.903 1566.05 424.507 1563.51 428.313L1565.18 429.423C1567.97 425.236 1569.34 420.23 1569.34 414.452H1567.34ZM1563.52 428.304C1560.96 432.056 1557.57 434.938 1553.35 436.958L1554.21 438.762C1558.74 436.595 1562.4 433.483 1565.17 429.432L1563.52 428.304ZM1553.35 436.958C1549.12 438.98 1544.37 440 1539.08 440V442C1544.64 442 1549.69 440.927 1554.21 438.762L1553.35 436.958ZM1539.08 440H1478.71V442H1539.08V440ZM1504.25 422.303H1532.09V420.303H1504.25V422.303ZM1532.09 422.303C1535.34 422.303 1538.04 421.329 1540.07 419.299L1538.66 417.884C1537.07 419.47 1534.92 420.303 1532.09 420.303V422.303ZM1540.05 419.317C1542.23 417.253 1543.22 414.183 1543.22 410.313H1541.22C1541.22 413.866 1540.31 416.315 1538.68 417.867L1540.05 419.317ZM1543.22 410.313C1543.22 408.168 1542.76 406.235 1541.81 404.542L1540.06 405.523C1540.83 406.875 1541.22 408.462 1541.22 410.313H1543.22ZM1541.84 404.607C1540.99 402.788 1539.64 401.393 1537.84 400.438L1536.9 402.205C1538.33 402.963 1539.36 404.041 1540.03 405.458L1541.84 404.607ZM1537.86 400.45C1536.15 399.487 1534.06 399.037 1531.66 399.037V401.037C1533.82 401.037 1535.54 401.443 1536.88 402.193L1537.86 400.45ZM1531.66 399.037H1504.25V401.037H1531.66V399.037ZM1503.25 400.037V421.303H1505.25V400.037H1503.25ZM1504.25 382.91H1529.8V380.91H1504.25V382.91ZM1529.8 382.91C1532.03 382.91 1533.98 382.454 1535.6 381.483L1534.57 379.768C1533.33 380.51 1531.76 380.91 1529.8 380.91V382.91ZM1535.57 381.497C1537.27 380.546 1538.55 379.211 1539.4 377.505L1537.62 376.61C1536.95 377.949 1535.95 378.993 1534.59 379.754L1535.57 381.497ZM1539.38 377.548C1540.34 375.849 1540.79 373.865 1540.79 371.634H1538.79C1538.79 373.589 1538.4 375.222 1537.64 376.567L1539.38 377.548ZM1540.79 371.634C1540.79 368.38 1539.82 365.714 1537.77 363.771L1536.39 365.223C1537.96 366.706 1538.79 368.798 1538.79 371.634H1540.79ZM1537.77 363.771C1535.76 361.863 1533.22 360.928 1530.23 360.928V362.928C1532.77 362.928 1534.79 363.706 1536.39 365.223L1537.77 363.771ZM1530.23 360.928H1504.25V362.928H1530.23V360.928ZM1503.25 361.928V381.91H1505.25V361.928H1503.25ZM1604.47 437.146L1604.02 438.041L1604.03 438.044L1604.03 438.047L1604.47 437.146ZM1586.91 420.162L1587.79 419.684L1586.91 420.162ZM1586.91 363.784L1587.79 364.267L1587.79 364.262L1586.91 363.784ZM1604.47 346.942L1604.91 347.841L1604.91 347.838L1604.47 346.942ZM1659.7 346.942L1659.26 347.836L1659.26 347.84L1659.27 347.843L1659.7 346.942ZM1677.4 363.784L1676.52 364.262L1676.53 364.267L1677.4 363.784ZM1677.4 420.162L1678.28 420.64L1677.4 420.162ZM1659.7 437.146L1660.14 438.045L1660.15 438.043L1659.7 437.146ZM1643 420.875L1643.37 421.806L1643 420.875ZM1650.85 415.452L1650.12 414.774L1650.11 414.783L1650.1 414.791L1650.85 415.452ZM1655.71 406.745L1656.66 407.037H1656.66L1655.71 406.745ZM1655.71 377.2L1656.66 376.908L1656.66 376.908L1655.71 377.2ZM1650.85 368.494L1650.1 369.154L1650.11 369.163L1650.12 369.171L1650.85 368.494ZM1643 363.07L1642.64 364.001L1643 363.07ZM1621.17 363.07L1621.53 364.001V364.001L1621.17 363.07ZM1613.32 368.494L1612.57 367.833L1613.32 368.494ZM1608.61 377.2L1607.65 376.908V376.908L1608.61 377.2ZM1608.61 406.745L1607.65 407.037L1608.61 406.745ZM1613.32 415.452L1612.57 416.112L1613.32 415.452ZM1621.17 420.875L1620.8 421.806L1621.17 420.875ZM1632.16 441.713C1621.52 441.713 1612.44 439.877 1604.9 436.245L1604.03 438.047C1611.91 441.838 1621.29 443.713 1632.16 443.713V441.713ZM1604.91 436.252C1597.49 432.538 1591.78 427.022 1587.79 419.684L1586.03 420.64C1590.22 428.335 1596.22 434.143 1604.02 438.041L1604.91 436.252ZM1587.79 419.684C1583.8 412.353 1581.77 403.109 1581.77 391.901H1579.77C1579.77 403.339 1581.84 412.936 1586.03 420.64L1587.79 419.684ZM1581.77 391.901C1581.77 380.692 1583.8 371.499 1587.79 364.267L1586.04 363.301C1581.84 370.912 1579.77 380.464 1579.77 391.901H1581.77ZM1587.79 364.262C1591.78 356.925 1597.48 351.459 1604.91 347.841L1604.03 346.043C1596.23 349.846 1590.22 355.608 1586.03 363.306L1587.79 364.262ZM1604.91 347.838C1612.45 344.115 1621.52 342.233 1632.16 342.233V340.233C1621.29 340.233 1611.9 342.156 1604.02 346.045L1604.91 347.838ZM1632.16 342.233C1642.79 342.233 1651.81 344.115 1659.26 347.836L1660.15 346.047C1652.37 342.156 1643.02 340.233 1632.16 340.233V342.233ZM1659.27 347.843C1666.79 351.463 1672.53 356.929 1676.52 364.262L1678.28 363.306C1674.09 355.605 1668.03 349.843 1660.14 346.041L1659.27 347.843ZM1676.53 364.267C1680.51 371.499 1682.54 380.692 1682.54 391.901H1684.54C1684.54 380.464 1682.47 370.912 1678.28 363.301L1676.53 364.267ZM1682.54 391.901C1682.54 403.109 1680.51 412.353 1676.52 419.684L1678.28 420.64C1682.47 412.936 1684.54 403.339 1684.54 391.901H1682.54ZM1676.52 419.684C1672.53 427.019 1666.78 432.534 1659.26 436.25L1660.15 438.043C1668.04 434.146 1674.09 428.339 1678.28 420.64L1676.52 419.684ZM1659.26 436.247C1651.82 439.876 1642.8 441.713 1632.16 441.713V443.713C1643.02 443.713 1652.36 441.838 1660.14 438.045L1659.26 436.247ZM1632.16 423.731C1636.35 423.731 1640.09 423.097 1643.37 421.806L1642.64 419.945C1639.64 421.127 1636.15 421.731 1632.16 421.731V423.731ZM1643.37 421.806C1646.65 420.514 1649.4 418.618 1651.6 416.112L1650.1 414.791C1648.12 417.043 1645.64 418.762 1642.64 419.945L1643.37 421.806ZM1651.59 416.129C1653.89 413.628 1655.58 410.59 1656.66 407.037L1654.75 406.453C1653.74 409.751 1652.19 412.517 1650.12 414.774L1651.59 416.129ZM1656.66 407.037C1657.74 403.501 1658.28 399.546 1658.28 395.184H1656.28C1656.28 399.386 1655.76 403.138 1654.75 406.453L1656.66 407.037ZM1658.28 395.184V388.904H1656.28V395.184H1658.28ZM1658.28 388.904C1658.28 384.449 1657.74 380.447 1656.66 376.908L1654.75 377.492C1655.76 380.805 1656.28 384.605 1656.28 388.904H1658.28ZM1656.66 376.908C1655.58 373.355 1653.89 370.317 1651.59 367.817L1650.12 369.171C1652.19 371.428 1653.74 374.194 1654.75 377.492L1656.66 376.908ZM1651.6 367.833C1649.4 365.327 1646.65 363.431 1643.37 362.14L1642.64 364.001C1645.64 365.183 1648.12 366.902 1650.1 369.154L1651.6 367.833ZM1643.37 362.14C1640.09 360.848 1636.35 360.215 1632.16 360.215V362.215C1636.15 362.215 1639.64 362.818 1642.64 364.001L1643.37 362.14ZM1632.16 360.215C1627.87 360.215 1624.08 360.847 1620.8 362.14L1621.53 364.001C1624.53 362.819 1628.07 362.215 1632.16 362.215V360.215ZM1620.8 362.14C1617.52 363.431 1614.77 365.327 1612.57 367.833L1614.07 369.154C1616.05 366.902 1618.53 365.183 1621.53 364.001L1620.8 362.14ZM1612.57 367.833C1610.37 370.332 1608.73 373.364 1607.65 376.908L1609.56 377.492C1610.57 374.185 1612.08 371.413 1614.07 369.154L1612.57 367.833ZM1607.65 376.908C1606.57 380.447 1606.04 384.449 1606.04 388.904H1608.04C1608.04 384.605 1608.55 380.805 1609.56 377.492L1607.65 376.908ZM1606.04 388.904V395.184H1608.04V388.904H1606.04ZM1606.04 395.184C1606.04 399.546 1606.57 403.501 1607.65 407.037L1609.56 406.453C1608.55 403.138 1608.04 399.386 1608.04 395.184H1606.04ZM1607.65 407.037C1608.73 410.581 1610.37 413.613 1612.57 416.112L1614.07 414.791C1612.08 412.532 1610.57 409.76 1609.56 406.453L1607.65 407.037ZM1612.57 416.112C1614.77 418.618 1617.52 420.514 1620.8 421.806L1621.53 419.945C1618.53 418.762 1616.05 417.043 1614.07 414.791L1612.57 416.112ZM1620.8 421.806C1624.08 423.098 1627.87 423.731 1632.16 423.731V421.731C1628.07 421.731 1624.53 421.126 1621.53 419.945L1620.8 421.806ZM1721.3 438.288L1720.9 439.205L1720.91 439.207L1721.3 438.288ZM1705.74 425.014L1706.6 424.492L1705.74 425.014ZM1700.32 342.945V341.945H1699.32V342.945H1700.32ZM1726.01 342.945H1727.01V341.945H1726.01V342.945ZM1760.55 417.307L1761.28 417.995H1761.28L1760.55 417.307ZM1765.69 342.945V341.945H1764.69V342.945H1765.69ZM1791.24 342.945H1792.24V341.945H1791.24V342.945ZM1785.81 425.014L1786.67 425.537L1785.81 425.014ZM1770.26 438.288L1770.66 439.205L1770.26 438.288ZM1745.71 441.713C1736.39 441.713 1728.39 440.253 1721.7 437.37L1720.91 439.207C1727.91 442.222 1736.19 443.713 1745.71 443.713V441.713ZM1721.7 437.372C1715.12 434.498 1710.1 430.205 1706.6 424.492L1704.89 425.537C1708.62 431.623 1713.97 436.179 1720.9 439.205L1721.7 437.372ZM1706.6 424.492C1703.1 418.786 1701.32 411.652 1701.32 403.034H1699.32C1699.32 411.924 1701.16 419.444 1704.89 425.537L1706.6 424.492ZM1701.32 403.034V342.945H1699.32V403.034H1701.32ZM1700.32 343.945H1726.01V341.945H1700.32V343.945ZM1725.01 342.945V402.463H1727.01V342.945H1725.01ZM1725.01 402.463C1725.01 408.922 1726.73 414.137 1730.27 417.984L1731.74 416.63C1728.62 413.245 1727.01 408.564 1727.01 402.463H1725.01ZM1730.27 417.984C1733.85 421.865 1739.05 423.731 1745.71 423.731V421.731C1739.42 421.731 1734.83 419.98 1731.74 416.63L1730.27 417.984ZM1745.71 423.731C1752.37 423.731 1757.61 421.865 1761.28 417.995L1759.83 416.619C1756.64 419.981 1751.99 421.731 1745.71 421.731V423.731ZM1761.28 417.995C1764.92 414.148 1766.69 408.929 1766.69 402.463H1764.69C1764.69 408.557 1763.03 413.234 1759.83 416.619L1761.28 417.995ZM1766.69 402.463V342.945H1764.69V402.463H1766.69ZM1765.69 343.945H1791.24V341.945H1765.69V343.945ZM1790.24 342.945V403.034H1792.24V342.945H1790.24ZM1790.24 403.034C1790.24 411.652 1788.46 418.786 1784.96 424.492L1786.67 425.537C1790.4 419.444 1792.24 411.924 1792.24 403.034H1790.24ZM1784.96 424.492C1781.46 430.205 1776.44 434.498 1769.86 437.372L1770.66 439.205C1777.59 436.179 1782.94 431.623 1786.67 425.537L1784.96 424.492ZM1769.86 437.372C1763.26 440.252 1755.22 441.713 1745.71 441.713V443.713C1755.42 443.713 1763.74 442.223 1770.66 439.205L1769.86 437.372ZM1836.94 441H1835.94V442H1836.94V441ZM1836.94 363.926H1837.94V362.926H1836.94V363.926ZM1805.11 363.926H1804.11V364.926H1805.11V363.926ZM1805.11 342.945V341.945H1804.11V342.945H1805.11ZM1894.32 342.945H1895.32V341.945H1894.32V342.945ZM1894.32 363.926V364.926H1895.32V363.926H1894.32ZM1862.49 363.926V362.926H1861.49V363.926H1862.49ZM1862.49 441V442H1863.49V441H1862.49ZM1837.94 441V363.926H1835.94V441H1837.94ZM1836.94 362.926H1805.11V364.926H1836.94V362.926ZM1806.11 363.926V342.945H1804.11V363.926H1806.11ZM1805.11 343.945H1894.32V341.945H1805.11V343.945ZM1893.32 342.945V363.926H1895.32V342.945H1893.32ZM1894.32 362.926H1862.49V364.926H1894.32V362.926ZM1861.49 363.926V441H1863.49V363.926H1861.49ZM1862.49 440H1836.94V442H1862.49V440Z" fill="url(#paint1_linear_103_17414)" mask="url(#path-3-outside-1_103_17414)"/>
</g>
<defs>
<linearGradient id="paint0_linear_103_17414" x1="24.0249" y1="478.048" x2="1075.65" y2="-706.61" gradientUnits="userSpaceOnUse">
<stop stop-color="#0F0D0D"/>
<stop offset="0.8" stop-color="#304646"/>
</linearGradient>
<linearGradient id="paint1_linear_103_17414" x1="1349" y1="341" x2="1941" y2="434.5" gradientUnits="userSpaceOnUse">
<stop stop-color="#FFC631"/>
<stop offset="1" stop-color="#CA9301"/>
</linearGradient>
</defs>
</svg>
