<svg width="189" height="38" viewBox="0 0 189 38" fill="none" xmlns="http://www.w3.org/2000/svg">
<mask id="path-1-outside-1_270_2319" maskUnits="userSpaceOnUse" x="0" y="0" width="189" height="38" fill="black">
<rect fill="white" width="189" height="38"/>
<path d="M1.46055 36L14.3605 1.65H25.1105L38.0105 36H28.4605L26.4105 30.05H12.7105L10.6605 36H1.46055ZM14.8605 23.35H24.2105L21.7605 16.1C21.6272 15.7333 21.4605 15.2833 21.2605 14.75C21.0939 14.1833 20.9105 13.6 20.7105 13C20.5439 12.3667 20.3772 11.7333 20.2105 11.1C20.0439 10.4667 19.8772 9.91667 19.7105 9.45H19.3605C19.2272 10.0833 19.0272 10.8 18.7605 11.6C18.5272 12.4 18.2772 13.2 18.0105 14C17.7772 14.8 17.5605 15.5 17.3605 16.1L14.8605 23.35ZM42.1152 36V1.65H63.1152C64.8819 1.65 66.4819 2 67.9152 2.7C69.3486 3.4 70.4819 4.38333 71.3152 5.65C72.1819 6.91667 72.6152 8.4 72.6152 10.1C72.6152 11.6 72.3486 12.8833 71.8152 13.95C71.3152 15.0167 70.6319 15.8833 69.7652 16.55C68.9319 17.2167 67.9819 17.7167 66.9152 18.05V18.25C68.1486 18.5167 69.2652 19 70.2652 19.7C71.2652 20.3667 72.0486 21.2833 72.6152 22.45C73.2152 23.6167 73.5152 25.0333 73.5152 26.7C73.5152 28.6667 73.0486 30.35 72.1152 31.75C71.1819 33.1167 69.9486 34.1667 68.4152 34.9C66.8819 35.6333 65.1652 36 63.2652 36H42.1152ZM51.0652 29.1H60.8152C61.8819 29.1 62.7319 28.7833 63.3652 28.15C64.0319 27.5167 64.3652 26.55 64.3652 25.25C64.3652 24.55 64.2152 23.9333 63.9152 23.4C63.6486 22.8333 63.2319 22.4 62.6652 22.1C62.1319 21.8 61.4652 21.65 60.6652 21.65H51.0652V29.1ZM51.0652 15.3H60.0152C60.7486 15.3 61.3652 15.15 61.8652 14.85C62.3986 14.55 62.7986 14.1333 63.0652 13.6C63.3652 13.0667 63.5152 12.4333 63.5152 11.7C63.5152 10.6333 63.1986 9.8 62.5652 9.2C61.9319 8.6 61.1319 8.3 60.1652 8.3H51.0652V15.3ZM95.8711 36.6C92.1044 36.6 88.8711 35.95 86.1711 34.65C83.5044 33.3167 81.4544 31.3333 80.0211 28.7C78.5878 26.0667 77.8711 22.7667 77.8711 18.8C77.8711 14.8333 78.5878 11.55 80.0211 8.95C81.4544 6.31667 83.5044 4.35 86.1711 3.05C88.8711 1.71666 92.1044 1.05 95.8711 1.05C99.6378 1.05 102.854 1.71666 105.521 3.05C108.221 4.35 110.288 6.31667 111.721 8.95C113.154 11.55 113.871 14.8333 113.871 18.8C113.871 22.7667 113.154 26.0667 111.721 28.7C110.288 31.3333 108.221 33.3167 105.521 34.65C102.854 35.95 99.6378 36.6 95.8711 36.6ZM95.8711 29.6C97.3044 29.6 98.5711 29.3833 99.6711 28.95C100.771 28.5167 101.688 27.8833 102.421 27.05C103.188 26.2167 103.754 25.2 104.121 24C104.488 22.8 104.671 21.45 104.671 19.95V17.75C104.671 16.2167 104.488 14.85 104.121 13.65C103.754 12.45 103.188 11.4333 102.421 10.6C101.688 9.76666 100.771 9.13333 99.6711 8.7C98.5711 8.26667 97.3044 8.05 95.8711 8.05C94.4044 8.05 93.1211 8.26667 92.0211 8.7C90.9211 9.13333 90.0044 9.76666 89.2711 10.6C88.5378 11.4333 87.9878 12.45 87.6211 13.65C87.2544 14.85 87.0711 16.2167 87.0711 17.75V19.95C87.0711 21.45 87.2544 22.8 87.6211 24C87.9878 25.2 88.5378 26.2167 89.2711 27.05C90.0044 27.8833 90.9211 28.5167 92.0211 28.95C93.1211 29.3833 94.4044 29.6 95.8711 29.6ZM135.65 36.6C132.35 36.6 129.5 36.0833 127.1 35.05C124.733 34.0167 122.916 32.4667 121.65 30.4C120.383 28.3333 119.75 25.7667 119.75 22.7V1.65H128.75V22.5C128.75 24.7 129.333 26.4333 130.5 27.7C131.666 28.9667 133.383 29.6 135.65 29.6C137.916 29.6 139.65 28.9667 140.85 27.7C142.05 26.4333 142.65 24.7 142.65 22.5V1.65H151.6V22.7C151.6 25.7667 150.966 28.3333 149.7 30.4C148.433 32.4667 146.616 34.0167 144.25 35.05C141.883 36.0833 139.016 36.6 135.65 36.6ZM167.61 36V9H156.46V1.65H187.71V9H176.56V36H167.61Z"/>
</mask>
<path d="M1.46055 36L0.96337 35.8133L0.693807 36.5311H1.46055V36ZM14.3605 1.65V1.11892H13.9927L13.8634 1.46329L14.3605 1.65ZM25.1105 1.65L25.6077 1.46329L25.4784 1.11892H25.1105V1.65ZM38.0105 36V36.5311H38.7773L38.5077 35.8133L38.0105 36ZM28.4605 36L27.9584 36.173L28.0818 36.5311H28.4605V36ZM26.4105 30.05L26.9127 29.877L26.7893 29.5189H26.4105V30.05ZM12.7105 30.05V29.5189H12.3318L12.2084 29.877L12.7105 30.05ZM10.6605 36V36.5311H11.0393L11.1627 36.173L10.6605 36ZM14.8605 23.35L14.3585 23.1769L14.1157 23.8811H14.8605V23.35ZM24.2105 23.35V23.8811H24.9506L24.7137 23.18L24.2105 23.35ZM21.7605 16.1L22.2638 15.9299L22.2597 15.9185L21.7605 16.1ZM21.2605 14.75L20.751 14.8999L20.7565 14.9184L20.7633 14.9365L21.2605 14.75ZM20.7105 13L20.197 13.1352L20.2013 13.1517L20.2067 13.1679L20.7105 13ZM20.2105 11.1L19.697 11.2352L20.2105 11.1ZM19.7105 9.45L20.2107 9.27138L20.0848 8.91892H19.7105V9.45ZM19.3605 9.45V8.91892H18.9296L18.8409 9.34059L19.3605 9.45ZM18.7605 11.6L18.2567 11.4321L18.2535 11.4416L18.2507 11.4513L18.7605 11.6ZM18.0105 14L17.5067 13.8321L17.5035 13.8416L17.5007 13.8513L18.0105 14ZM17.3605 16.1L17.8626 16.2731L17.8644 16.2679L17.3605 16.1ZM1.95772 36.1867L14.8577 1.83671L13.8634 1.46329L0.96337 35.8133L1.95772 36.1867ZM14.3605 2.18108H25.1105V1.11892H14.3605V2.18108ZM24.6134 1.83671L37.5134 36.1867L38.5077 35.8133L25.6077 1.46329L24.6134 1.83671ZM38.0105 35.4689H28.4605V36.5311H38.0105V35.4689ZM28.9627 35.827L26.9127 29.877L25.9084 30.223L27.9584 36.173L28.9627 35.827ZM26.4105 29.5189H12.7105V30.5811H26.4105V29.5189ZM12.2084 29.877L10.1584 35.827L11.1627 36.173L13.2127 30.223L12.2084 29.877ZM10.6605 35.4689H1.46055V36.5311H10.6605V35.4689ZM14.8605 23.8811H24.2105V22.8189H14.8605V23.8811ZM24.7137 23.18L22.2637 15.93L21.2574 16.27L23.7074 23.52L24.7137 23.18ZM22.2597 15.9185C22.1255 15.5496 21.9582 15.0978 21.7578 14.5635L20.7633 14.9365C20.9629 15.4688 21.1289 15.9171 21.2614 16.2815L22.2597 15.9185ZM21.77 14.6001C21.6015 14.027 21.4162 13.4376 21.2144 12.8321L20.2067 13.1679C20.4049 13.7624 20.5863 14.3397 20.751 14.8999L21.77 14.6001ZM21.2241 12.8648C21.0575 12.2315 20.8908 11.5982 20.7241 10.9648L19.697 11.2352C19.8636 11.8685 20.0303 12.5018 20.197 13.1352L21.2241 12.8648ZM20.7241 10.9648C20.5548 10.3212 20.3838 9.75602 20.2107 9.27138L19.2104 9.62862C19.3707 10.0773 19.533 10.6121 19.697 11.2352L20.7241 10.9648ZM19.7105 8.91892H19.3605V9.98108H19.7105V8.91892ZM18.8409 9.34059C18.7127 9.94925 18.5188 10.6459 18.2567 11.4321L19.2644 11.7679C19.5356 10.9541 19.7417 10.2174 19.8802 9.55941L18.8409 9.34059ZM18.2507 11.4513C18.0193 12.2448 17.7713 13.0384 17.5067 13.8321L18.5144 14.1679C18.7831 13.3616 19.0351 12.5552 19.2704 11.7487L18.2507 11.4513ZM17.5007 13.8513C17.2687 14.6467 17.0541 15.3401 16.8567 15.9321L17.8644 16.2679C18.067 15.6599 18.2857 14.9533 18.5204 14.1487L17.5007 13.8513ZM16.8585 15.9269L14.3585 23.1769L15.3626 23.5231L17.8626 16.2731L16.8585 15.9269ZM42.1152 36H41.5842V36.5311H42.1152V36ZM42.1152 1.65V1.11892H41.5842V1.65H42.1152ZM67.9152 2.7L67.6822 3.17721H67.6822L67.9152 2.7ZM71.3152 5.65L70.8715 5.94194L70.8769 5.94989L71.3152 5.65ZM71.8152 13.95L71.3401 13.7124L71.3344 13.7246L71.8152 13.95ZM69.7652 16.55L69.4414 16.129L69.4335 16.1353L69.7652 16.55ZM66.9152 18.05L66.7568 17.5431L66.3842 17.6596V18.05H66.9152ZM66.9152 18.25H66.3842V18.6785L66.803 18.7691L66.9152 18.25ZM70.2652 19.7L69.9606 20.1352L69.9706 20.1419L70.2652 19.7ZM72.6152 22.45L72.1374 22.6821L72.143 22.6929L72.6152 22.45ZM72.1152 31.75L72.5538 32.0495L72.5571 32.0446L72.1152 31.75ZM51.0652 29.1H50.5342V29.6311H51.0652V29.1ZM63.3652 28.15L62.9993 27.7648L62.9897 27.7745L63.3652 28.15ZM63.9152 23.4L63.4347 23.6261L63.4429 23.6436L63.4524 23.6604L63.9152 23.4ZM62.6652 22.1L62.4048 22.563L62.4167 22.5694L62.6652 22.1ZM51.0652 21.65V21.1189H50.5342V21.65H51.0652ZM51.0652 15.3H50.5342V15.8311H51.0652V15.3ZM61.8652 14.85L61.6049 14.3871L61.5984 14.3908L61.592 14.3946L61.8652 14.85ZM63.0652 13.6L62.6024 13.3396L62.596 13.3509L62.5902 13.3625L63.0652 13.6ZM51.0652 8.3V7.76892H50.5342V8.3H51.0652ZM42.6463 36V1.65H41.5842V36H42.6463ZM42.1152 2.18108H63.1152V1.11892H42.1152V2.18108ZM63.1152 2.18108C64.8099 2.18108 66.3289 2.51632 67.6822 3.17721L68.1483 2.22279C66.6349 1.48368 64.9539 1.11892 63.1152 1.11892V2.18108ZM67.6822 3.17721C69.0346 3.8377 70.0933 4.75896 70.8716 5.94189L71.7589 5.35811C70.8705 4.0077 69.6625 2.9623 68.1483 2.22279L67.6822 3.17721ZM70.8769 5.94989C71.6767 7.11881 72.0842 8.49502 72.0842 10.1H73.1463C73.1463 8.30498 72.6871 6.71452 71.7535 5.35011L70.8769 5.94989ZM72.0842 10.1C72.0842 11.5383 71.8284 12.7361 71.3402 13.7125L72.2902 14.1875C72.8687 13.0306 73.1463 11.6617 73.1463 10.1H72.0842ZM71.3344 13.7246C70.8675 14.7206 70.2357 15.518 69.4414 16.1291L70.089 16.9709C71.0281 16.2486 71.763 15.3128 72.2961 14.1754L71.3344 13.7246ZM69.4335 16.1353C68.6541 16.7588 67.7635 17.2285 66.7568 17.5431L67.0736 18.5569C68.2003 18.2048 69.2097 17.6745 70.097 16.9647L69.4335 16.1353ZM66.3842 18.05V18.25H67.4463V18.05H66.3842ZM66.803 18.7691C67.9697 19.0213 69.0205 19.477 69.9607 20.1351L70.5698 19.2649C69.5099 18.523 68.3275 18.012 67.0275 17.7309L66.803 18.7691ZM69.9706 20.1419C70.8858 20.752 71.6088 21.5934 72.1375 22.682L73.0929 22.218C72.4884 20.9733 71.6446 19.9813 70.5598 19.2581L69.9706 20.1419ZM72.143 22.6929C72.6953 23.7669 72.9842 25.0956 72.9842 26.7H74.0463C74.0463 24.9711 73.7352 23.4665 73.0875 22.2071L72.143 22.6929ZM72.9842 26.7C72.9842 28.5799 72.5392 30.1566 71.6733 31.4554L72.5571 32.0446C73.5579 30.5434 74.0463 28.7534 74.0463 26.7H72.9842ZM71.6767 31.4505C70.7976 32.7377 69.6374 33.7268 68.1861 34.4209L68.6444 35.3791C70.2597 34.6065 71.5662 33.4956 72.5538 32.0495L71.6767 31.4505ZM68.1861 34.4209C66.7323 35.1162 65.0954 35.4689 63.2652 35.4689V36.5311C65.2351 36.5311 67.0315 36.1505 68.6444 35.3791L68.1861 34.4209ZM63.2652 35.4689H42.1152V36.5311H63.2652V35.4689ZM51.0652 29.6311H60.8152V28.5689H51.0652V29.6311ZM60.8152 29.6311C61.9939 29.6311 62.9891 29.2772 63.7408 28.5255L62.9897 27.7745C62.4747 28.2895 61.7699 28.5689 60.8152 28.5689V29.6311ZM63.731 28.535C64.5407 27.7658 64.8963 26.6342 64.8963 25.25H63.8342C63.8342 26.4658 63.5231 27.2675 62.9995 27.765L63.731 28.535ZM64.8963 25.25C64.8963 24.4721 64.7289 23.7633 64.3781 23.1396L63.4524 23.6604C63.7015 24.1034 63.8342 24.6279 63.8342 25.25H64.8963ZM64.3958 23.1739C64.0789 22.5005 63.5794 21.9831 62.9137 21.6306L62.4167 22.5694C62.8844 22.8169 63.2182 23.1662 63.4347 23.6261L64.3958 23.1739ZM62.9256 21.6371C62.292 21.2807 61.5292 21.1189 60.6652 21.1189V22.1811C61.4013 22.1811 61.9718 22.3193 62.4049 22.5629L62.9256 21.6371ZM60.6652 21.1189H51.0652V22.1811H60.6652V21.1189ZM50.5342 21.65V29.1H51.5963V21.65H50.5342ZM51.0652 15.8311H60.0152V14.7689H51.0652V15.8311ZM60.0152 15.8311C60.8203 15.8311 61.5372 15.6662 62.1385 15.3054L61.592 14.3946C61.1933 14.6338 60.6769 14.7689 60.0152 14.7689V15.8311ZM62.1256 15.3129C62.7488 14.9623 63.2248 14.4683 63.5402 13.8375L62.5902 13.3625C62.3723 13.7983 62.0483 14.1377 61.6049 14.3871L62.1256 15.3129ZM63.5281 13.8604C63.8809 13.2331 64.0463 12.5065 64.0463 11.7H62.9842C62.9842 12.3602 62.8495 12.9002 62.6024 13.3396L63.5281 13.8604ZM64.0463 11.7C64.0463 10.5223 63.6926 9.53643 62.9305 8.81446L62.2 9.58554C62.7046 10.0636 62.9842 10.7443 62.9842 11.7H64.0463ZM62.9305 8.81446C62.1875 8.11058 61.2518 7.76892 60.1652 7.76892V8.83108C61.012 8.83108 61.6763 9.08942 62.2 9.58554L62.9305 8.81446ZM60.1652 7.76892H51.0652V8.83108H60.1652V7.76892ZM50.5342 8.3V15.3H51.5963V8.3H50.5342ZM86.1711 34.65L85.9336 35.1251L85.9407 35.1285L86.1711 34.65ZM80.0211 28.7L80.4875 28.4461L80.0211 28.7ZM80.0211 8.95L80.4862 9.2064L80.4875 9.20389L80.0211 8.95ZM86.1711 3.05L86.4038 3.52738L86.4062 3.52618L86.1711 3.05ZM105.521 3.05L105.284 3.52506L105.291 3.5285L105.521 3.05ZM111.721 8.95L111.255 9.2039L111.256 9.20639L111.721 8.95ZM111.721 28.7L112.188 28.9539L111.721 28.7ZM105.521 34.65L105.754 35.1274L105.756 35.1262L105.521 34.65ZM99.6711 28.95L99.8657 29.4441H99.8658L99.6711 28.95ZM102.421 27.05L102.03 26.6903L102.022 26.6992L102.421 27.05ZM104.121 24L104.629 24.1552L104.121 24ZM104.121 13.65L104.629 13.4948V13.4948L104.121 13.65ZM102.421 10.6L102.022 10.9509L102.03 10.9596L102.421 10.6ZM99.6711 8.7L99.4764 9.19412L99.6711 8.7ZM92.0211 8.7L92.2157 9.19412H92.2158L92.0211 8.7ZM89.2711 10.6L88.8724 10.2492L89.2711 10.6ZM87.6211 13.65L87.1132 13.4948V13.4948L87.6211 13.65ZM87.6211 24L87.1132 24.1552L87.6211 24ZM89.2711 27.05L88.8724 27.4008L89.2711 27.05ZM92.0211 28.95L91.8264 29.4441L92.0211 28.95ZM95.8711 36.0689C92.1643 36.0689 89.0136 35.4292 86.4015 34.1715L85.9407 35.1285C88.7286 36.4708 92.0446 37.1311 95.8711 37.1311V36.0689ZM86.4086 34.175C83.8396 32.8905 81.8693 30.9846 80.4875 28.4461L79.5546 28.9539C81.0396 31.682 83.1692 33.7428 85.9336 35.125L86.4086 34.175ZM80.4875 28.4461C79.1081 25.9118 78.4022 22.7056 78.4022 18.8H77.34C77.34 22.8277 78.0674 26.2215 79.5546 28.9539L80.4875 28.4461ZM78.4022 18.8C78.4022 14.894 79.1083 11.7059 80.4862 9.20639L79.556 8.6936C78.0673 11.3941 77.34 14.7727 77.34 18.8H78.4022ZM80.4875 9.20389C81.8687 6.66644 83.8375 4.77844 86.4038 3.52737L85.9384 2.57262C83.1713 3.92156 81.0402 5.9669 79.5546 8.6961L80.4875 9.20389ZM86.4062 3.52618C89.0171 2.23687 92.166 1.58108 95.8711 1.58108V0.518917C92.0428 0.518917 88.7251 1.19646 85.9359 2.57382L86.4062 3.52618ZM95.8711 1.58108C99.5765 1.58108 102.707 2.23696 105.284 3.52501L105.759 2.57499C103.001 1.19637 99.6991 0.518917 95.8711 0.518917V1.58108ZM105.291 3.5285C107.89 4.78019 109.874 6.66827 111.255 9.2039L112.188 8.6961C110.701 5.96507 108.552 3.9198 105.751 2.57149L105.291 3.5285ZM111.256 9.20639C112.634 11.7059 113.34 14.894 113.34 18.8H114.402C114.402 14.7727 113.675 11.3941 112.186 8.69361L111.256 9.20639ZM113.34 18.8C113.34 22.7056 112.634 25.9118 111.255 28.4461L112.188 28.9539C113.675 26.2215 114.402 22.8277 114.402 18.8H113.34ZM111.255 28.4461C109.874 30.9828 107.888 32.8887 105.286 34.1738L105.756 35.1262C108.554 33.7446 110.702 31.6838 112.188 28.9539L111.255 28.4461ZM105.288 34.1726C102.711 35.4291 99.5782 36.0689 95.8711 36.0689V37.1311C99.6973 37.1311 102.998 36.4709 105.754 35.1274L105.288 34.1726ZM95.8711 30.1311C97.3573 30.1311 98.6921 29.9065 99.8657 29.4441L99.4764 28.4559C98.4501 28.8602 97.2516 29.0689 95.8711 29.0689V30.1311ZM99.8658 29.4441C101.039 28.982 102.027 28.3015 102.82 27.4008L102.022 26.6992C101.348 27.4651 100.503 28.0514 99.4764 28.4559L99.8658 29.4441ZM102.812 27.4096C103.638 26.5117 104.242 25.4229 104.629 24.1552L103.613 23.8448C103.267 24.9771 102.738 25.9217 102.03 26.6904L102.812 27.4096ZM104.629 24.1552C105.014 22.8962 105.202 21.4926 105.202 19.95H104.14C104.14 21.4073 103.962 22.7038 103.613 23.8448L104.629 24.1552ZM105.202 19.95V17.75H104.14V19.95H105.202ZM105.202 17.75C105.202 16.1753 105.014 14.7548 104.629 13.4948L103.613 13.8052C103.962 14.9452 104.14 16.258 104.14 17.75H105.202ZM104.629 13.4948C104.242 12.2271 103.638 11.1383 102.812 10.2404L102.03 10.9596C102.738 11.7283 103.267 12.6729 103.613 13.8052L104.629 13.4948ZM102.82 10.2492C102.027 9.34845 101.039 8.66804 99.8657 8.20588L99.4764 9.19412C100.503 9.59863 101.348 10.1849 102.022 10.9508L102.82 10.2492ZM99.8658 8.20588C98.6921 7.74354 97.3573 7.51892 95.8711 7.51892V8.58108C97.2516 8.58108 98.4501 8.78979 99.4764 9.19412L99.8658 8.20588ZM95.8711 7.51892C94.3533 7.51892 93.0014 7.74303 91.8264 8.20588L92.2158 9.19412C93.2408 8.7903 94.4556 8.58108 95.8711 8.58108V7.51892ZM91.8264 8.20588C90.6533 8.66804 89.665 9.34845 88.8724 10.2492L89.6698 10.9508C90.3438 10.1849 91.1889 9.59863 92.2157 9.19412L91.8264 8.20588ZM88.8724 10.2492C88.083 11.1462 87.4991 12.232 87.1132 13.4948L88.129 13.8052C88.4765 12.668 88.9925 11.7205 89.6698 10.9508L88.8724 10.2492ZM87.1132 13.4948C86.7282 14.7548 86.54 16.1753 86.54 17.75H87.6022C87.6022 16.258 87.7807 14.9452 88.129 13.8052L87.1132 13.4948ZM86.54 17.75V19.95H87.6022V17.75H86.54ZM86.54 19.95C86.54 21.4926 86.7285 22.8962 87.1132 24.1552L88.129 23.8448C87.7803 22.7038 87.6022 21.4073 87.6022 19.95H86.54ZM87.1132 24.1552C87.4991 25.418 88.083 26.5038 88.8724 27.4008L89.6698 26.6992C88.9925 25.9295 88.4765 24.982 88.129 23.8448L87.1132 24.1552ZM88.8724 27.4008C89.665 28.3015 90.6533 28.982 91.8264 29.4441L92.2158 28.4559C91.1889 28.0514 90.3438 27.4651 89.6698 26.6992L88.8724 27.4008ZM91.8264 29.4441C93.0014 29.907 94.3533 30.1311 95.8711 30.1311V29.0689C94.4556 29.0689 93.2408 28.8597 92.2158 28.4559L91.8264 29.4441ZM127.1 35.05L126.887 35.5367L126.89 35.5378L127.1 35.05ZM121.65 30.4L122.102 30.1225L121.65 30.4ZM119.75 1.65V1.11892H119.219V1.65H119.75ZM128.75 1.65H129.281V1.11892H128.75V1.65ZM130.5 27.7L130.109 28.0598L130.5 27.7ZM140.85 27.7L141.235 28.0652L140.85 27.7ZM142.65 1.65V1.11892H142.119V1.65H142.65ZM151.6 1.65H152.131V1.11892H151.6V1.65ZM149.7 30.4L150.152 30.6775L149.7 30.4ZM144.25 35.05L144.462 35.5367L144.25 35.05ZM135.65 36.0689C132.404 36.0689 129.628 35.5605 127.31 34.5622L126.89 35.5378C129.371 36.6061 132.296 37.1311 135.65 37.1311V36.0689ZM127.312 34.5633C125.038 33.5704 123.308 32.0903 122.102 30.1225L121.197 30.6775C122.524 32.8431 124.428 34.4629 126.887 35.5367L127.312 34.5633ZM122.102 30.1225C120.899 28.1588 120.281 25.6944 120.281 22.7H119.219C119.219 25.8389 119.867 28.5078 121.197 30.6775L122.102 30.1225ZM120.281 22.7V1.65H119.219V22.7H120.281ZM119.75 2.18108H128.75V1.11892H119.75V2.18108ZM128.219 1.65V22.5H129.281V1.65H128.219ZM128.219 22.5C128.219 24.795 128.829 26.6701 130.109 28.0598L130.89 27.3402C129.837 26.1965 129.281 24.605 129.281 22.5H128.219ZM130.109 28.0598C131.405 29.4673 133.284 30.1311 135.65 30.1311V29.0689C133.482 29.0689 131.927 28.466 130.89 27.3402L130.109 28.0598ZM135.65 30.1311C138.016 30.1311 139.907 29.467 141.235 28.0652L140.464 27.3348C139.392 28.4663 137.816 29.0689 135.65 29.0689V30.1311ZM141.235 28.0652C142.551 26.676 143.181 24.7989 143.181 22.5H142.119C142.119 24.6011 141.548 26.1907 140.464 27.3348L141.235 28.0652ZM143.181 22.5V1.65H142.119V22.5H143.181ZM142.65 2.18108H151.6V1.11892H142.65V2.18108ZM151.069 1.65V22.7H152.131V1.65H151.069ZM151.069 22.7C151.069 25.6944 150.45 28.1588 149.247 30.1225L150.152 30.6775C151.482 28.5078 152.131 25.8389 152.131 22.7H151.069ZM149.247 30.1225C148.041 32.0903 146.311 33.5704 144.037 34.5633L144.462 35.5367C146.922 34.4629 148.825 32.8431 150.152 30.6775L149.247 30.1225ZM144.037 34.5633C141.755 35.5599 138.964 36.0689 135.65 36.0689V37.1311C139.068 37.1311 142.011 36.6067 144.462 35.5367L144.037 34.5633ZM167.61 36H167.079V36.5311H167.61V36ZM167.61 9H168.141V8.46892H167.61V9ZM156.46 9H155.929V9.53108H156.46V9ZM156.46 1.65V1.11892H155.929V1.65H156.46ZM187.71 1.65H188.241V1.11892H187.71V1.65ZM187.71 9V9.53108H188.241V9H187.71ZM176.56 9V8.46892H176.029V9H176.56ZM176.56 36V36.5311H177.091V36H176.56ZM168.141 36V9H167.079V36H168.141ZM167.61 8.46892H156.46V9.53108H167.61V8.46892ZM156.991 9V1.65H155.929V9H156.991ZM156.46 2.18108H187.71V1.11892H156.46V2.18108ZM187.179 1.65V9H188.241V1.65H187.179ZM187.71 8.46892H176.56V9.53108H187.71V8.46892ZM176.029 9V36H177.091V9H176.029ZM176.56 35.4689H167.61V36.5311H176.56V35.4689Z" fill="url(#paint0_linear_270_2319)" mask="url(#path-1-outside-1_270_2319)"/>
<defs>
<linearGradient id="paint0_linear_270_2319" x1="-15.4693" y1="0.709678" x2="204.251" y2="37.808" gradientUnits="userSpaceOnUse">
<stop stop-color="#FFC631"/>
<stop offset="1" stop-color="#CA9301"/>
</linearGradient>
</defs>
</svg>
