<svg width="1920" height="486" viewBox="0 0 1920 486" fill="none" xmlns="http://www.w3.org/2000/svg">
<rect width="1920" height="486" fill="url(#paint0_linear_103_18673)"/>
<mask id="mask0_103_18673" style="mask-type:luminance" maskUnits="userSpaceOnUse" x="0" y="0" width="1920" height="486">
<rect width="1920" height="486" fill="white"/>
</mask>
<g mask="url(#mask0_103_18673)">
<mask id="path-3-outside-1_103_18673" maskUnits="userSpaceOnUse" x="1484" y="340" width="406" height="104" fill="black">
<rect fill="white" x="1484" y="340" width="406" height="104"/>
<path d="M1485.81 441V342.945H1545.76C1550.8 342.945 1555.37 343.944 1559.46 345.943C1563.55 347.941 1566.79 350.748 1569.17 354.364C1571.64 357.979 1572.88 362.214 1572.88 367.067C1572.88 371.348 1572.12 375.012 1570.6 378.057C1569.17 381.101 1567.22 383.575 1564.74 385.479C1562.37 387.382 1559.65 388.809 1556.61 389.76V390.331C1560.13 391.093 1563.32 392.472 1566.17 394.47C1569.03 396.373 1571.26 398.99 1572.88 402.321C1574.59 405.651 1575.45 409.695 1575.45 414.452C1575.45 420.066 1574.12 424.872 1571.45 428.868C1568.79 432.769 1565.27 435.767 1560.89 437.86C1556.51 439.953 1551.61 441 1546.19 441H1485.81ZM1511.36 421.303H1539.2C1542.24 421.303 1544.67 420.399 1546.47 418.592C1548.38 416.784 1549.33 414.024 1549.33 410.313C1549.33 408.315 1548.9 406.555 1548.04 405.032C1547.28 403.415 1546.09 402.178 1544.48 401.321C1542.95 400.465 1541.05 400.037 1538.77 400.037H1511.36V421.303ZM1511.36 381.91H1536.91C1539.01 381.91 1540.77 381.482 1542.19 380.626C1543.72 379.769 1544.86 378.58 1545.62 377.058C1546.47 375.535 1546.9 373.727 1546.9 371.634C1546.9 368.589 1546 366.21 1544.19 364.497C1542.38 362.785 1540.1 361.928 1537.34 361.928H1511.36V381.91ZM1592.16 441V342.945H1617.71V420.019H1667.53V441H1592.16ZM1723.87 442.713C1713.12 442.713 1703.89 440.857 1696.18 437.146C1688.57 433.34 1682.72 427.679 1678.63 420.162C1674.53 412.645 1672.49 403.224 1672.49 391.901C1672.49 380.578 1674.53 371.206 1678.63 363.784C1682.72 356.267 1688.57 350.653 1696.18 346.942C1703.89 343.136 1713.12 341.233 1723.87 341.233C1734.62 341.233 1743.81 343.136 1751.42 346.942C1759.12 350.653 1765.02 356.267 1769.12 363.784C1773.21 371.206 1775.25 380.578 1775.25 391.901C1775.25 403.224 1773.21 412.645 1769.12 420.162C1765.02 427.679 1759.12 433.34 1751.42 437.146C1743.81 440.857 1734.62 442.713 1723.87 442.713ZM1723.87 422.731C1727.96 422.731 1731.58 422.112 1734.72 420.875C1737.86 419.638 1740.48 417.83 1742.57 415.452C1744.76 413.073 1746.37 410.171 1747.42 406.745C1748.47 403.32 1748.99 399.466 1748.99 395.184V388.904C1748.99 384.527 1748.47 380.626 1747.42 377.2C1746.37 373.775 1744.76 370.873 1742.57 368.494C1740.48 366.115 1737.86 364.307 1734.72 363.07C1731.58 361.833 1727.96 361.215 1723.87 361.215C1719.68 361.215 1716.02 361.833 1712.88 363.07C1709.74 364.307 1707.12 366.115 1705.03 368.494C1702.94 370.873 1701.37 373.775 1700.32 377.2C1699.27 380.626 1698.75 384.527 1698.75 388.904V395.184C1698.75 399.466 1699.27 403.32 1700.32 406.745C1701.37 410.171 1702.94 413.073 1705.03 415.452C1707.12 417.83 1709.74 419.638 1712.88 420.875C1716.02 422.112 1719.68 422.731 1723.87 422.731ZM1836.99 442.713C1821.2 442.713 1809.16 438.526 1800.88 430.153C1792.7 421.779 1788.61 409.029 1788.61 391.901C1788.61 380.578 1790.61 371.206 1794.6 363.784C1798.69 356.267 1804.59 350.653 1812.3 346.942C1820.1 343.136 1829.48 341.233 1840.42 341.233C1846.98 341.233 1853.17 341.994 1858.97 343.516C1864.78 345.039 1869.92 347.322 1874.39 350.367C1878.86 353.317 1882.33 357.075 1884.81 361.643C1887.28 366.115 1888.52 371.396 1888.52 377.486H1863.4C1863.4 374.917 1862.83 372.633 1861.69 370.635C1860.54 368.541 1858.93 366.829 1856.83 365.496C1854.83 364.069 1852.5 363.023 1849.84 362.356C1847.17 361.595 1844.37 361.215 1841.42 361.215C1837.04 361.215 1833.14 361.786 1829.71 362.927C1826.38 364.069 1823.62 365.83 1821.44 368.208C1819.25 370.587 1817.58 373.489 1816.44 376.915C1815.39 380.34 1814.87 384.337 1814.87 388.904V395.184C1814.87 401.274 1815.82 406.364 1817.73 410.456C1819.63 414.548 1822.48 417.64 1826.29 419.733C1830.19 421.732 1834.95 422.731 1840.56 422.731C1844.94 422.731 1848.84 422.065 1852.27 420.733C1855.79 419.4 1858.55 417.497 1860.54 415.023C1862.64 412.454 1863.68 409.409 1863.68 405.889V405.175H1837.28V387.191H1888.52V441H1873.67L1871.25 430.724C1868.3 433.388 1865.11 435.624 1861.69 437.432C1858.36 439.24 1854.64 440.572 1850.55 441.428C1846.56 442.285 1842.04 442.713 1836.99 442.713Z"/>
</mask>
<path d="M1485.81 441H1484.81V442H1485.81V441ZM1485.81 342.945V341.945H1484.81V342.945H1485.81ZM1559.46 345.943L1559.02 346.841V346.841L1559.46 345.943ZM1569.17 354.364L1568.33 354.913L1568.34 354.921L1568.34 354.928L1569.17 354.364ZM1570.6 378.057L1569.7 377.609L1569.7 377.621L1569.69 377.632L1570.6 378.057ZM1564.74 385.479L1564.13 384.686L1564.13 384.692L1564.12 384.698L1564.74 385.479ZM1556.61 389.76L1556.31 388.806L1555.61 389.025V389.76H1556.61ZM1556.61 390.331H1555.61V391.138L1556.4 391.309L1556.61 390.331ZM1566.17 394.47L1565.6 395.29L1565.61 395.296L1565.62 395.302L1566.17 394.47ZM1572.88 402.321L1571.98 402.757L1571.98 402.768L1571.99 402.778L1572.88 402.321ZM1571.45 428.868L1572.28 429.432L1572.28 429.423L1571.45 428.868ZM1511.36 421.303H1510.36V422.303H1511.36V421.303ZM1546.47 418.592L1545.79 417.867L1545.78 417.875L1545.77 417.884L1546.47 418.592ZM1548.04 405.032L1547.14 405.458L1547.16 405.491L1547.17 405.523L1548.04 405.032ZM1544.48 401.321L1543.99 402.193L1544 402.199L1544.01 402.205L1544.48 401.321ZM1511.36 400.037V399.037H1510.36V400.037H1511.36ZM1511.36 381.91H1510.36V382.91H1511.36V381.91ZM1542.19 380.626L1541.7 379.754L1541.69 379.761L1541.68 379.768L1542.19 380.626ZM1545.62 377.058L1544.75 376.567L1544.73 376.588L1544.72 376.61L1545.62 377.058ZM1511.36 361.928V360.928H1510.36V361.928H1511.36ZM1486.81 441V342.945H1484.81V441H1486.81ZM1485.81 343.945H1545.76V341.945H1485.81V343.945ZM1545.76 343.945C1550.67 343.945 1555.08 344.917 1559.02 346.841L1559.9 345.044C1555.66 342.972 1550.94 341.945 1545.76 341.945V343.945ZM1559.02 346.841C1562.96 348.765 1566.06 351.455 1568.33 354.913L1570 353.814C1567.52 350.041 1564.15 347.117 1559.9 345.044L1559.02 346.841ZM1568.34 354.928C1570.69 358.36 1571.88 362.393 1571.88 367.067H1573.88C1573.88 362.035 1572.59 357.599 1569.99 353.799L1568.34 354.928ZM1571.88 367.067C1571.88 371.232 1571.14 374.735 1569.7 377.609L1571.49 378.504C1573.1 375.289 1573.88 371.465 1573.88 367.067H1571.88ZM1569.69 377.632C1568.33 380.544 1566.47 382.888 1564.13 384.686L1565.35 386.271C1567.96 384.263 1570.01 381.659 1571.5 378.481L1569.69 377.632ZM1564.12 384.698C1561.84 386.519 1559.24 387.89 1556.31 388.806L1556.91 390.715C1560.06 389.728 1562.89 388.244 1565.37 386.259L1564.12 384.698ZM1555.61 389.76V390.331H1557.61V389.76H1555.61ZM1556.4 391.309C1559.79 392.043 1562.86 393.37 1565.6 395.29L1566.74 393.651C1563.78 391.574 1560.47 390.142 1556.82 389.354L1556.4 391.309ZM1565.62 395.302C1568.31 397.099 1570.43 399.574 1571.98 402.757L1573.78 401.884C1572.09 398.406 1569.74 395.648 1566.73 393.638L1565.62 395.302ZM1571.99 402.778C1573.61 405.934 1574.45 409.812 1574.45 414.452H1576.45C1576.45 409.578 1575.57 405.368 1573.77 401.863L1571.99 402.778ZM1574.45 414.452C1574.45 419.903 1573.16 424.507 1570.62 428.313L1572.28 429.423C1575.08 425.236 1576.45 420.23 1576.45 414.452H1574.45ZM1570.63 428.304C1568.06 432.056 1564.68 434.938 1560.46 436.958L1561.32 438.762C1565.85 436.595 1569.51 433.483 1572.28 429.432L1570.63 428.304ZM1560.46 436.958C1556.23 438.98 1551.48 440 1546.19 440V442C1551.74 442 1556.79 440.927 1561.32 438.762L1560.46 436.958ZM1546.19 440H1485.81V442H1546.19V440ZM1511.36 422.303H1539.2V420.303H1511.36V422.303ZM1539.2 422.303C1542.45 422.303 1545.15 421.329 1547.18 419.299L1545.77 417.884C1544.18 419.47 1542.03 420.303 1539.2 420.303V422.303ZM1547.16 419.317C1549.34 417.253 1550.33 414.183 1550.33 410.313H1548.33C1548.33 413.866 1547.42 416.315 1545.79 417.867L1547.16 419.317ZM1550.33 410.313C1550.33 408.168 1549.87 406.235 1548.92 404.542L1547.17 405.523C1547.93 406.875 1548.33 408.462 1548.33 410.313H1550.33ZM1548.95 404.607C1548.09 402.788 1546.75 401.393 1544.94 400.438L1544.01 402.205C1545.44 402.963 1546.47 404.041 1547.14 405.458L1548.95 404.607ZM1544.97 400.45C1543.26 399.487 1541.17 399.037 1538.77 399.037V401.037C1540.93 401.037 1542.65 401.443 1543.99 402.193L1544.97 400.45ZM1538.77 399.037H1511.36V401.037H1538.77V399.037ZM1510.36 400.037V421.303H1512.36V400.037H1510.36ZM1511.36 382.91H1536.91V380.91H1511.36V382.91ZM1536.91 382.91C1539.14 382.91 1541.09 382.454 1542.71 381.483L1541.68 379.768C1540.44 380.51 1538.87 380.91 1536.91 380.91V382.91ZM1542.68 381.497C1544.37 380.546 1545.66 379.211 1546.51 377.505L1544.72 376.61C1544.05 377.949 1543.06 378.993 1541.7 379.754L1542.68 381.497ZM1546.49 377.548C1547.45 375.849 1547.9 373.865 1547.9 371.634H1545.9C1545.9 373.589 1545.5 375.222 1544.75 376.567L1546.49 377.548ZM1547.9 371.634C1547.9 368.38 1546.93 365.714 1544.88 363.771L1543.5 365.223C1545.07 366.706 1545.9 368.798 1545.9 371.634H1547.9ZM1544.88 363.771C1542.86 361.863 1540.33 360.928 1537.34 360.928V362.928C1539.87 362.928 1541.9 363.706 1543.5 365.223L1544.88 363.771ZM1537.34 360.928H1511.36V362.928H1537.34V360.928ZM1510.36 361.928V381.91H1512.36V361.928H1510.36ZM1592.16 441H1591.16V442H1592.16V441ZM1592.16 342.945V341.945H1591.16V342.945H1592.16ZM1617.71 342.945H1618.71V341.945H1617.71V342.945ZM1617.71 420.019H1616.71V421.019H1617.71V420.019ZM1667.53 420.019H1668.53V419.019H1667.53V420.019ZM1667.53 441V442H1668.53V441H1667.53ZM1593.16 441V342.945H1591.16V441H1593.16ZM1592.16 343.945H1617.71V341.945H1592.16V343.945ZM1616.71 342.945V420.019H1618.71V342.945H1616.71ZM1617.71 421.019H1667.53V419.019H1617.71V421.019ZM1666.53 420.019V441H1668.53V420.019H1666.53ZM1667.53 440H1592.16V442H1667.53V440ZM1696.18 437.146L1695.73 438.041L1695.74 438.044L1695.75 438.047L1696.18 437.146ZM1678.63 420.162L1679.5 419.684L1678.63 420.162ZM1678.63 363.784L1679.5 364.267L1679.5 364.262L1678.63 363.784ZM1696.18 346.942L1696.62 347.841L1696.62 347.838L1696.18 346.942ZM1751.42 346.942L1750.97 347.836L1750.98 347.84L1750.98 347.843L1751.42 346.942ZM1769.12 363.784L1768.24 364.262L1768.24 364.267L1769.12 363.784ZM1769.12 420.162L1769.99 420.64L1769.12 420.162ZM1751.42 437.146L1751.86 438.045L1751.86 438.043L1751.42 437.146ZM1734.72 420.875L1735.08 421.806L1734.72 420.875ZM1742.57 415.452L1741.83 414.774L1741.82 414.783L1741.82 414.791L1742.57 415.452ZM1747.42 406.745L1748.38 407.037H1748.38L1747.42 406.745ZM1747.42 377.2L1748.38 376.908L1748.38 376.908L1747.42 377.2ZM1742.57 368.494L1741.82 369.154L1741.82 369.163L1741.83 369.171L1742.57 368.494ZM1734.72 363.07L1734.35 364.001L1734.72 363.07ZM1712.88 363.07L1713.25 364.001V364.001L1712.88 363.07ZM1705.03 368.494L1704.28 367.833L1705.03 368.494ZM1700.32 377.2L1699.36 376.908V376.908L1700.32 377.2ZM1700.32 406.745L1699.36 407.037L1700.32 406.745ZM1705.03 415.452L1704.28 416.112L1705.03 415.452ZM1712.88 420.875L1712.51 421.806L1712.88 420.875ZM1723.87 441.713C1713.23 441.713 1704.16 439.877 1696.62 436.245L1695.75 438.047C1703.62 441.838 1713.01 443.713 1723.87 443.713V441.713ZM1696.63 436.252C1689.2 432.538 1683.5 427.022 1679.5 419.684L1677.75 420.64C1681.94 428.335 1687.94 434.143 1695.73 438.041L1696.63 436.252ZM1679.5 419.684C1675.51 412.353 1673.49 403.109 1673.49 391.901H1671.49C1671.49 403.339 1673.55 412.936 1677.75 420.64L1679.5 419.684ZM1673.49 391.901C1673.49 380.692 1675.51 371.499 1679.5 364.267L1677.75 363.301C1673.55 370.912 1671.49 380.464 1671.49 391.901H1673.49ZM1679.5 364.262C1683.5 356.925 1689.2 351.459 1696.62 347.841L1695.74 346.043C1687.94 349.846 1681.94 355.608 1677.75 363.306L1679.5 364.262ZM1696.62 347.838C1704.16 344.115 1713.23 342.233 1723.87 342.233V340.233C1713 340.233 1703.61 342.156 1695.74 346.045L1696.62 347.838ZM1723.87 342.233C1734.51 342.233 1743.53 344.115 1750.97 347.836L1751.86 346.047C1744.08 342.156 1734.74 340.233 1723.87 340.233V342.233ZM1750.98 347.843C1758.5 351.463 1764.25 356.929 1768.24 364.262L1769.99 363.306C1765.8 355.605 1759.75 349.843 1751.85 346.041L1750.98 347.843ZM1768.24 364.267C1772.23 371.499 1774.25 380.692 1774.25 391.901H1776.25C1776.25 380.464 1774.19 370.912 1769.99 363.301L1768.24 364.267ZM1774.25 391.901C1774.25 403.109 1772.23 412.353 1768.24 419.684L1769.99 420.64C1774.19 412.936 1776.25 403.339 1776.25 391.901H1774.25ZM1768.24 419.684C1764.25 427.019 1758.5 432.534 1750.97 436.25L1751.86 438.043C1759.75 434.146 1765.8 428.339 1769.99 420.64L1768.24 419.684ZM1750.98 436.247C1743.54 439.876 1734.51 441.713 1723.87 441.713V443.713C1734.74 443.713 1744.08 441.838 1751.86 438.045L1750.98 436.247ZM1723.87 423.731C1728.06 423.731 1731.81 423.097 1735.08 421.806L1734.35 419.945C1731.35 421.127 1727.86 421.731 1723.87 421.731V423.731ZM1735.08 421.806C1738.36 420.514 1741.11 418.618 1743.32 416.112L1741.82 414.791C1739.84 417.043 1737.35 418.762 1734.35 419.945L1735.08 421.806ZM1743.3 416.129C1745.6 413.628 1747.29 410.59 1748.38 407.037L1746.46 406.453C1745.46 409.751 1743.91 412.517 1741.83 414.774L1743.3 416.129ZM1748.38 407.037C1749.46 403.501 1749.99 399.546 1749.99 395.184H1747.99C1747.99 399.386 1747.48 403.138 1746.46 406.453L1748.38 407.037ZM1749.99 395.184V388.904H1747.99V395.184H1749.99ZM1749.99 388.904C1749.99 384.449 1749.46 380.447 1748.38 376.908L1746.46 377.492C1747.48 380.805 1747.99 384.605 1747.99 388.904H1749.99ZM1748.38 376.908C1747.29 373.355 1745.6 370.317 1743.3 367.817L1741.83 369.171C1743.91 371.428 1745.46 374.194 1746.46 377.492L1748.38 376.908ZM1743.32 367.833C1741.11 365.327 1738.36 363.431 1735.08 362.14L1734.35 364.001C1737.35 365.183 1739.84 366.902 1741.82 369.154L1743.32 367.833ZM1735.08 362.14C1731.81 360.848 1728.06 360.215 1723.87 360.215V362.215C1727.86 362.215 1731.35 362.818 1734.35 364.001L1735.08 362.14ZM1723.87 360.215C1719.59 360.215 1715.8 360.847 1712.51 362.14L1713.25 364.001C1716.25 362.819 1719.78 362.215 1723.87 362.215V360.215ZM1712.51 362.14C1709.24 363.431 1706.48 365.327 1704.28 367.833L1705.78 369.154C1707.76 366.902 1710.25 365.183 1713.25 364.001L1712.51 362.14ZM1704.28 367.833C1702.08 370.332 1700.45 373.364 1699.36 376.908L1701.28 377.492C1702.29 374.185 1703.79 371.413 1705.78 369.154L1704.28 367.833ZM1699.36 376.908C1698.28 380.447 1697.75 384.449 1697.75 388.904H1699.75C1699.75 384.605 1700.26 380.805 1701.28 377.492L1699.36 376.908ZM1697.75 388.904V395.184H1699.75V388.904H1697.75ZM1697.75 395.184C1697.75 399.546 1698.28 403.501 1699.36 407.037L1701.28 406.453C1700.26 403.138 1699.75 399.386 1699.75 395.184H1697.75ZM1699.36 407.037C1700.45 410.581 1702.08 413.613 1704.28 416.112L1705.78 414.791C1703.79 412.532 1702.29 409.76 1701.28 406.453L1699.36 407.037ZM1704.28 416.112C1706.48 418.618 1709.24 420.514 1712.51 421.806L1713.25 419.945C1710.25 418.762 1707.76 417.043 1705.78 414.791L1704.28 416.112ZM1712.51 421.806C1715.8 423.098 1719.59 423.731 1723.87 423.731V421.731C1719.78 421.731 1716.25 421.126 1713.25 419.945L1712.51 421.806ZM1800.88 430.153L1800.17 430.852L1800.17 430.856L1800.88 430.153ZM1794.6 363.784L1793.72 363.306L1793.72 363.31L1794.6 363.784ZM1812.3 346.942L1812.74 347.843L1812.74 347.841L1812.3 346.942ZM1858.97 343.516L1858.72 344.484L1858.97 343.516ZM1874.39 350.367L1873.83 351.194L1873.83 351.198L1873.84 351.202L1874.39 350.367ZM1884.81 361.643L1883.93 362.119L1883.93 362.127L1884.81 361.643ZM1888.52 377.486V378.486H1889.52V377.486H1888.52ZM1863.4 377.486H1862.4V378.486H1863.4V377.486ZM1861.69 370.635L1860.81 371.114L1860.81 371.122L1860.82 371.131L1861.69 370.635ZM1856.83 365.496L1856.25 366.31L1856.27 366.326L1856.3 366.34L1856.83 365.496ZM1849.84 362.356L1849.56 363.318L1849.58 363.323L1849.6 363.327L1849.84 362.356ZM1829.71 362.927L1829.4 361.979L1829.39 361.981L1829.71 362.927ZM1821.44 368.208L1820.7 367.531L1821.44 368.208ZM1816.44 376.915L1815.49 376.599L1815.49 376.611L1815.48 376.623L1816.44 376.915ZM1817.73 410.456L1818.63 410.034L1817.73 410.456ZM1826.29 419.733L1825.81 420.61L1825.82 420.617L1825.83 420.623L1826.29 419.733ZM1852.27 420.733L1851.91 419.797L1851.9 419.801L1852.27 420.733ZM1860.54 415.023L1859.77 414.392L1859.77 414.395L1860.54 415.023ZM1863.68 405.175H1864.68V404.175H1863.68V405.175ZM1837.28 405.175H1836.28V406.175H1837.28V405.175ZM1837.28 387.191V386.191H1836.28V387.191H1837.28ZM1888.52 387.191H1889.52V386.191H1888.52V387.191ZM1888.52 441V442H1889.52V441H1888.52ZM1873.67 441L1872.7 441.23L1872.88 442H1873.67V441ZM1871.25 430.724L1872.22 430.494L1871.83 428.848L1870.58 429.981L1871.25 430.724ZM1861.69 437.432L1861.22 436.547L1861.21 436.553L1861.69 437.432ZM1850.55 441.428L1850.35 440.449L1850.34 440.45L1850.55 441.428ZM1836.99 441.713C1821.37 441.713 1809.63 437.575 1801.59 429.45L1800.17 430.856C1808.7 439.477 1821.03 443.713 1836.99 443.713V441.713ZM1801.6 429.454C1793.67 421.338 1789.61 408.888 1789.61 391.901H1787.61C1787.61 409.17 1791.73 422.22 1800.17 430.852L1801.6 429.454ZM1789.61 391.901C1789.61 380.689 1791.59 371.493 1795.48 364.258L1793.72 363.31C1789.63 370.919 1787.61 380.467 1787.61 391.901H1789.61ZM1795.48 364.262C1799.47 356.929 1805.22 351.463 1812.74 347.843L1811.87 346.041C1803.97 349.843 1797.92 355.605 1793.72 363.306L1795.48 364.262ZM1812.74 347.841C1820.37 344.116 1829.59 342.233 1840.42 342.233V340.233C1829.36 340.233 1819.83 342.155 1811.86 346.043L1812.74 347.841ZM1840.42 342.233C1846.91 342.233 1853.01 342.985 1858.72 344.484L1859.23 342.549C1853.33 341.003 1847.06 340.233 1840.42 340.233V342.233ZM1858.72 344.484C1864.43 345.98 1869.46 348.22 1873.83 351.194L1874.95 349.541C1870.38 346.425 1865.13 344.097 1859.23 342.549L1858.72 344.484ZM1873.84 351.202C1878.18 354.064 1881.54 357.701 1883.93 362.119L1885.69 361.167C1883.13 356.45 1879.54 352.57 1874.94 349.532L1873.84 351.202ZM1883.93 362.127C1886.31 366.425 1887.52 371.533 1887.52 377.486H1889.52C1889.52 371.259 1888.25 365.805 1885.68 361.159L1883.93 362.127ZM1888.52 376.486H1863.4V378.486H1888.52V376.486ZM1864.4 377.486C1864.4 374.763 1863.79 372.305 1862.55 370.139L1860.82 371.131C1861.86 372.961 1862.4 375.07 1862.4 377.486H1864.4ZM1862.56 370.156C1861.34 367.908 1859.6 366.072 1857.37 364.653L1856.3 366.34C1858.25 367.585 1859.75 369.175 1860.81 371.114L1862.56 370.156ZM1857.41 364.683C1855.3 363.174 1852.85 362.079 1850.08 361.386L1849.6 363.327C1852.15 363.966 1854.37 364.964 1856.25 366.31L1857.41 364.683ZM1850.11 361.395C1847.35 360.607 1844.45 360.215 1841.42 360.215V362.215C1844.28 362.215 1847 362.584 1849.56 363.318L1850.11 361.395ZM1841.42 360.215C1836.96 360.215 1832.94 360.797 1829.4 361.979L1830.03 363.876C1833.34 362.775 1837.13 362.215 1841.42 362.215V360.215ZM1829.39 361.981C1825.92 363.172 1823.01 365.019 1820.7 367.531L1822.17 368.885C1824.24 366.64 1826.85 364.966 1830.04 363.873L1829.39 361.981ZM1820.7 367.531C1818.41 370.026 1816.67 373.055 1815.49 376.599L1817.39 377.231C1818.49 373.924 1820.09 371.149 1822.17 368.885L1820.7 367.531ZM1815.48 376.623C1814.4 380.165 1813.87 384.263 1813.87 388.904H1815.87C1815.87 384.41 1816.39 380.516 1817.4 377.207L1815.48 376.623ZM1813.87 388.904V395.184H1815.87V388.904H1813.87ZM1813.87 395.184C1813.87 401.371 1814.84 406.616 1816.82 410.878L1818.63 410.034C1816.81 406.113 1815.87 401.176 1815.87 395.184H1813.87ZM1816.82 410.878C1818.81 415.154 1821.81 418.41 1825.81 420.61L1826.77 418.857C1823.16 416.87 1820.45 413.941 1818.63 410.034L1816.82 410.878ZM1825.83 420.623C1829.91 422.711 1834.83 423.731 1840.56 423.731V421.731C1835.06 421.731 1830.47 420.752 1826.74 418.843L1825.83 420.623ZM1840.56 423.731C1845.04 423.731 1849.07 423.049 1852.63 421.665L1851.9 419.801C1848.61 421.08 1844.84 421.731 1840.56 421.731V423.731ZM1852.62 421.668C1856.28 420.284 1859.19 418.287 1861.32 415.652L1859.77 414.395C1857.9 416.707 1855.3 418.516 1851.91 419.797L1852.62 421.668ZM1861.32 415.655C1863.57 412.896 1864.68 409.624 1864.68 405.889H1862.68C1862.68 409.195 1861.71 412.013 1859.77 414.392L1861.32 415.655ZM1864.68 405.889V405.175H1862.68V405.889H1864.68ZM1863.68 404.175H1837.28V406.175H1863.68V404.175ZM1838.28 405.175V387.191H1836.28V405.175H1838.28ZM1837.28 388.191H1888.52V386.191H1837.28V388.191ZM1887.52 387.191V441H1889.52V387.191H1887.52ZM1888.52 440H1873.67V442H1888.52V440ZM1874.65 440.77L1872.22 430.494L1870.28 430.953L1872.7 441.23L1874.65 440.77ZM1870.58 429.981C1867.69 432.591 1864.57 434.779 1861.22 436.547L1862.15 438.316C1865.65 436.468 1868.91 434.184 1871.92 431.466L1870.58 429.981ZM1861.21 436.553C1857.97 438.31 1854.35 439.611 1850.35 440.449L1850.76 442.407C1854.93 441.533 1858.74 440.169 1862.16 438.311L1861.21 436.553ZM1850.34 440.45C1846.43 441.289 1841.98 441.713 1836.99 441.713V443.713C1842.09 443.713 1846.68 443.28 1850.76 442.406L1850.34 440.45Z" fill="url(#paint1_linear_103_18673)" mask="url(#path-3-outside-1_103_18673)"/>
</g>
<defs>
<linearGradient id="paint0_linear_103_18673" x1="23.9004" y1="478.048" x2="1076.15" y2="-701.183" gradientUnits="userSpaceOnUse">
<stop stop-color="#0F0D0D"/>
<stop offset="0.8" stop-color="#304646"/>
</linearGradient>
<linearGradient id="paint1_linear_103_18673" x1="1465.55" y1="341" x2="1936.22" y2="399.556" gradientUnits="userSpaceOnUse">
<stop stop-color="#FFC631"/>
<stop offset="1" stop-color="#CA9301"/>
</linearGradient>
</defs>
</svg>
