<svg width="143" height="37" viewBox="0 0 143 37" fill="none" xmlns="http://www.w3.org/2000/svg">
<mask id="path-1-outside-1_270_2116" maskUnits="userSpaceOnUse" x="0" y="-0.375" width="143" height="38" fill="black">
<rect fill="white" y="-0.375" width="143" height="38"/>
<path d="M0.605469 35.625V1.275H21.6055C23.3721 1.275 24.9721 1.625 26.4055 2.325C27.8388 3.025 28.9721 4.00833 29.8055 5.275C30.6721 6.54167 31.1055 8.025 31.1055 9.725C31.1055 11.225 30.8388 12.5083 30.3055 13.575C29.8055 14.6417 29.1221 15.5083 28.2555 16.175C27.4221 16.8417 26.4721 17.3417 25.4055 17.675V17.875C26.6388 18.1417 27.7555 18.625 28.7555 19.325C29.7555 19.9917 30.5388 20.9083 31.1055 22.075C31.7055 23.2417 32.0055 24.6583 32.0055 26.325C32.0055 28.2917 31.5388 29.975 30.6055 31.375C29.6721 32.7417 28.4388 33.7917 26.9055 34.525C25.3721 35.2583 23.6555 35.625 21.7555 35.625H0.605469ZM9.55547 28.725H19.3055C20.3721 28.725 21.2221 28.4083 21.8555 27.775C22.5221 27.1417 22.8555 26.175 22.8555 24.875C22.8555 24.175 22.7055 23.5583 22.4055 23.025C22.1388 22.4583 21.7221 22.025 21.1555 21.725C20.6221 21.425 19.9555 21.275 19.1555 21.275H9.55547V28.725ZM9.55547 14.925H18.5055C19.2388 14.925 19.8555 14.775 20.3555 14.475C20.8888 14.175 21.2888 13.7583 21.5555 13.225C21.8555 12.6917 22.0055 12.0583 22.0055 11.325C22.0055 10.2583 21.6888 9.425 21.0555 8.825C20.4221 8.225 19.6221 7.925 18.6555 7.925H9.55547V14.925ZM37.8613 35.625V1.275H46.8113V28.275H64.2613V35.625H37.8613ZM84 36.225C80.2333 36.225 77 35.575 74.3 34.275C71.6333 32.9417 69.5833 30.9583 68.15 28.325C66.7167 25.6917 66 22.3917 66 18.425C66 14.4583 66.7167 11.175 68.15 8.575C69.5833 5.94167 71.6333 3.975 74.3 2.675C77 1.34166 80.2333 0.674997 84 0.674997C87.7667 0.674997 90.9833 1.34166 93.65 2.675C96.35 3.975 98.4167 5.94167 99.85 8.575C101.283 11.175 102 14.4583 102 18.425C102 22.3917 101.283 25.6917 99.85 28.325C98.4167 30.9583 96.35 32.9417 93.65 34.275C90.9833 35.575 87.7667 36.225 84 36.225ZM84 29.225C85.4333 29.225 86.7 29.0083 87.8 28.575C88.9 28.1417 89.8167 27.5083 90.55 26.675C91.3167 25.8417 91.8833 24.825 92.25 23.625C92.6167 22.425 92.8 21.075 92.8 19.575V17.375C92.8 15.8417 92.6167 14.475 92.25 13.275C91.8833 12.075 91.3167 11.0583 90.55 10.225C89.8167 9.39166 88.9 8.75833 87.8 8.325C86.7 7.89167 85.4333 7.675 84 7.675C82.5333 7.675 81.25 7.89167 80.15 8.325C79.05 8.75833 78.1333 9.39166 77.4 10.225C76.6667 11.0583 76.1167 12.075 75.75 13.275C75.3833 14.475 75.2 15.8417 75.2 17.375V19.575C75.2 21.075 75.3833 22.425 75.75 23.625C76.1167 24.825 76.6667 25.8417 77.4 26.675C78.1333 27.5083 79.05 28.1417 80.15 28.575C81.25 29.0083 82.5333 29.225 84 29.225ZM123.629 36.225C118.095 36.225 113.879 34.7583 110.979 31.825C108.112 28.8917 106.679 24.425 106.679 18.425C106.679 14.4583 107.379 11.175 108.779 8.575C110.212 5.94167 112.279 3.975 114.979 2.675C117.712 1.34166 120.995 0.674997 124.829 0.674997C127.129 0.674997 129.295 0.941664 131.329 1.475C133.362 2.00833 135.162 2.80833 136.729 3.875C138.295 4.90833 139.512 6.225 140.379 7.825C141.245 9.39167 141.679 11.2417 141.679 13.375H132.879C132.879 12.475 132.679 11.675 132.279 10.975C131.879 10.2417 131.312 9.64166 130.579 9.175C129.879 8.675 129.062 8.30833 128.129 8.075C127.195 7.80833 126.212 7.675 125.179 7.675C123.645 7.675 122.279 7.875 121.079 8.275C119.912 8.675 118.945 9.29166 118.179 10.125C117.412 10.9583 116.829 11.975 116.429 13.175C116.062 14.375 115.879 15.775 115.879 17.375V19.575C115.879 21.7083 116.212 23.4917 116.879 24.925C117.545 26.3583 118.545 27.4417 119.879 28.175C121.245 28.875 122.912 29.225 124.879 29.225C126.412 29.225 127.779 28.9917 128.979 28.525C130.212 28.0583 131.179 27.3917 131.879 26.525C132.612 25.625 132.979 24.5583 132.979 23.325V23.075H123.729V16.775H141.679V35.625H136.479L135.629 32.025C134.595 32.9583 133.479 33.7417 132.279 34.375C131.112 35.0083 129.812 35.475 128.379 35.775C126.979 36.075 125.395 36.225 123.629 36.225Z"/>
</mask>
<path d="M0.605469 35.625H0.074389V36.1561H0.605469V35.625ZM0.605469 1.275V0.743918H0.074389V1.275H0.605469ZM26.4055 2.325L26.1724 2.80221L26.4055 2.325ZM29.8055 5.275L29.3617 5.56694L29.3672 5.57489L29.8055 5.275ZM30.3055 13.575L29.8303 13.3374L29.8246 13.3496L30.3055 13.575ZM28.2555 16.175L27.9316 15.754L27.9237 15.7603L28.2555 16.175ZM25.4055 17.675L25.2471 17.1681L24.8744 17.2846V17.675H25.4055ZM25.4055 17.875H24.8744V18.3035L25.2932 18.3941L25.4055 17.875ZM28.7555 19.325L28.4508 19.7602L28.4609 19.7669L28.7555 19.325ZM31.1055 22.075L30.6276 22.3071L30.6332 22.3179L31.1055 22.075ZM30.6055 31.375L31.0441 31.6745L31.0474 31.6696L30.6055 31.375ZM9.55547 28.725H9.02439V29.2561H9.55547V28.725ZM21.8555 27.775L21.4896 27.3898L21.4799 27.3995L21.8555 27.775ZM22.4055 23.025L21.9249 23.2511L21.9331 23.2686L21.9426 23.2854L22.4055 23.025ZM21.1555 21.725L20.895 22.188L20.907 22.1944L21.1555 21.725ZM9.55547 21.275V20.7439H9.02439V21.275H9.55547ZM9.55547 14.925H9.02439V15.4561H9.55547V14.925ZM20.3555 14.475L20.0951 14.0121L20.0886 14.0158L20.0822 14.0196L20.3555 14.475ZM21.5555 13.225L21.0926 12.9646L21.0862 12.9759L21.0805 12.9875L21.5555 13.225ZM9.55547 7.925V7.39392H9.02439V7.925H9.55547ZM1.13655 35.625V1.275H0.074389V35.625H1.13655ZM0.605469 1.80608H21.6055V0.743918H0.605469V1.80608ZM21.6055 1.80608C23.3002 1.80608 24.8192 2.14132 26.1724 2.80221L26.6385 1.84779C25.1251 1.10868 23.4441 0.743918 21.6055 0.743918V1.80608ZM26.1724 2.80221C27.5248 3.4627 28.5836 4.38396 29.3618 5.56689L30.2491 4.98311C29.3607 3.6327 28.1528 2.5873 26.6385 1.84779L26.1724 2.80221ZM29.3672 5.57489C30.167 6.74381 30.5744 8.12002 30.5744 9.725H31.6366C31.6366 7.92998 31.1773 6.33952 30.2438 4.97511L29.3672 5.57489ZM30.5744 9.725C30.5744 11.1633 30.3187 12.3611 29.8305 13.3375L30.7805 13.8125C31.359 12.6556 31.6366 11.2867 31.6366 9.725H30.5744ZM29.8246 13.3496C29.3577 14.3456 28.726 15.143 27.9317 15.7541L28.5793 16.5959C29.5183 15.8736 30.2532 14.9378 30.7863 13.8004L29.8246 13.3496ZM27.9237 15.7603C27.1443 16.3838 26.2537 16.8535 25.2471 17.1681L25.5639 18.1819C26.6905 17.8298 27.6999 17.2995 28.5872 16.5897L27.9237 15.7603ZM24.8744 17.675V17.875H25.9366V17.675H24.8744ZM25.2932 18.3941C26.4599 18.6463 27.5108 19.102 28.4509 19.7601L29.06 18.8899C28.0002 18.148 26.8177 17.637 25.5177 17.3559L25.2932 18.3941ZM28.4609 19.7669C29.3761 20.377 30.099 21.2184 30.6278 22.307L31.5832 21.843C30.9786 20.5983 30.1349 19.6063 29.0501 18.8831L28.4609 19.7669ZM30.6332 22.3179C31.1855 23.3919 31.4744 24.7206 31.4744 26.325H32.5365C32.5365 24.5961 32.2254 23.0915 31.5778 21.8321L30.6332 22.3179ZM31.4744 26.325C31.4744 28.2049 31.0295 29.7816 30.1636 31.0804L31.0474 31.6696C32.0481 30.1684 32.5365 28.3784 32.5365 26.325H31.4744ZM30.1669 31.0755C29.2878 32.3627 28.1276 33.3518 26.6763 34.0459L27.1346 35.0041C28.75 34.2315 30.0565 33.1206 31.044 31.6745L30.1669 31.0755ZM26.6763 34.0459C25.2226 34.7412 23.5856 35.0939 21.7555 35.0939V36.1561C23.7254 36.1561 25.5217 35.7755 27.1346 35.0041L26.6763 34.0459ZM21.7555 35.0939H0.605469V36.1561H21.7555V35.0939ZM9.55547 29.2561H19.3055V28.1939H9.55547V29.2561ZM19.3055 29.2561C20.4841 29.2561 21.4794 28.9022 22.231 28.1505L21.4799 27.3995C20.9649 27.9145 20.2601 28.1939 19.3055 28.1939V29.2561ZM22.2212 28.16C23.031 27.3908 23.3866 26.2592 23.3866 24.875H22.3244C22.3244 26.0908 22.0133 26.8925 21.4897 27.39L22.2212 28.16ZM23.3866 24.875C23.3866 24.0971 23.2192 23.3883 22.8683 22.7646L21.9426 23.2854C22.1918 23.7284 22.3244 24.2529 22.3244 24.875H23.3866ZM22.886 22.7989C22.5691 22.1255 22.0697 21.6081 21.404 21.2556L20.907 22.1944C21.3746 22.4419 21.7085 22.7912 21.9249 23.2511L22.886 22.7989ZM21.4158 21.2621C20.7822 20.9057 20.0194 20.7439 19.1555 20.7439V21.8061C19.8915 21.8061 20.462 21.9443 20.8951 22.1879L21.4158 21.2621ZM19.1555 20.7439H9.55547V21.8061H19.1555V20.7439ZM9.02439 21.275V28.725H10.0865V21.275H9.02439ZM9.55547 15.4561H18.5055V14.3939H9.55547V15.4561ZM18.5055 15.4561C19.3105 15.4561 20.0274 15.2912 20.6287 14.9304L20.0822 14.0196C19.6835 14.2588 19.1671 14.3939 18.5055 14.3939V15.4561ZM20.6158 14.9379C21.239 14.5873 21.7151 14.0933 22.0305 13.4625L21.0805 12.9875C20.8625 13.4233 20.5386 13.7627 20.0951 14.0121L20.6158 14.9379ZM22.0183 13.4854C22.3712 12.8581 22.5366 12.1315 22.5366 11.325H21.4744C21.4744 11.9852 21.3398 12.5252 21.0926 12.9646L22.0183 13.4854ZM22.5366 11.325C22.5366 10.1473 22.1828 9.16143 21.4207 8.43946L20.6902 9.21054C21.1948 9.68856 21.4744 10.3693 21.4744 11.325H22.5366ZM21.4207 8.43946C20.6777 7.73558 19.7421 7.39392 18.6555 7.39392V8.45608C19.5022 8.45608 20.1665 8.71442 20.6902 9.21054L21.4207 8.43946ZM18.6555 7.39392H9.55547V8.45608H18.6555V7.39392ZM9.02439 7.925V14.925H10.0865V7.925H9.02439ZM37.8613 35.625H37.3302V36.1561H37.8613V35.625ZM37.8613 1.275V0.743918H37.3302V1.275H37.8613ZM46.8113 1.275H47.3424V0.743918H46.8113V1.275ZM46.8113 28.275H46.2802V28.8061H46.8113V28.275ZM64.2613 28.275H64.7924V27.7439H64.2613V28.275ZM64.2613 35.625V36.1561H64.7924V35.625H64.2613ZM38.3924 35.625V1.275H37.3302V35.625H38.3924ZM37.8613 1.80608H46.8113V0.743918H37.8613V1.80608ZM46.2802 1.275V28.275H47.3424V1.275H46.2802ZM46.8113 28.8061H64.2613V27.7439H46.8113V28.8061ZM63.7302 28.275V35.625H64.7924V28.275H63.7302ZM64.2613 35.0939H37.8613V36.1561H64.2613V35.0939ZM74.3 34.275L74.0625 34.7501L74.0696 34.7535L74.3 34.275ZM68.15 28.325L68.6165 28.0711L68.15 28.325ZM68.15 8.575L68.6151 8.8314L68.6165 8.82889L68.15 8.575ZM74.3 2.675L74.5327 3.15238L74.5351 3.15118L74.3 2.675ZM93.65 2.675L93.4125 3.15006L93.4196 3.1535L93.65 2.675ZM99.85 8.575L99.3835 8.8289L99.3849 8.83139L99.85 8.575ZM99.85 28.325L100.316 28.5789L99.85 28.325ZM93.65 34.275L93.8827 34.7524L93.8852 34.7512L93.65 34.275ZM87.8 28.575L87.9947 29.0691H87.9947L87.8 28.575ZM90.55 26.675L90.1591 26.3153L90.1513 26.3242L90.55 26.675ZM92.25 23.625L92.7579 23.7802L92.25 23.625ZM92.25 13.275L92.7579 13.1198V13.1198L92.25 13.275ZM90.55 10.225L90.1512 10.5759L90.1592 10.5846L90.55 10.225ZM87.8 8.325L87.6053 8.81912L87.8 8.325ZM80.15 8.325L80.3447 8.81912H80.3447L80.15 8.325ZM77.4 10.225L77.0013 9.87415L77.4 10.225ZM75.75 13.275L75.2421 13.1198V13.1198L75.75 13.275ZM75.75 23.625L75.2421 23.7802L75.75 23.625ZM77.4 26.675L77.0013 27.0258L77.4 26.675ZM80.15 28.575L79.9553 29.0691L80.15 28.575ZM84 35.6939C80.2932 35.6939 77.1425 35.0542 74.5304 33.7965L74.0696 34.7535C76.8575 36.0958 80.1735 36.7561 84 36.7561V35.6939ZM74.5375 33.8C71.9686 32.5155 69.9982 30.6096 68.6165 28.0711L67.6835 28.5789C69.1685 31.307 71.2981 33.3678 74.0625 34.75L74.5375 33.8ZM68.6165 28.0711C67.237 25.5368 66.5311 22.3306 66.5311 18.425H65.4689C65.4689 22.4527 66.1963 25.8465 67.6835 28.5789L68.6165 28.0711ZM66.5311 18.425C66.5311 14.519 67.2372 11.3309 68.6151 8.83139L67.6849 8.3186C66.1962 11.0191 65.4689 14.3977 65.4689 18.425H66.5311ZM68.6165 8.82889C69.9976 6.29144 71.9664 4.40344 74.5327 3.15237L74.0673 2.19762C71.3002 3.54656 69.1691 5.5919 67.6835 8.3211L68.6165 8.82889ZM74.5351 3.15118C77.146 1.86187 80.2949 1.20608 84 1.20608V0.143917C80.1717 0.143917 76.854 0.821461 74.0648 2.19882L74.5351 3.15118ZM84 1.20608C87.7054 1.20608 90.8364 1.86196 93.4125 3.15001L93.8875 2.19999C91.1303 0.821365 87.828 0.143917 84 0.143917V1.20608ZM93.4196 3.1535C96.0193 4.40519 98.0034 6.29327 99.3835 8.8289L100.316 8.3211C98.8299 5.59007 96.6807 3.5448 93.8804 2.19649L93.4196 3.1535ZM99.3849 8.83139C100.763 11.3309 101.469 14.519 101.469 18.425H102.531C102.531 14.3977 101.804 11.0191 100.315 8.31861L99.3849 8.83139ZM101.469 18.425C101.469 22.3306 100.763 25.5368 99.3835 28.0711L100.316 28.5789C101.804 25.8465 102.531 22.4527 102.531 18.425H101.469ZM99.3835 28.0711C98.0028 30.6078 96.0171 32.5137 93.4148 33.7988L93.8852 34.7512C96.6829 33.3696 98.8305 31.3088 100.316 28.5789L99.3835 28.0711ZM93.4173 33.7976C90.8399 35.0541 87.7071 35.6939 84 35.6939V36.7561C87.8262 36.7561 91.1267 36.0959 93.8827 34.7524L93.4173 33.7976ZM84 29.7561C85.4862 29.7561 86.821 29.5315 87.9947 29.0691L87.6053 28.0809C86.579 28.4852 85.3805 28.6939 84 28.6939V29.7561ZM87.9947 29.0691C89.1678 28.607 90.1561 27.9265 90.9487 27.0258L90.1513 26.3242C89.4773 27.0901 88.6322 27.6764 87.6053 28.0809L87.9947 29.0691ZM90.9408 27.0346C91.7669 26.1367 92.3705 25.0479 92.7579 23.7802L91.7421 23.4698C91.3961 24.6021 90.8664 25.5467 90.1592 26.3154L90.9408 27.0346ZM92.7579 23.7802C93.1426 22.5212 93.3311 21.1176 93.3311 19.575H92.2689C92.2689 21.0323 92.0907 22.3288 91.7421 23.4698L92.7579 23.7802ZM93.3311 19.575V17.375H92.2689V19.575H93.3311ZM93.3311 17.375C93.3311 15.8003 93.1429 14.3798 92.7579 13.1198L91.7421 13.4302C92.0904 14.5702 92.2689 15.883 92.2689 17.375H93.3311ZM92.7579 13.1198C92.3705 11.8521 91.7669 10.7633 90.9408 9.86543L90.1592 10.5846C90.8664 11.3533 91.3961 12.2979 91.7421 13.4302L92.7579 13.1198ZM90.9487 9.87415C90.1561 8.97345 89.1678 8.29304 87.9947 7.83088L87.6053 8.81912C88.6322 9.22363 89.4773 9.80988 90.1513 10.5758L90.9487 9.87415ZM87.9947 7.83088C86.821 7.36854 85.4862 7.14392 84 7.14392V8.20608C85.3805 8.20608 86.579 8.41479 87.6053 8.81912L87.9947 7.83088ZM84 7.14392C82.4822 7.14392 81.1303 7.36803 79.9553 7.83088L80.3447 8.81912C81.3697 8.4153 82.5845 8.20608 84 8.20608V7.14392ZM79.9553 7.83088C78.7822 8.29304 77.7939 8.97345 77.0013 9.87415L77.7987 10.5758C78.4727 9.80988 79.3178 9.22363 80.3447 8.81912L79.9553 7.83088ZM77.0013 9.87415C76.2119 10.7712 75.628 11.857 75.2421 13.1198L76.2579 13.4302C76.6054 12.293 77.1214 11.3455 77.7987 10.5758L77.0013 9.87415ZM75.2421 13.1198C74.8571 14.3798 74.6689 15.8003 74.6689 17.375H75.7311C75.7311 15.883 75.9096 14.5702 76.2579 13.4302L75.2421 13.1198ZM74.6689 17.375V19.575H75.7311V17.375H74.6689ZM74.6689 19.575C74.6689 21.1176 74.8574 22.5212 75.2421 23.7802L76.2579 23.4698C75.9093 22.3288 75.7311 21.0323 75.7311 19.575H74.6689ZM75.2421 23.7802C75.628 25.043 76.2119 26.1288 77.0013 27.0258L77.7987 26.3242C77.1214 25.5545 76.6054 24.607 76.2579 23.4698L75.2421 23.7802ZM77.0013 27.0258C77.7939 27.9265 78.7822 28.607 79.9553 29.0691L80.3447 28.0809C79.3178 27.6764 78.4727 27.0901 77.7987 26.3242L77.0013 27.0258ZM79.9553 29.0691C81.1303 29.532 82.4822 29.7561 84 29.7561V28.6939C82.5845 28.6939 81.3697 28.4847 80.3447 28.0809L79.9553 29.0691ZM110.979 31.825L110.599 32.1962L110.601 32.1984L110.979 31.825ZM108.779 8.575L108.312 8.3211L108.311 8.32322L108.779 8.575ZM114.979 2.675L115.209 3.15351L115.211 3.15232L114.979 2.675ZM131.329 1.475L131.194 1.9887L131.329 1.475ZM136.729 3.875L136.43 4.31404L136.436 4.31833L136.729 3.875ZM140.379 7.825L139.912 8.07795L139.914 8.08207L140.379 7.825ZM141.679 13.375V13.9061H142.21V13.375H141.679ZM132.879 13.375H132.347V13.9061H132.879V13.375ZM132.279 10.975L131.812 11.2294L131.817 11.2385L132.279 10.975ZM130.579 9.175L130.27 9.60715L130.281 9.61542L130.293 9.62305L130.579 9.175ZM128.129 8.075L127.983 8.58565L127.991 8.58808L128 8.59022L128.129 8.075ZM121.079 8.275L120.911 7.77115L120.906 7.77262L121.079 8.275ZM118.179 10.125L117.788 9.76543L118.179 10.125ZM116.429 13.175L115.925 13.007L115.921 13.0198L116.429 13.175ZM116.879 24.925L117.36 24.701L116.879 24.925ZM119.879 28.175L119.623 28.6403L119.629 28.6441L119.636 28.6477L119.879 28.175ZM128.979 28.525L128.791 28.0283L128.786 28.03L128.979 28.525ZM131.879 26.525L131.467 26.1895L131.465 26.1913L131.879 26.525ZM132.979 23.075H133.51V22.5439H132.979V23.075ZM123.729 23.075H123.197V23.6061H123.729V23.075ZM123.729 16.775V16.2439H123.197V16.775H123.729ZM141.679 16.775H142.21V16.2439H141.679V16.775ZM141.679 35.625V36.1561H142.21V35.625H141.679ZM136.479 35.625L135.962 35.747L136.058 36.1561H136.479V35.625ZM135.629 32.025L136.145 31.903L135.939 31.0289L135.273 31.6309L135.629 32.025ZM132.279 34.375L132.031 33.9053L132.025 33.9083L132.279 34.375ZM128.379 35.775L128.27 35.2552L128.267 35.2557L128.379 35.775ZM123.629 35.6939C118.187 35.6939 114.126 34.2533 111.356 31.4516L110.601 32.1984C113.631 35.2634 118.003 36.7561 123.629 36.7561V35.6939ZM111.358 31.4538C108.626 28.6575 107.21 24.3501 107.21 18.425H106.147C106.147 24.4999 107.598 29.1258 110.599 32.1962L111.358 31.4538ZM107.21 18.425C107.21 14.5173 107.9 11.3274 109.246 8.82678L108.311 8.32322C106.857 11.0226 106.147 14.3994 106.147 18.425H107.21ZM109.245 8.82889C110.625 6.29327 112.609 4.40519 115.209 3.1535L114.748 2.19649C111.948 3.5448 109.799 5.59007 108.312 8.3211L109.245 8.82889ZM115.211 3.15232C117.856 1.86234 121.055 1.20608 124.829 1.20608V0.143917C120.935 0.143917 117.568 0.820984 114.746 2.19768L115.211 3.15232ZM124.829 1.20608C127.087 1.20608 129.208 1.46793 131.194 1.9887L131.463 0.961296C129.382 0.415398 127.17 0.143917 124.829 0.143917V1.20608ZM131.194 1.9887C133.175 2.50834 134.918 3.28491 136.43 4.31399L137.027 3.43601C135.406 2.33175 133.549 1.50832 131.463 0.961296L131.194 1.9887ZM136.436 4.31833C137.932 5.3051 139.088 6.55727 139.912 8.07794L140.845 7.57205C139.936 5.89272 138.658 4.51156 137.021 3.43167L136.436 4.31833ZM139.914 8.08207C140.729 9.55625 141.147 11.3144 141.147 13.375H142.21C142.21 11.169 141.761 9.22709 140.843 7.56792L139.914 8.08207ZM141.679 12.8439H132.879V13.9061H141.679V12.8439ZM133.41 13.375C133.41 12.3936 133.191 11.5008 132.74 10.7115L131.817 11.2385C132.166 11.8492 132.347 12.5564 132.347 13.375H133.41ZM132.745 10.7207C132.3 9.90524 131.67 9.23981 130.864 8.72695L130.293 9.62305C130.954 10.0435 131.457 10.5781 131.812 11.2293L132.745 10.7207ZM130.887 8.74284C130.127 8.19979 129.248 7.80736 128.257 7.55978L128 8.59022C128.876 8.8093 129.63 9.1502 130.27 9.60715L130.887 8.74284ZM128.274 7.56435C127.291 7.28328 126.258 7.14392 125.179 7.14392V8.20608C126.166 8.20608 127.1 8.33338 127.983 8.58565L128.274 7.56435ZM125.179 7.14392C123.6 7.14392 122.175 7.34976 120.911 7.77117L121.246 8.77882C122.382 8.40024 123.691 8.20608 125.179 8.20608V7.14392ZM120.906 7.77262C119.664 8.19867 118.619 8.86135 117.788 9.76543L118.569 10.4846C119.271 9.72198 120.16 9.15132 121.251 8.77737L120.906 7.77262ZM117.788 9.76543C116.965 10.6601 116.346 11.7443 115.925 13.0071L116.932 13.3429C117.311 12.2057 117.859 11.2566 118.569 10.4846L117.788 9.76543ZM115.921 13.0198C115.535 14.2817 115.347 15.7361 115.347 17.375H116.41C116.41 15.8139 116.589 14.4683 116.936 13.3302L115.921 13.0198ZM115.347 17.375V19.575H116.41V17.375H115.347ZM115.347 19.575C115.347 21.7601 115.688 23.6255 116.397 25.149L117.36 24.701C116.735 23.3579 116.41 21.6566 116.41 19.575H115.347ZM116.397 25.149C117.109 26.6805 118.186 27.8504 119.623 28.6403L120.134 27.7097C118.904 27.033 117.981 26.0362 117.36 24.701L116.397 25.149ZM119.636 28.6477C121.096 29.3953 122.851 29.7561 124.879 29.7561V28.6939C122.973 28.6939 121.394 28.3547 120.121 27.7023L119.636 28.6477ZM124.879 29.7561C126.465 29.7561 127.899 29.5146 129.171 29.02L128.786 28.03C127.658 28.4688 126.358 28.6939 124.879 28.6939V29.7561ZM129.166 29.0217C130.472 28.5278 131.522 27.8112 132.292 26.8587L131.465 26.1913C130.835 26.9721 129.952 27.5888 128.791 28.0283L129.166 29.0217ZM132.29 26.8605C133.106 25.8595 133.51 24.6724 133.51 23.325H132.447C132.447 24.4443 132.118 25.3905 131.467 26.1895L132.29 26.8605ZM133.51 23.325V23.075H132.447V23.325H133.51ZM132.979 22.5439H123.729V23.6061H132.979V22.5439ZM124.26 23.075V16.775H123.197V23.075H124.26ZM123.729 17.3061H141.679V16.2439H123.729V17.3061ZM141.147 16.775V35.625H142.21V16.775H141.147ZM141.679 35.0939H136.479V36.1561H141.679V35.0939ZM136.995 35.503L136.145 31.903L135.112 32.147L135.962 35.747L136.995 35.503ZM135.273 31.6309C134.271 32.5354 133.191 33.2931 132.031 33.9053L132.526 34.8447C133.766 34.1902 134.919 33.3813 135.984 32.4191L135.273 31.6309ZM132.025 33.9083C130.908 34.5146 129.658 34.9647 128.27 35.2552L128.487 36.2948C129.966 35.9853 131.315 35.5021 132.532 34.8417L132.025 33.9083ZM128.267 35.2557C126.911 35.5463 125.366 35.6939 123.629 35.6939V36.7561C125.424 36.7561 127.046 36.6037 128.49 36.2943L128.267 35.2557Z" fill="url(#paint0_linear_270_2116)" mask="url(#path-1-outside-1_270_2116)"/>
<defs>
<linearGradient id="paint0_linear_270_2116" x1="-10.3966" y1="0.334678" x2="158.569" y2="22.0165" gradientUnits="userSpaceOnUse">
<stop stop-color="#FFC631"/>
<stop offset="1" stop-color="#CA9301"/>
</linearGradient>
</defs>
</svg>
