<svg width="104" height="45" viewBox="0 0 104 45" fill="none" xmlns="http://www.w3.org/2000/svg">
<mask id="path-1-outside-1_270_2313" maskUnits="userSpaceOnUse" x="0" y="0" width="104" height="45" fill="black">
<rect fill="white" width="104" height="45"/>
<path d="M0.533249 37V1.97421H27.4016V9.11193H9.65933V16.6575H25.2603V23.6423H9.65933V37H0.533249ZM26.9906 37L40.1444 1.97421H51.1059L64.2597 37H54.5218L52.4314 30.9329H38.4619L36.3716 37H26.9906ZM40.6542 24.1011H50.1882L47.69 16.7085C47.554 16.3346 47.3841 15.8758 47.1801 15.3319C47.0102 14.7541 46.8232 14.1593 46.6193 13.5475C46.4494 12.9017 46.2794 12.2559 46.1095 11.6101C45.9395 10.9643 45.7696 10.4035 45.5996 9.92767H45.2427C45.1068 10.5735 44.9029 11.3042 44.6309 12.12C44.393 12.9357 44.1381 13.7514 43.8662 14.5672C43.6283 15.3829 43.4073 16.0967 43.2034 16.7085L40.6542 24.1011ZM90.4406 43.6789L84.8324 37.4589C84.6284 37.4928 84.4075 37.5098 84.1696 37.5098C83.9317 37.5438 83.7107 37.5608 83.5068 37.5608C79.87 37.5608 76.743 36.881 74.1258 35.5215C71.5086 34.1619 69.5033 32.1396 68.1097 29.4544C66.7162 26.7353 66.0194 23.4044 66.0194 19.4616C66.0194 15.4169 66.7502 12.069 68.2117 9.41783C69.6732 6.73269 71.7636 4.72733 74.4827 3.40175C77.2358 2.04219 80.5327 1.36241 84.3735 1.36241C88.2143 1.36241 91.4942 2.04219 94.2134 3.40175C96.9665 4.72733 99.0738 6.73269 100.535 9.41783C101.997 12.069 102.728 15.4169 102.728 19.4616C102.728 23.6083 101.946 27.0412 100.382 29.7603C98.8529 32.4455 96.6776 34.4678 93.8565 35.8274L101.759 43.6789H90.4406ZM84.3735 30.4741C85.8351 30.4741 87.1266 30.2532 88.2483 29.8113C89.3699 29.3694 90.3046 28.7236 91.0524 27.8739C91.8341 27.0242 92.4119 25.9875 92.7858 24.7639C93.1597 23.5403 93.3466 22.1637 93.3466 20.6342V18.391C93.3466 16.8275 93.1597 15.4339 92.7858 14.2103C92.4119 12.9867 91.8341 11.95 91.0524 11.1003C90.3046 10.2506 89.3699 9.60477 88.2483 9.16291C87.1266 8.72105 85.8351 8.50012 84.3735 8.50012C82.878 8.50012 81.5694 8.72105 80.4478 9.16291C79.3261 9.60477 78.3914 10.2506 77.6437 11.1003C76.8959 11.95 76.3351 12.9867 75.9612 14.2103C75.5873 15.4339 75.4004 16.8275 75.4004 18.391V20.6342C75.4004 22.1637 75.5873 23.5403 75.9612 24.7639C76.3351 25.9875 76.8959 27.0242 77.6437 27.8739C78.3914 28.7236 79.3261 29.3694 80.4478 29.8113C81.5694 30.2532 82.878 30.4741 84.3735 30.4741Z"/>
</mask>
<path d="M0.533249 37H0.00216675V37.5311H0.533249V37ZM0.533249 1.97421V1.44313H0.00216675V1.97421H0.533249ZM27.4016 1.97421H27.9327V1.44313H27.4016V1.97421ZM27.4016 9.11193V9.64301H27.9327V9.11193H27.4016ZM9.65933 9.11193V8.58085H9.12825V9.11193H9.65933ZM9.65933 16.6575H9.12825V17.1886H9.65933V16.6575ZM25.2603 16.6575H25.7914V16.1264H25.2603V16.6575ZM25.2603 23.6423V24.1734H25.7914V23.6423H25.2603ZM9.65933 23.6423V23.1112H9.12825V23.6423H9.65933ZM9.65933 37V37.5311H10.1904V37H9.65933ZM1.06433 37V1.97421H0.00216675V37H1.06433ZM0.533249 2.50529H27.4016V1.44313H0.533249V2.50529ZM26.8706 1.97421V9.11193H27.9327V1.97421H26.8706ZM27.4016 8.58085H9.65933V9.64301H27.4016V8.58085ZM9.12825 9.11193V16.6575H10.1904V9.11193H9.12825ZM9.65933 17.1886H25.2603V16.1264H9.65933V17.1886ZM24.7292 16.6575V23.6423H25.7914V16.6575H24.7292ZM25.2603 23.1112H9.65933V24.1734H25.2603V23.1112ZM9.12825 23.6423V37H10.1904V23.6423H9.12825ZM9.65933 36.4689H0.533249V37.5311H9.65933V36.4689ZM26.9906 37L26.4934 36.8133L26.2238 37.5311H26.9906V37ZM40.1444 1.97421V1.44313H39.7765L39.6472 1.7875L40.1444 1.97421ZM51.1059 1.97421L51.603 1.7875L51.4737 1.44313H51.1059V1.97421ZM64.2597 37V37.5311H65.0264L64.7568 36.8133L64.2597 37ZM54.5218 37L54.0197 37.173L54.143 37.5311H54.5218V37ZM52.4314 30.9329L52.9336 30.7599L52.8102 30.4019H52.4314V30.9329ZM38.4619 30.9329V30.4019H38.0832L37.9598 30.7599L38.4619 30.9329ZM36.3716 37V37.5311H36.7503L36.8737 37.173L36.3716 37ZM40.6542 24.1011L40.1521 23.928L39.9093 24.6322H40.6542V24.1011ZM50.1882 24.1011V24.6322H50.9282L50.6913 23.9311L50.1882 24.1011ZM47.69 16.7085L48.1932 16.5384L48.1891 16.527L47.69 16.7085ZM47.1801 15.3319L46.6706 15.4818L46.6761 15.5003L46.6829 15.5184L47.1801 15.3319ZM46.6193 13.5475L46.1057 13.6827L46.1101 13.6992L46.1155 13.7155L46.6193 13.5475ZM46.1095 11.6101L45.5959 11.7453L46.1095 11.6101ZM45.5996 9.92767L46.0998 9.74904L45.9739 9.39659H45.5996V9.92767ZM45.2428 9.92767V9.39659H44.8118L44.7231 9.81826L45.2428 9.92767ZM44.6309 12.12L44.1271 11.952L44.1239 11.9616L44.1211 11.9713L44.6309 12.12ZM43.8662 14.5672L43.3624 14.3992L43.3592 14.4088L43.3564 14.4185L43.8662 14.5672ZM43.2034 16.7085L43.7055 16.8816L43.7072 16.8764L43.2034 16.7085ZM27.4878 37.1867L40.6416 2.16092L39.6472 1.7875L26.4934 36.8133L27.4878 37.1867ZM40.1444 2.50529H51.1059V1.44313H40.1444V2.50529ZM50.6087 2.16092L63.7625 37.1867L64.7568 36.8133L51.603 1.7875L50.6087 2.16092ZM64.2597 36.4689H54.5218V37.5311H64.2597V36.4689ZM55.0239 36.827L52.9336 30.7599L51.9293 31.1059L54.0197 37.173L55.0239 36.827ZM52.4314 30.4019H38.4619V31.464H52.4314V30.4019ZM37.9598 30.7599L35.8695 36.827L36.8737 37.173L38.964 31.1059L37.9598 30.7599ZM36.3716 36.4689H26.9906V37.5311H36.3716V36.4689ZM40.6542 24.6322H50.1882V23.57H40.6542V24.6322ZM50.6913 23.9311L48.1931 16.5385L47.1868 16.8785L49.685 24.2712L50.6913 23.9311ZM48.1891 16.527C48.0523 16.1509 47.8817 15.6903 47.6774 15.1455L46.6829 15.5184C46.8864 16.0613 47.0557 16.5183 47.1909 16.89L48.1891 16.527ZM47.6896 15.1821C47.5178 14.5978 47.3289 13.9969 47.1231 13.3796L46.1155 13.7155C46.3176 14.3217 46.5026 14.9104 46.6706 15.4818L47.6896 15.1821ZM47.1329 13.4124C46.963 12.7666 46.793 12.1208 46.6231 11.475L45.5959 11.7453C45.7658 12.3911 45.9358 13.0369 46.1057 13.6827L47.1329 13.4124ZM46.6231 11.475C46.4504 10.8189 46.2761 10.2429 46.0998 9.74904L45.0995 10.1063C45.263 10.5642 45.4286 11.1098 45.5959 11.7453L46.6231 11.475ZM45.5996 9.39659H45.2428V10.4587H45.5996V9.39659ZM44.7231 9.81826C44.5923 10.4394 44.3944 11.1501 44.1271 11.952L45.1348 12.2879C45.4113 11.4584 45.6213 10.7075 45.7624 10.0371L44.7231 9.81826ZM44.1211 11.9713C43.8851 12.7805 43.6322 13.5898 43.3624 14.3992L44.37 14.7351C44.644 13.9131 44.901 13.0909 45.1408 12.2687L44.1211 11.9713ZM43.3564 14.4185C43.1198 15.2297 42.9008 15.9368 42.6996 16.5406L43.7072 16.8764C43.9138 16.2566 44.1368 15.5362 44.376 14.7159L43.3564 14.4185ZM42.7013 16.5354L40.1521 23.928L41.1563 24.2743L43.7055 16.8816L42.7013 16.5354ZM90.4406 43.6789L90.0461 44.0345L90.2043 44.2099H90.4406V43.6789ZM84.8324 37.4589L85.2268 37.1032L85.032 36.8872L84.7451 36.935L84.8324 37.4589ZM84.1696 37.5098V36.9788H84.1318L84.0945 36.9841L84.1696 37.5098ZM74.1258 35.5215L73.881 35.9928L74.1258 35.5215ZM68.1097 29.4544L67.6371 29.6966L67.6383 29.6991L68.1097 29.4544ZM68.2117 9.41783L68.6768 9.67423L68.6782 9.67173L68.2117 9.41783ZM74.4827 3.40176L74.7154 3.87914L74.7178 3.87794L74.4827 3.40176ZM94.2134 3.40176L93.9758 3.87682L93.983 3.88026L94.2134 3.40176ZM100.535 9.41783L100.069 9.67173L100.07 9.67422L100.535 9.41783ZM100.382 29.7603L99.922 29.4956L99.9209 29.4975L100.382 29.7603ZM93.8565 35.8274L93.6259 35.349L92.9495 35.6749L93.4822 36.2041L93.8565 35.8274ZM101.759 43.6789V44.2099H103.047L102.133 43.3021L101.759 43.6789ZM88.2483 29.8113L88.4429 30.3054L88.2483 29.8113ZM91.0524 27.8739L90.6614 27.5143L90.6537 27.5231L91.0524 27.8739ZM92.7858 24.7639L93.2937 24.9191L92.7858 24.7639ZM92.7858 14.2103L93.2937 14.0551L92.7858 14.2103ZM91.0524 11.1003L90.6536 11.4512L90.6615 11.4599L91.0524 11.1003ZM88.2483 9.16291L88.0536 9.65703L88.2483 9.16291ZM80.4478 9.16291L80.6424 9.65703L80.4478 9.16291ZM77.6437 11.1003L77.245 10.7494L77.6437 11.1003ZM75.9612 14.2103L75.4533 14.0551L75.9612 14.2103ZM75.9612 24.7639L75.4533 24.9191L75.9612 24.7639ZM77.6437 27.8739L77.245 28.2248V28.2248L77.6437 27.8739ZM80.4478 29.8113L80.2531 30.3054L80.4478 29.8113ZM90.835 43.3232L85.2268 37.1032L84.438 37.8145L90.0461 44.0345L90.835 43.3232ZM84.7451 36.935C84.5739 36.9635 84.3825 36.9788 84.1696 36.9788V38.0409C84.4325 38.0409 84.683 38.0222 84.9197 37.9827L84.7451 36.935ZM84.0945 36.9841C83.8772 37.0151 83.6816 37.0297 83.5068 37.0297V38.0919C83.7398 38.0919 83.9861 38.0725 84.2447 38.0356L84.0945 36.9841ZM83.5068 37.0297C79.9356 37.0297 76.8965 36.3624 74.3706 35.0502L73.881 35.9928C76.5894 37.3997 79.8043 38.0919 83.5068 38.0919V37.0297ZM74.3706 35.0502C71.8531 33.7424 69.9257 31.8005 68.5811 29.2098L67.6383 29.6991C69.0809 32.4786 71.1641 34.5814 73.881 35.9928L74.3706 35.0502ZM68.5823 29.2122C67.2367 26.5866 66.5505 23.3438 66.5505 19.4616H65.4883C65.4883 23.4649 66.1956 26.884 67.6371 29.6966L68.5823 29.2122ZM66.5505 19.4616C66.5505 15.4776 67.2707 12.2249 68.6768 9.67422L67.7466 9.16144C66.2296 11.9131 65.4883 15.3562 65.4883 19.4616H66.5505ZM68.6782 9.67173C70.0875 7.08246 72.0966 5.15577 74.7154 3.87913L74.25 2.92438C71.4305 4.29889 69.2589 6.38292 67.7452 9.16393L68.6782 9.67173ZM74.7178 3.87794C77.3818 2.56239 80.5943 1.89349 84.3735 1.89349V0.831326C80.4712 0.831326 77.0898 1.52199 74.2475 2.92557L74.7178 3.87794ZM84.3735 1.89349C88.153 1.89349 91.3473 2.56249 93.9759 3.87677L94.4509 2.92674C91.6412 1.52189 88.2756 0.831326 84.3735 0.831326V1.89349ZM93.983 3.88026C96.6358 5.15753 98.6605 7.08429 100.069 9.67173L101.002 9.16393C99.4871 6.38109 97.2972 4.29714 94.4438 2.92325L93.983 3.88026ZM100.07 9.67422C101.476 12.2249 102.197 15.4776 102.197 19.4616H103.259C103.259 15.3562 102.517 11.9131 101 9.16144L100.07 9.67422ZM102.197 19.4616C102.197 23.5444 101.427 26.8789 99.922 29.4956L100.843 30.025C102.465 27.2035 103.259 23.6722 103.259 19.4616H102.197ZM99.9209 29.4975C98.4455 32.0877 96.3513 34.0355 93.6259 35.349L94.087 36.3058C97.0038 34.9001 99.2603 32.8033 100.844 30.0232L99.9209 29.4975ZM93.4822 36.2041L101.385 44.0556L102.133 43.3021L94.2308 35.4506L93.4822 36.2041ZM101.759 43.1478H90.4406V44.2099H101.759V43.1478ZM84.3735 31.0052C85.8879 31.0052 87.2477 30.7763 88.4429 30.3054L88.0536 29.3172C87.0056 29.73 85.7822 29.943 84.3735 29.943V31.0052ZM88.4429 30.3054C89.6378 29.8347 90.644 29.1419 91.4511 28.2248L90.6537 27.5231C89.9652 28.3054 89.1021 28.9041 88.0536 29.3172L88.4429 30.3054ZM91.4432 28.2335C92.2844 27.3192 92.8991 26.2104 93.2937 24.9191L92.2779 24.6087C91.9247 25.7646 91.3839 26.7292 90.6615 27.5144L91.4432 28.2335ZM93.2937 24.9191C93.6856 23.6365 93.8777 22.2064 93.8777 20.6342H92.8156C92.8156 22.1211 92.6338 23.4441 92.2779 24.6087L93.2937 24.9191ZM93.8777 20.6342V18.391H92.8156V20.6342H93.8777ZM93.8777 18.391C93.8777 16.7861 93.6859 15.3387 93.2937 14.0551L92.2779 14.3655C92.6335 15.5291 92.8156 16.8688 92.8156 18.391H93.8777ZM93.2937 14.0551C92.8991 12.7638 92.2844 11.655 91.4432 10.7407L90.6615 11.4599C91.3839 12.245 91.9247 13.2096 92.2779 14.3655L93.2937 14.0551ZM91.4511 10.7494C90.644 9.83235 89.6378 9.13948 88.4429 8.66879L88.0536 9.65703C89.1021 10.0701 89.9652 10.6688 90.6537 11.4511L91.4511 10.7494ZM88.4429 8.66879C87.2477 8.19793 85.8879 7.96904 84.3735 7.96904V9.0312C85.7822 9.0312 87.0056 9.24418 88.0536 9.65703L88.4429 8.66879ZM84.3735 7.96904C82.8268 7.96904 81.4497 8.19742 80.2531 8.66879L80.6424 9.65703C81.6891 9.24469 82.9291 9.0312 84.3735 9.0312V7.96904ZM80.2531 8.66879C79.0583 9.13948 78.052 9.83235 77.245 10.7494L78.0424 11.4511C78.7308 10.6688 79.594 10.0701 80.6424 9.65703L80.2531 8.66879ZM77.245 10.7494C76.4412 11.6628 75.8464 12.7687 75.4533 14.0551L76.4691 14.3655C76.8238 13.2047 77.3506 12.2372 78.0424 11.4511L77.245 10.7494ZM75.4533 14.0551C75.0611 15.3387 74.8693 16.7861 74.8693 18.391H75.9315C75.9315 16.8688 76.1136 15.5291 76.4691 14.3655L75.4533 14.0551ZM74.8693 18.391V20.6342H75.9315V18.391H74.8693ZM74.8693 20.6342C74.8693 22.2064 75.0614 23.6365 75.4533 24.9191L76.4691 24.6087C76.1133 23.4441 75.9315 22.1211 75.9315 20.6342H74.8693ZM75.4533 24.9191C75.8464 26.2055 76.4412 27.3114 77.245 28.2248L78.0424 27.5231C77.3506 26.737 76.8238 25.7695 76.4691 24.6087L75.4533 24.9191ZM77.245 28.2248C78.052 29.1419 79.0583 29.8347 80.2531 30.3054L80.6424 29.3172C79.594 28.9041 78.7308 28.3054 78.0424 27.5231L77.245 28.2248ZM80.2531 30.3054C81.4497 30.7768 82.8268 31.0052 84.3735 31.0052V29.943C82.9291 29.943 81.6891 29.7295 80.6424 29.3172L80.2531 30.3054Z" fill="url(#paint0_linear_270_2313)" mask="url(#path-1-outside-1_270_2313)"/>
<defs>
<linearGradient id="paint0_linear_270_2313" x1="-196.592" y1="0.870968" x2="117.93" y2="77.7765" gradientUnits="userSpaceOnUse">
<stop stop-color="#FFC631"/>
<stop offset="1" stop-color="#CA9301"/>
</linearGradient>
</defs>
</svg>
