<svg width="1920" height="486" viewBox="0 0 1920 486" fill="none" xmlns="http://www.w3.org/2000/svg">
<rect width="1920" height="486" fill="url(#paint0_linear_103_18765)"/>
<mask id="mask0_103_18765" style="mask-type:luminance" maskUnits="userSpaceOnUse" x="0" y="0" width="1920" height="486">
<rect width="1920" height="486" fill="white"/>
</mask>
<g mask="url(#mask0_103_18765)">
<mask id="path-3-outside-1_103_18765" maskUnits="userSpaceOnUse" x="1604" y="340" width="289" height="121" fill="black">
<rect fill="white" x="1604" y="340" width="289" height="121"/>
<path d="M1605.55 441V342.945H1680.76V362.927H1631.09V384.051H1674.77V403.605H1631.09V441H1605.55ZM1679.61 441L1716.44 342.945H1747.12L1783.95 441H1756.69L1750.83 424.015H1711.73L1705.87 441H1679.61ZM1717.86 404.89H1744.55L1737.56 384.194C1737.18 383.147 1736.7 381.863 1736.13 380.34C1735.66 378.723 1735.13 377.058 1734.56 375.345C1734.09 373.537 1733.61 371.729 1733.14 369.921C1732.66 368.113 1732.18 366.543 1731.71 365.211H1730.71C1730.33 367.019 1729.76 369.065 1729 371.348C1728.33 373.632 1727.62 375.916 1726.86 378.199C1726.19 380.483 1725.57 382.481 1725 384.194L1717.86 404.89ZM1857.24 459.697L1841.54 442.285C1840.97 442.38 1840.35 442.427 1839.69 442.427C1839.02 442.522 1838.4 442.57 1837.83 442.57C1827.65 442.57 1818.89 440.667 1811.57 436.861C1804.24 433.055 1798.63 427.393 1794.73 419.876C1790.82 412.264 1788.87 402.939 1788.87 391.901C1788.87 380.578 1790.92 371.206 1795.01 363.784C1799.1 356.267 1804.95 350.653 1812.57 346.942C1820.27 343.136 1829.5 341.233 1840.26 341.233C1851.01 341.233 1860.19 343.136 1867.8 346.942C1875.51 350.653 1881.41 356.267 1885.5 363.784C1889.59 371.206 1891.64 380.578 1891.64 391.901C1891.64 403.51 1889.45 413.12 1885.07 420.733C1880.79 428.25 1874.7 433.911 1866.8 437.717L1888.93 459.697H1857.24ZM1840.26 422.731C1844.35 422.731 1847.96 422.112 1851.1 420.875C1854.24 419.638 1856.86 417.83 1858.95 415.452C1861.14 413.073 1862.76 410.171 1863.81 406.745C1864.85 403.32 1865.38 399.466 1865.38 395.184V388.904C1865.38 384.527 1864.85 380.626 1863.81 377.2C1862.76 373.775 1861.14 370.873 1858.95 368.494C1856.86 366.115 1854.24 364.307 1851.1 363.07C1847.96 361.833 1844.35 361.215 1840.26 361.215C1836.07 361.215 1832.41 361.833 1829.27 363.07C1826.13 364.307 1823.51 366.115 1821.42 368.494C1819.32 370.873 1817.75 373.775 1816.71 377.2C1815.66 380.626 1815.14 384.527 1815.14 388.904V395.184C1815.14 399.466 1815.66 403.32 1816.71 406.745C1817.75 410.171 1819.32 413.073 1821.42 415.452C1823.51 417.83 1826.13 419.638 1829.27 420.875C1832.41 422.112 1836.07 422.731 1840.26 422.731Z"/>
</mask>
<path d="M1605.55 441H1604.55V442H1605.55V441ZM1605.55 342.945V341.945H1604.55V342.945H1605.55ZM1680.76 342.945H1681.76V341.945H1680.76V342.945ZM1680.76 362.927V363.927H1681.76V362.927H1680.76ZM1631.09 362.927V361.927H1630.09V362.927H1631.09ZM1631.09 384.051H1630.09V385.051H1631.09V384.051ZM1674.77 384.051H1675.77V383.051H1674.77V384.051ZM1674.77 403.605V404.605H1675.77V403.605H1674.77ZM1631.09 403.605V402.605H1630.09V403.605H1631.09ZM1631.09 441V442H1632.09V441H1631.09ZM1606.55 441V342.945H1604.55V441H1606.55ZM1605.55 343.945H1680.76V341.945H1605.55V343.945ZM1679.76 342.945V362.927H1681.76V342.945H1679.76ZM1680.76 361.927H1631.09V363.927H1680.76V361.927ZM1630.09 362.927V384.051H1632.09V362.927H1630.09ZM1631.09 385.051H1674.77V383.051H1631.09V385.051ZM1673.77 384.051V403.605H1675.77V384.051H1673.77ZM1674.77 402.605H1631.09V404.605H1674.77V402.605ZM1630.09 403.605V441H1632.09V403.605H1630.09ZM1631.09 440H1605.55V442H1631.09V440ZM1679.61 441L1678.68 440.648L1678.17 442H1679.61V441ZM1716.44 342.945V341.945H1715.74L1715.5 342.594L1716.44 342.945ZM1747.12 342.945L1748.06 342.594L1747.82 341.945H1747.12V342.945ZM1783.95 441V442H1785.39L1784.88 440.648L1783.95 441ZM1756.69 441L1755.74 441.326L1755.97 442H1756.69V441ZM1750.83 424.015L1751.78 423.69L1751.55 423.015H1750.83V424.015ZM1711.73 424.015V423.015H1711.01L1710.78 423.69L1711.73 424.015ZM1705.87 441V442H1706.59L1706.82 441.326L1705.87 441ZM1717.86 404.89L1716.92 404.564L1716.46 405.89H1717.86V404.89ZM1744.55 404.89V405.89H1745.95L1745.5 404.569L1744.55 404.89ZM1737.56 384.194L1738.51 383.874L1738.5 383.863L1738.5 383.852L1737.56 384.194ZM1736.13 380.34L1735.17 380.622L1735.18 380.657L1735.2 380.691L1736.13 380.34ZM1734.56 375.345L1733.6 375.599L1733.6 375.63L1733.61 375.661L1734.56 375.345ZM1733.14 369.921L1732.17 370.176L1733.14 369.921ZM1731.71 365.211L1732.65 364.875L1732.41 364.211H1731.71V365.211ZM1730.71 365.211V364.211H1729.9L1729.73 365.005L1730.71 365.211ZM1729 371.348L1728.05 371.032L1728.04 371.05L1728.04 371.068L1729 371.348ZM1726.86 378.199L1725.91 377.883L1725.9 377.901L1725.9 377.919L1726.86 378.199ZM1725 384.194L1725.95 384.52L1725.95 384.51L1725 384.194ZM1680.55 441.352L1717.37 343.297L1715.5 342.594L1678.68 440.648L1680.55 441.352ZM1716.44 343.945H1747.12V341.945H1716.44V343.945ZM1746.19 343.297L1783.01 441.352L1784.88 440.648L1748.06 342.594L1746.19 343.297ZM1783.95 440H1756.69V442H1783.95V440ZM1757.63 440.674L1751.78 423.69L1749.89 424.341L1755.74 441.326L1757.63 440.674ZM1750.83 423.015H1711.73V425.015H1750.83V423.015ZM1710.78 423.69L1704.93 440.674L1706.82 441.326L1712.67 424.341L1710.78 423.69ZM1705.87 440H1679.61V442H1705.87V440ZM1717.86 405.89H1744.55V403.89H1717.86V405.89ZM1745.5 404.569L1738.51 383.874L1736.61 384.514L1743.61 405.21L1745.5 404.569ZM1738.5 383.852C1738.12 382.801 1737.64 381.513 1737.07 379.989L1735.2 380.691C1735.77 382.212 1736.24 383.493 1736.62 384.536L1738.5 383.852ZM1737.09 380.058C1736.61 378.428 1736.09 376.752 1735.51 375.029L1733.61 375.661C1734.18 377.363 1734.7 379.017 1735.17 380.622L1737.09 380.058ZM1735.53 375.09C1735.05 373.282 1734.58 371.474 1734.1 369.667L1732.17 370.176C1732.64 371.983 1733.12 373.791 1733.6 375.599L1735.53 375.09ZM1734.1 369.667C1733.62 367.839 1733.14 366.241 1732.65 364.875L1730.77 365.547C1731.23 366.846 1731.7 368.387 1732.17 370.176L1734.1 369.667ZM1731.71 364.211H1730.71V366.211H1731.71V364.211ZM1729.73 365.005C1729.36 366.766 1728.8 368.774 1728.05 371.032L1729.95 371.665C1730.72 369.355 1731.3 367.271 1731.69 365.417L1729.73 365.005ZM1728.04 371.068C1727.37 373.34 1726.66 375.611 1725.91 377.883L1727.8 378.516C1728.57 376.22 1729.29 373.924 1729.96 371.628L1728.04 371.068ZM1725.9 377.919C1725.23 380.194 1724.62 382.18 1724.05 383.878L1725.95 384.51C1726.53 382.782 1727.15 380.772 1727.82 378.479L1725.9 377.919ZM1724.06 383.868L1716.92 404.564L1718.81 405.216L1725.95 384.52L1724.06 383.868ZM1857.24 459.697L1856.5 460.367L1856.8 460.697H1857.24V459.697ZM1841.54 442.285L1842.28 441.615L1841.92 441.208L1841.38 441.298L1841.54 442.285ZM1839.69 442.427V441.427H1839.61L1839.54 441.437L1839.69 442.427ZM1811.57 436.861L1811.11 437.748L1811.57 436.861ZM1794.73 419.876L1793.84 420.332L1793.84 420.337L1794.73 419.876ZM1795.01 363.784L1795.89 364.267L1795.89 364.262L1795.01 363.784ZM1812.57 346.942L1813.01 347.841L1813.01 347.838L1812.57 346.942ZM1867.8 346.942L1867.36 347.836L1867.36 347.84L1867.37 347.843L1867.8 346.942ZM1885.5 363.784L1884.62 364.262L1884.63 364.267L1885.5 363.784ZM1885.07 420.733L1884.21 420.234L1884.2 420.238L1885.07 420.733ZM1866.8 437.717L1866.37 436.816L1865.1 437.43L1866.1 438.427L1866.8 437.717ZM1888.93 459.697V460.697H1891.35L1889.63 458.988L1888.93 459.697ZM1851.1 420.875L1851.47 421.806L1851.1 420.875ZM1858.95 415.452L1858.22 414.774L1858.21 414.783L1858.2 414.791L1858.95 415.452ZM1863.81 406.745L1864.76 407.037H1864.76L1863.81 406.745ZM1863.81 377.2L1864.76 376.908L1864.76 376.908L1863.81 377.2ZM1858.95 368.494L1858.2 369.154L1858.21 369.163L1858.22 369.171L1858.95 368.494ZM1851.1 363.07L1850.74 364.001L1851.1 363.07ZM1829.27 363.07L1829.63 364.001V364.001L1829.27 363.07ZM1821.42 368.494L1820.67 367.833L1821.42 368.494ZM1816.71 377.2L1815.75 376.908V376.908L1816.71 377.2ZM1816.71 406.745L1815.75 407.037L1816.71 406.745ZM1821.42 415.452L1820.67 416.112L1821.42 415.452ZM1829.27 420.875L1828.9 421.806L1829.27 420.875ZM1857.98 459.028L1842.28 441.615L1840.8 442.954L1856.5 460.367L1857.98 459.028ZM1841.38 441.298C1840.87 441.383 1840.3 441.427 1839.69 441.427V443.427C1840.4 443.427 1841.07 443.376 1841.71 443.271L1841.38 441.298ZM1839.54 441.437C1838.92 441.527 1838.35 441.57 1837.83 441.57V443.57C1838.46 443.57 1839.12 443.518 1839.83 443.417L1839.54 441.437ZM1837.83 441.57C1827.77 441.57 1819.18 439.69 1812.03 435.973L1811.11 437.748C1818.61 441.644 1827.52 443.57 1837.83 443.57V441.57ZM1812.03 435.973C1804.89 432.265 1799.42 426.755 1795.61 419.415L1793.84 420.337C1797.83 428.032 1803.59 433.845 1811.11 437.748L1812.03 435.973ZM1795.62 419.42C1791.8 411.984 1789.87 402.825 1789.87 391.901H1787.87C1787.87 403.053 1789.84 412.544 1793.84 420.332L1795.62 419.42ZM1789.87 391.901C1789.87 380.692 1791.9 371.499 1795.89 364.267L1794.14 363.301C1789.94 370.912 1787.87 380.464 1787.87 391.901H1789.87ZM1795.89 364.262C1799.88 356.925 1805.58 351.459 1813 347.841L1812.13 346.043C1804.33 349.846 1798.32 355.608 1794.13 363.306L1795.89 364.262ZM1813.01 347.838C1820.55 344.115 1829.62 342.233 1840.26 342.233V340.233C1829.39 340.233 1820 342.156 1812.12 346.045L1813.01 347.838ZM1840.26 342.233C1850.89 342.233 1859.91 344.115 1867.36 347.836L1868.25 346.047C1860.47 342.156 1851.12 340.233 1840.26 340.233V342.233ZM1867.37 347.843C1874.89 351.463 1880.63 356.929 1884.62 364.262L1886.38 363.306C1882.19 355.605 1876.13 349.843 1868.24 346.041L1867.37 347.843ZM1884.63 364.267C1888.61 371.499 1890.64 380.692 1890.64 391.901H1892.64C1892.64 380.464 1890.57 370.912 1886.38 363.301L1884.63 364.267ZM1890.64 391.901C1890.64 403.39 1888.47 412.815 1884.21 420.234L1885.94 421.231C1890.43 413.426 1892.64 403.63 1892.64 391.901H1890.64ZM1884.2 420.238C1880.02 427.576 1874.09 433.097 1866.37 436.816L1867.24 438.618C1875.32 434.725 1881.56 428.923 1885.94 421.227L1884.2 420.238ZM1866.1 438.427L1888.22 460.407L1889.63 458.988L1867.51 437.008L1866.1 438.427ZM1888.93 458.697H1857.24V460.697H1888.93V458.697ZM1840.26 423.731C1844.45 423.731 1848.19 423.097 1851.47 421.806L1850.74 419.945C1847.74 421.127 1844.25 421.731 1840.26 421.731V423.731ZM1851.47 421.806C1854.75 420.514 1857.5 418.618 1859.7 416.112L1858.2 414.791C1856.22 417.043 1853.74 418.762 1850.74 419.945L1851.47 421.806ZM1859.69 416.129C1861.99 413.628 1863.68 410.59 1864.76 407.037L1862.85 406.453C1861.84 409.751 1860.29 412.517 1858.22 414.774L1859.69 416.129ZM1864.76 407.037C1865.84 403.501 1866.38 399.546 1866.38 395.184H1864.38C1864.38 399.386 1863.86 403.138 1862.85 406.453L1864.76 407.037ZM1866.38 395.184V388.904H1864.38V395.184H1866.38ZM1866.38 388.904C1866.38 384.449 1865.84 380.447 1864.76 376.908L1862.85 377.492C1863.86 380.805 1864.38 384.605 1864.38 388.904H1866.38ZM1864.76 376.908C1863.68 373.355 1861.99 370.317 1859.69 367.817L1858.22 369.171C1860.29 371.428 1861.84 374.194 1862.85 377.492L1864.76 376.908ZM1859.7 367.833C1857.5 365.327 1854.75 363.431 1851.47 362.14L1850.74 364.001C1853.74 365.183 1856.22 366.902 1858.2 369.154L1859.7 367.833ZM1851.47 362.14C1848.19 360.848 1844.45 360.215 1840.26 360.215V362.215C1844.25 362.215 1847.74 362.818 1850.74 364.001L1851.47 362.14ZM1840.26 360.215C1835.97 360.215 1832.18 360.847 1828.9 362.14L1829.63 364.001C1832.63 362.819 1836.17 362.215 1840.26 362.215V360.215ZM1828.9 362.14C1825.62 363.431 1822.87 365.327 1820.67 367.833L1822.17 369.154C1824.15 366.902 1826.63 365.183 1829.63 364.001L1828.9 362.14ZM1820.67 367.833C1818.47 370.332 1816.83 373.364 1815.75 376.908L1817.66 377.492C1818.67 374.185 1820.18 371.413 1822.17 369.154L1820.67 367.833ZM1815.75 376.908C1814.67 380.447 1814.14 384.449 1814.14 388.904H1816.14C1816.14 384.605 1816.65 380.805 1817.66 377.492L1815.75 376.908ZM1814.14 388.904V395.184H1816.14V388.904H1814.14ZM1814.14 395.184C1814.14 399.546 1814.67 403.501 1815.75 407.037L1817.66 406.453C1816.65 403.138 1816.14 399.386 1816.14 395.184H1814.14ZM1815.75 407.037C1816.83 410.581 1818.47 413.613 1820.67 416.112L1822.17 414.791C1820.18 412.532 1818.67 409.76 1817.66 406.453L1815.75 407.037ZM1820.67 416.112C1822.87 418.618 1825.62 420.514 1828.9 421.806L1829.63 419.945C1826.63 418.762 1824.15 417.043 1822.17 414.791L1820.67 416.112ZM1828.9 421.806C1832.18 423.098 1835.97 423.731 1840.26 423.731V421.731C1836.17 421.731 1832.63 421.126 1829.63 419.945L1828.9 421.806Z" fill="url(#paint1_linear_103_18765)" mask="url(#path-3-outside-1_103_18765)"/>
</g>
<defs>
<linearGradient id="paint0_linear_103_18765" x1="23.9004" y1="478.048" x2="1076.15" y2="-701.183" gradientUnits="userSpaceOnUse">
<stop stop-color="#0F0D0D"/>
<stop offset="0.8" stop-color="#304646"/>
</linearGradient>
<linearGradient id="paint1_linear_103_18765" x1="1587.21" y1="341" x2="1927.98" y2="371.469" gradientUnits="userSpaceOnUse">
<stop stop-color="#FFC631"/>
<stop offset="1" stop-color="#CA9301"/>
</linearGradient>
</defs>
</svg>
