<svg width="1920" height="486" viewBox="0 0 1920 486" fill="none" xmlns="http://www.w3.org/2000/svg">
<rect width="1920" height="486" fill="url(#paint0_linear_103_18835)"/>
<mask id="mask0_103_18835" style="mask-type:luminance" maskUnits="userSpaceOnUse" x="0" y="0" width="1920" height="486">
<rect width="1920" height="486" fill="white"/>
</mask>
<g mask="url(#mask0_103_18835)">
<mask id="path-3-outside-1_103_18835" maskUnits="userSpaceOnUse" x="1467" y="341" width="422" height="101" fill="black">
<rect fill="white" x="1467" y="341" width="422" height="101"/>
<path d="M1500.19 441V363.926H1468.36V342.945H1557.57V363.926H1525.74V441H1500.19ZM1572.24 441V342.945H1653.17V362.927H1597.79V381.339H1646.17V400.893H1597.79V421.018H1654.17V441H1572.24ZM1662.19 441L1699.01 342.945H1729.7L1766.52 441H1739.26L1733.41 424.015H1694.3L1688.45 441H1662.19ZM1700.44 404.89H1727.13L1720.14 384.194C1719.76 383.147 1719.28 381.863 1718.71 380.34C1718.23 378.723 1717.71 377.058 1717.14 375.345C1716.66 373.537 1716.19 371.729 1715.71 369.921C1715.24 368.113 1714.76 366.543 1714.29 365.211H1713.29C1712.91 367.019 1712.34 369.065 1711.57 371.348C1710.91 373.632 1710.19 375.916 1709.43 378.199C1708.77 380.483 1708.15 382.481 1707.58 384.194L1700.44 404.89ZM1778.24 441V342.945H1815.49L1827.34 386.62C1827.82 388.143 1828.39 390.236 1829.05 392.9C1829.72 395.47 1830.39 398.181 1831.05 401.036C1831.72 403.891 1832.29 406.46 1832.76 408.743H1833.91C1834.29 406.935 1834.76 404.794 1835.33 402.321C1835.9 399.751 1836.52 397.087 1837.19 394.328C1837.85 391.473 1838.47 388.856 1839.04 386.478L1851.03 342.945H1887.29V441H1862.45V399.18C1862.45 395.089 1862.45 390.95 1862.45 386.763C1862.55 382.576 1862.64 378.77 1862.74 375.345C1862.83 371.919 1862.88 369.445 1862.88 367.923H1861.74C1861.45 369.35 1860.98 371.444 1860.31 374.203C1859.74 376.867 1859.07 379.674 1858.31 382.624C1857.65 385.479 1857.03 387.952 1856.46 390.046L1842.18 441H1821.63L1807.22 390.046C1806.74 388.143 1806.17 385.859 1805.5 383.195C1804.84 380.531 1804.17 377.819 1803.5 375.059C1802.93 372.3 1802.41 369.969 1801.93 368.066H1800.79C1800.89 370.54 1800.98 373.584 1801.08 377.2C1801.17 380.721 1801.27 384.432 1801.36 388.333C1801.46 392.139 1801.51 395.755 1801.51 399.18V441H1778.24Z"/>
</mask>
<path d="M1500.19 441H1499.19V442H1500.19V441ZM1500.19 363.926H1501.19V362.926H1500.19V363.926ZM1468.36 363.926H1467.36V364.926H1468.36V363.926ZM1468.36 342.945V341.945H1467.36V342.945H1468.36ZM1557.57 342.945H1558.57V341.945H1557.57V342.945ZM1557.57 363.926V364.926H1558.57V363.926H1557.57ZM1525.74 363.926V362.926H1524.74V363.926H1525.74ZM1525.74 441V442H1526.74V441H1525.74ZM1501.19 441V363.926H1499.19V441H1501.19ZM1500.19 362.926H1468.36V364.926H1500.19V362.926ZM1469.36 363.926V342.945H1467.36V363.926H1469.36ZM1468.36 343.945H1557.57V341.945H1468.36V343.945ZM1556.57 342.945V363.926H1558.57V342.945H1556.57ZM1557.57 362.926H1525.74V364.926H1557.57V362.926ZM1524.74 363.926V441H1526.74V363.926H1524.74ZM1525.74 440H1500.19V442H1525.74V440ZM1572.24 441H1571.24V442H1572.24V441ZM1572.24 342.945V341.945H1571.24V342.945H1572.24ZM1653.17 342.945H1654.17V341.945H1653.17V342.945ZM1653.17 362.927V363.927H1654.17V362.927H1653.17ZM1597.79 362.927V361.927H1596.79V362.927H1597.79ZM1597.79 381.339H1596.79V382.339H1597.79V381.339ZM1646.17 381.339H1647.17V380.339H1646.17V381.339ZM1646.17 400.893V401.893H1647.17V400.893H1646.17ZM1597.79 400.893V399.893H1596.79V400.893H1597.79ZM1597.79 421.018H1596.79V422.018H1597.79V421.018ZM1654.17 421.018H1655.17V420.018H1654.17V421.018ZM1654.17 441V442H1655.17V441H1654.17ZM1573.24 441V342.945H1571.24V441H1573.24ZM1572.24 343.945H1653.17V341.945H1572.24V343.945ZM1652.17 342.945V362.927H1654.17V342.945H1652.17ZM1653.17 361.927H1597.79V363.927H1653.17V361.927ZM1596.79 362.927V381.339H1598.79V362.927H1596.79ZM1597.79 382.339H1646.17V380.339H1597.79V382.339ZM1645.17 381.339V400.893H1647.17V381.339H1645.17ZM1646.17 399.893H1597.79V401.893H1646.17V399.893ZM1596.79 400.893V421.018H1598.79V400.893H1596.79ZM1597.79 422.018H1654.17V420.018H1597.79V422.018ZM1653.17 421.018V441H1655.17V421.018H1653.17ZM1654.17 440H1572.24V442H1654.17V440ZM1662.19 441L1661.25 440.648L1660.75 442H1662.19V441ZM1699.01 342.945V341.945H1698.32L1698.08 342.594L1699.01 342.945ZM1729.7 342.945L1730.64 342.594L1730.39 341.945H1729.7V342.945ZM1766.52 441V442H1767.97L1767.46 440.648L1766.52 441ZM1739.26 441L1738.32 441.326L1738.55 442H1739.26V441ZM1733.41 424.015L1734.36 423.69L1734.12 423.015H1733.41V424.015ZM1694.3 424.015V423.015H1693.59L1693.36 423.69L1694.3 424.015ZM1688.45 441V442H1689.17L1689.4 441.326L1688.45 441ZM1700.44 404.89L1699.5 404.564L1699.04 405.89H1700.44V404.89ZM1727.13 404.89V405.89H1728.52L1728.08 404.569L1727.13 404.89ZM1720.14 384.194L1721.09 383.874L1721.08 383.863L1721.08 383.852L1720.14 384.194ZM1718.71 380.34L1717.75 380.622L1717.76 380.657L1717.77 380.691L1718.71 380.34ZM1717.14 375.345L1716.17 375.599L1716.18 375.63L1716.19 375.661L1717.14 375.345ZM1715.71 369.921L1714.75 370.176L1715.71 369.921ZM1714.29 365.211L1715.23 364.875L1714.99 364.211H1714.29V365.211ZM1713.29 365.211V364.211H1712.48L1712.31 365.005L1713.29 365.211ZM1711.57 371.348L1710.63 371.032L1710.62 371.05L1710.61 371.068L1711.57 371.348ZM1709.43 378.199L1708.48 377.883L1708.48 377.901L1708.47 377.919L1709.43 378.199ZM1707.58 384.194L1708.52 384.52L1708.53 384.51L1707.58 384.194ZM1663.13 441.352L1699.95 343.297L1698.08 342.594L1661.25 440.648L1663.13 441.352ZM1699.01 343.945H1729.7V341.945H1699.01V343.945ZM1728.76 343.297L1765.59 441.352L1767.46 440.648L1730.64 342.594L1728.76 343.297ZM1766.52 440H1739.26V442H1766.52V440ZM1740.21 440.674L1734.36 423.69L1732.47 424.341L1738.32 441.326L1740.21 440.674ZM1733.41 423.015H1694.3V425.015H1733.41V423.015ZM1693.36 423.69L1687.51 440.674L1689.4 441.326L1695.25 424.341L1693.36 423.69ZM1688.45 440H1662.19V442H1688.45V440ZM1700.44 405.89H1727.13V403.89H1700.44V405.89ZM1728.08 404.569L1721.09 383.874L1719.19 384.514L1726.18 405.21L1728.08 404.569ZM1721.08 383.852C1720.7 382.801 1720.22 381.513 1719.65 379.989L1717.77 380.691C1718.34 382.212 1718.82 383.493 1719.2 384.536L1721.08 383.852ZM1719.67 380.058C1719.19 378.428 1718.66 376.752 1718.09 375.029L1716.19 375.661C1716.76 377.363 1717.28 379.017 1717.75 380.622L1719.67 380.058ZM1718.11 375.09C1717.63 373.282 1717.16 371.474 1716.68 369.667L1714.75 370.176C1715.22 371.983 1715.7 373.791 1716.17 375.599L1718.11 375.09ZM1716.68 369.667C1716.2 367.839 1715.72 366.241 1715.23 364.875L1713.34 365.547C1713.81 366.846 1714.28 368.387 1714.75 370.176L1716.68 369.667ZM1714.29 364.211H1713.29V366.211H1714.29V364.211ZM1712.31 365.005C1711.94 366.766 1711.38 368.774 1710.63 371.032L1712.52 371.665C1713.29 369.355 1713.87 367.271 1714.27 365.417L1712.31 365.005ZM1710.61 371.068C1709.95 373.34 1709.24 375.611 1708.48 377.883L1710.38 378.516C1711.15 376.22 1711.86 373.924 1712.53 371.628L1710.61 371.068ZM1708.47 377.919C1707.81 380.194 1707.19 382.18 1706.63 383.878L1708.53 384.51C1709.1 382.782 1709.72 380.772 1710.39 378.479L1708.47 377.919ZM1706.63 383.868L1699.5 404.564L1701.39 405.216L1708.52 384.52L1706.63 383.868ZM1778.24 441H1777.24V442H1778.24V441ZM1778.24 342.945V341.945H1777.24V342.945H1778.24ZM1815.49 342.945L1816.46 342.684L1816.26 341.945H1815.49V342.945ZM1827.34 386.62L1826.38 386.882L1826.38 386.9L1826.39 386.919L1827.34 386.62ZM1829.05 392.9L1828.08 393.143L1828.09 393.151L1829.05 392.9ZM1832.76 408.743L1831.79 408.947L1831.95 409.743H1832.76V408.743ZM1833.91 408.743V409.743H1834.72L1834.88 408.949L1833.91 408.743ZM1835.33 402.321L1836.31 402.545L1836.31 402.537L1835.33 402.321ZM1837.19 394.328L1838.16 394.562L1838.16 394.555L1837.19 394.328ZM1839.04 386.478L1838.08 386.212L1838.08 386.228L1838.07 386.244L1839.04 386.478ZM1851.03 342.945V341.945H1850.27L1850.07 342.68L1851.03 342.945ZM1887.29 342.945H1888.29V341.945H1887.29V342.945ZM1887.29 441V442H1888.29V441H1887.29ZM1862.45 441H1861.45V442H1862.45V441ZM1862.45 386.763L1861.45 386.74L1861.45 386.752V386.763H1862.45ZM1862.74 375.345L1863.74 375.373V375.373L1862.74 375.345ZM1862.88 367.923H1863.88V366.923H1862.88V367.923ZM1861.74 367.923V366.923H1860.92L1860.76 367.727L1861.74 367.923ZM1860.31 374.203L1859.34 373.968L1859.34 373.981L1859.33 373.993L1860.31 374.203ZM1858.31 382.624L1857.34 382.374L1857.34 382.385L1857.34 382.397L1858.31 382.624ZM1856.46 390.046L1857.42 390.316L1857.42 390.309L1856.46 390.046ZM1842.18 441V442H1842.94L1843.15 441.27L1842.18 441ZM1821.63 441L1820.67 441.272L1820.87 442H1821.63V441ZM1807.22 390.046L1806.25 390.288L1806.25 390.303L1806.25 390.318L1807.22 390.046ZM1805.5 383.195L1806.47 382.952V382.952L1805.5 383.195ZM1803.5 375.059L1802.53 375.262L1802.53 375.278L1802.53 375.294L1803.5 375.059ZM1801.93 368.066L1802.9 367.823L1802.72 367.066H1801.93V368.066ZM1800.79 368.066V367.066H1799.75L1799.79 368.104L1800.79 368.066ZM1801.08 377.2L1800.08 377.227L1800.08 377.227L1801.08 377.2ZM1801.36 388.333L1800.36 388.357V388.358L1801.36 388.333ZM1801.51 441V442H1802.51V441H1801.51ZM1779.24 441V342.945H1777.24V441H1779.24ZM1778.24 343.945H1815.49V341.945H1778.24V343.945ZM1814.53 343.207L1826.38 386.882L1828.31 386.359L1816.46 342.684L1814.53 343.207ZM1826.39 386.919C1826.85 388.414 1827.42 390.486 1828.08 393.143L1830.02 392.658C1829.36 389.986 1828.78 387.871 1828.29 386.322L1826.39 386.919ZM1828.09 393.151C1828.75 395.712 1829.41 398.416 1830.08 401.263L1832.03 400.809C1831.36 397.947 1830.69 395.227 1830.02 392.649L1828.09 393.151ZM1830.08 401.263C1830.74 404.112 1831.31 406.673 1831.79 408.947L1833.74 408.539C1833.27 406.246 1832.69 403.669 1832.03 400.809L1830.08 401.263ZM1832.76 409.743H1833.91V407.743H1832.76V409.743ZM1834.88 408.949C1835.26 407.15 1835.74 405.015 1836.31 402.545L1834.36 402.096C1833.79 404.574 1833.31 406.721 1832.93 408.537L1834.88 408.949ZM1836.31 402.537C1836.88 399.975 1837.5 397.316 1838.16 394.562L1836.22 394.093C1835.55 396.858 1834.93 399.528 1834.36 402.104L1836.31 402.537ZM1838.16 394.555C1838.83 391.702 1839.45 389.087 1840.02 386.711L1838.07 386.244C1837.5 388.625 1836.88 391.244 1836.21 394.1L1838.16 394.555ZM1840.01 386.743L1852 343.211L1850.07 342.68L1838.08 386.212L1840.01 386.743ZM1851.03 343.945H1887.29V341.945H1851.03V343.945ZM1886.29 342.945V441H1888.29V342.945H1886.29ZM1887.29 440H1862.45V442H1887.29V440ZM1863.45 441V399.18H1861.45V441H1863.45ZM1863.45 399.18C1863.45 399.172 1863.45 399.164 1863.45 399.156C1863.45 399.149 1863.45 399.141 1863.45 399.133C1863.45 399.125 1863.45 399.117 1863.45 399.109C1863.45 399.101 1863.45 399.093 1863.45 399.085C1863.45 399.077 1863.45 399.069 1863.45 399.061C1863.45 399.053 1863.45 399.045 1863.45 399.037C1863.45 399.029 1863.45 399.021 1863.45 399.013C1863.45 399.005 1863.45 398.997 1863.45 398.989C1863.45 398.981 1863.45 398.973 1863.45 398.965C1863.45 398.957 1863.45 398.949 1863.45 398.941C1863.45 398.933 1863.45 398.925 1863.45 398.917C1863.45 398.909 1863.45 398.901 1863.45 398.893C1863.45 398.885 1863.45 398.877 1863.45 398.869C1863.45 398.861 1863.45 398.853 1863.45 398.845C1863.45 398.837 1863.45 398.829 1863.45 398.821C1863.45 398.813 1863.45 398.805 1863.45 398.797C1863.45 398.789 1863.45 398.781 1863.45 398.773C1863.45 398.765 1863.45 398.757 1863.45 398.749C1863.45 398.741 1863.45 398.733 1863.45 398.725C1863.45 398.717 1863.45 398.709 1863.45 398.701C1863.45 398.693 1863.45 398.685 1863.45 398.677C1863.45 398.669 1863.45 398.661 1863.45 398.653C1863.45 398.645 1863.45 398.637 1863.45 398.629C1863.45 398.621 1863.45 398.613 1863.45 398.605C1863.45 398.597 1863.45 398.589 1863.45 398.581C1863.45 398.573 1863.45 398.565 1863.45 398.557C1863.45 398.549 1863.45 398.541 1863.45 398.533C1863.45 398.525 1863.45 398.517 1863.45 398.509C1863.45 398.501 1863.45 398.493 1863.45 398.485C1863.45 398.477 1863.45 398.469 1863.45 398.461C1863.45 398.453 1863.45 398.445 1863.45 398.437C1863.45 398.429 1863.45 398.421 1863.45 398.413C1863.45 398.405 1863.45 398.397 1863.45 398.389C1863.45 398.381 1863.45 398.373 1863.45 398.365C1863.45 398.357 1863.45 398.349 1863.45 398.341C1863.45 398.333 1863.45 398.325 1863.45 398.317C1863.45 398.309 1863.45 398.301 1863.45 398.293C1863.45 398.285 1863.45 398.277 1863.45 398.269C1863.45 398.261 1863.45 398.253 1863.45 398.245C1863.45 398.237 1863.45 398.229 1863.45 398.221C1863.45 398.213 1863.45 398.205 1863.45 398.197C1863.45 398.189 1863.45 398.181 1863.45 398.173C1863.45 398.165 1863.45 398.157 1863.45 398.149C1863.45 398.141 1863.45 398.133 1863.45 398.125C1863.45 398.117 1863.45 398.109 1863.45 398.101C1863.45 398.093 1863.45 398.085 1863.45 398.077C1863.45 398.069 1863.45 398.061 1863.45 398.052C1863.45 398.044 1863.45 398.036 1863.45 398.028C1863.45 398.02 1863.45 398.012 1863.45 398.004C1863.45 397.996 1863.45 397.988 1863.45 397.98C1863.45 397.972 1863.45 397.964 1863.45 397.956C1863.45 397.948 1863.45 397.94 1863.45 397.932C1863.45 397.924 1863.45 397.916 1863.45 397.908C1863.45 397.9 1863.45 397.892 1863.45 397.884C1863.45 397.876 1863.45 397.868 1863.45 397.86C1863.45 397.852 1863.45 397.844 1863.45 397.836C1863.45 397.828 1863.45 397.82 1863.45 397.812C1863.45 397.804 1863.45 397.796 1863.45 397.788C1863.45 397.78 1863.45 397.772 1863.45 397.764C1863.45 397.756 1863.45 397.748 1863.45 397.74C1863.45 397.732 1863.45 397.724 1863.45 397.716C1863.45 397.708 1863.45 397.7 1863.45 397.692C1863.45 397.684 1863.45 397.676 1863.45 397.668C1863.45 397.66 1863.45 397.652 1863.45 397.644C1863.45 397.636 1863.45 397.628 1863.45 397.62C1863.45 397.612 1863.45 397.604 1863.45 397.596C1863.45 397.588 1863.45 397.58 1863.45 397.572C1863.45 397.564 1863.45 397.556 1863.45 397.548C1863.45 397.54 1863.45 397.532 1863.45 397.524C1863.45 397.516 1863.45 397.508 1863.45 397.5C1863.45 397.492 1863.45 397.484 1863.45 397.476C1863.45 397.468 1863.45 397.46 1863.45 397.452C1863.45 397.444 1863.45 397.435 1863.45 397.427C1863.45 397.419 1863.45 397.411 1863.45 397.403C1863.45 397.395 1863.45 397.387 1863.45 397.379C1863.45 397.371 1863.45 397.363 1863.45 397.355C1863.45 397.347 1863.45 397.339 1863.45 397.331C1863.45 397.323 1863.45 397.315 1863.45 397.307C1863.45 397.299 1863.45 397.291 1863.45 397.283C1863.45 397.275 1863.45 397.267 1863.45 397.259C1863.45 397.251 1863.45 397.243 1863.45 397.235C1863.45 397.227 1863.45 397.219 1863.45 397.211C1863.45 397.203 1863.45 397.195 1863.45 397.187C1863.45 397.179 1863.45 397.171 1863.45 397.163C1863.45 397.155 1863.45 397.147 1863.45 397.139C1863.45 397.131 1863.45 397.123 1863.45 397.115C1863.45 397.107 1863.45 397.099 1863.45 397.091C1863.45 397.083 1863.45 397.075 1863.45 397.067C1863.45 397.059 1863.45 397.05 1863.45 397.042C1863.45 397.034 1863.45 397.026 1863.45 397.018C1863.45 397.01 1863.45 397.002 1863.45 396.994C1863.45 396.986 1863.45 396.978 1863.45 396.97C1863.45 396.962 1863.45 396.954 1863.45 396.946C1863.45 396.938 1863.45 396.93 1863.45 396.922C1863.45 396.914 1863.45 396.906 1863.45 396.898C1863.45 396.89 1863.45 396.882 1863.45 396.874C1863.45 396.866 1863.45 396.858 1863.45 396.85C1863.45 396.842 1863.45 396.834 1863.45 396.826C1863.45 396.818 1863.45 396.81 1863.45 396.802C1863.45 396.794 1863.45 396.786 1863.45 396.778C1863.45 396.77 1863.45 396.762 1863.45 396.754C1863.45 396.746 1863.45 396.737 1863.45 396.729C1863.45 396.721 1863.45 396.713 1863.45 396.705C1863.45 396.697 1863.45 396.689 1863.45 396.681C1863.45 396.673 1863.45 396.665 1863.45 396.657C1863.45 396.649 1863.45 396.641 1863.45 396.633C1863.45 396.625 1863.45 396.617 1863.45 396.609C1863.45 396.601 1863.45 396.593 1863.45 396.585C1863.45 396.577 1863.45 396.569 1863.45 396.561C1863.45 396.553 1863.45 396.545 1863.45 396.537C1863.45 396.529 1863.45 396.521 1863.45 396.513C1863.45 396.505 1863.45 396.497 1863.45 396.489C1863.45 396.481 1863.45 396.472 1863.45 396.464C1863.45 396.456 1863.45 396.448 1863.45 396.44C1863.45 396.432 1863.45 396.424 1863.45 396.416C1863.45 396.408 1863.45 396.4 1863.45 396.392C1863.45 396.384 1863.45 396.376 1863.45 396.368C1863.45 396.36 1863.45 396.352 1863.45 396.344C1863.45 396.336 1863.45 396.328 1863.45 396.32C1863.45 396.312 1863.45 396.304 1863.45 396.296C1863.45 396.288 1863.45 396.28 1863.45 396.272C1863.45 396.264 1863.45 396.256 1863.45 396.248C1863.45 396.24 1863.45 396.231 1863.45 396.223C1863.45 396.215 1863.45 396.207 1863.45 396.199C1863.45 396.191 1863.45 396.183 1863.45 396.175C1863.45 396.167 1863.45 396.159 1863.45 396.151C1863.45 396.143 1863.45 396.135 1863.45 396.127C1863.45 396.119 1863.45 396.111 1863.45 396.103C1863.45 396.095 1863.45 396.087 1863.45 396.079C1863.45 396.071 1863.45 396.063 1863.45 396.055C1863.45 396.047 1863.45 396.039 1863.45 396.031C1863.45 396.022 1863.45 396.014 1863.45 396.006C1863.45 395.998 1863.45 395.99 1863.45 395.982C1863.45 395.974 1863.45 395.966 1863.45 395.958C1863.45 395.95 1863.45 395.942 1863.45 395.934C1863.45 395.926 1863.45 395.918 1863.45 395.91C1863.45 395.902 1863.45 395.894 1863.45 395.886C1863.45 395.878 1863.45 395.87 1863.45 395.862C1863.45 395.854 1863.45 395.846 1863.45 395.838C1863.45 395.83 1863.45 395.821 1863.45 395.813C1863.45 395.805 1863.45 395.797 1863.45 395.789C1863.45 395.781 1863.45 395.773 1863.45 395.765C1863.45 395.757 1863.45 395.749 1863.45 395.741C1863.45 395.733 1863.45 395.725 1863.45 395.717C1863.45 395.709 1863.45 395.701 1863.45 395.693C1863.45 395.685 1863.45 395.677 1863.45 395.669C1863.45 395.661 1863.45 395.653 1863.45 395.645C1863.45 395.636 1863.45 395.628 1863.45 395.62C1863.45 395.612 1863.45 395.604 1863.45 395.596C1863.45 395.588 1863.45 395.58 1863.45 395.572C1863.45 395.564 1863.45 395.556 1863.45 395.548C1863.45 395.54 1863.45 395.532 1863.45 395.524C1863.45 395.516 1863.45 395.508 1863.45 395.5C1863.45 395.492 1863.45 395.484 1863.45 395.476C1863.45 395.468 1863.45 395.459 1863.45 395.451C1863.45 395.443 1863.45 395.435 1863.45 395.427C1863.45 395.419 1863.45 395.411 1863.45 395.403C1863.45 395.395 1863.45 395.387 1863.45 395.379C1863.45 395.371 1863.45 395.363 1863.45 395.355C1863.45 395.347 1863.45 395.339 1863.45 395.331C1863.45 395.323 1863.45 395.315 1863.45 395.307C1863.45 395.299 1863.45 395.29 1863.45 395.282C1863.45 395.274 1863.45 395.266 1863.45 395.258C1863.45 395.25 1863.45 395.242 1863.45 395.234C1863.45 395.226 1863.45 395.218 1863.45 395.21C1863.45 395.202 1863.45 395.194 1863.45 395.186C1863.45 395.178 1863.45 395.17 1863.45 395.162C1863.45 395.154 1863.45 395.146 1863.45 395.137C1863.45 395.129 1863.45 395.121 1863.45 395.113C1863.45 395.105 1863.45 395.097 1863.45 395.089C1863.45 395.081 1863.45 395.073 1863.45 395.065C1863.45 395.057 1863.45 395.049 1863.45 395.041C1863.45 395.033 1863.45 395.025 1863.45 395.017C1863.45 395.009 1863.45 395.001 1863.45 394.993C1863.45 394.984 1863.45 394.976 1863.45 394.968C1863.45 394.96 1863.45 394.952 1863.45 394.944C1863.45 394.936 1863.45 394.928 1863.45 394.92C1863.45 394.912 1863.45 394.904 1863.45 394.896C1863.45 394.888 1863.45 394.88 1863.45 394.872C1863.45 394.864 1863.45 394.856 1863.45 394.848C1863.45 394.839 1863.45 394.831 1863.45 394.823C1863.45 394.815 1863.45 394.807 1863.45 394.799C1863.45 394.791 1863.45 394.783 1863.45 394.775C1863.45 394.767 1863.45 394.759 1863.45 394.751C1863.45 394.743 1863.45 394.735 1863.45 394.727C1863.45 394.719 1863.45 394.711 1863.45 394.702C1863.45 394.694 1863.45 394.686 1863.45 394.678C1863.45 394.67 1863.45 394.662 1863.45 394.654C1863.45 394.646 1863.45 394.638 1863.45 394.63C1863.45 394.622 1863.45 394.614 1863.45 394.606C1863.45 394.598 1863.45 394.59 1863.45 394.582C1863.45 394.574 1863.45 394.565 1863.45 394.557C1863.45 394.549 1863.45 394.541 1863.45 394.533C1863.45 394.525 1863.45 394.517 1863.45 394.509C1863.45 394.501 1863.45 394.493 1863.45 394.485C1863.45 394.477 1863.45 394.469 1863.45 394.461C1863.45 394.453 1863.45 394.445 1863.45 394.436C1863.45 394.428 1863.45 394.42 1863.45 394.412C1863.45 394.404 1863.45 394.396 1863.45 394.388C1863.45 394.38 1863.45 394.372 1863.45 394.364C1863.45 394.356 1863.45 394.348 1863.45 394.34C1863.45 394.332 1863.45 394.324 1863.45 394.316C1863.45 394.307 1863.45 394.299 1863.45 394.291C1863.45 394.283 1863.45 394.275 1863.45 394.267C1863.45 394.259 1863.45 394.251 1863.45 394.243C1863.45 394.235 1863.45 394.227 1863.45 394.219C1863.45 394.211 1863.45 394.203 1863.45 394.195C1863.45 394.186 1863.45 394.178 1863.45 394.17C1863.45 394.162 1863.45 394.154 1863.45 394.146C1863.45 394.138 1863.45 394.13 1863.45 394.122C1863.45 394.114 1863.45 394.106 1863.45 394.098C1863.45 394.09 1863.45 394.082 1863.45 394.074C1863.45 394.065 1863.45 394.057 1863.45 394.049C1863.45 394.041 1863.45 394.033 1863.45 394.025C1863.45 394.017 1863.45 394.009 1863.45 394.001C1863.45 393.993 1863.45 393.985 1863.45 393.977C1863.45 393.969 1863.45 393.961 1863.45 393.952C1863.45 393.944 1863.45 393.936 1863.45 393.928C1863.45 393.92 1863.45 393.912 1863.45 393.904C1863.45 393.896 1863.45 393.888 1863.45 393.88C1863.45 393.872 1863.45 393.864 1863.45 393.856C1863.45 393.848 1863.45 393.839 1863.45 393.831C1863.45 393.823 1863.45 393.815 1863.45 393.807C1863.45 393.799 1863.45 393.791 1863.45 393.783C1863.45 393.775 1863.45 393.767 1863.45 393.759C1863.45 393.751 1863.45 393.743 1863.45 393.735C1863.45 393.726 1863.45 393.718 1863.45 393.71C1863.45 393.702 1863.45 393.694 1863.45 393.686C1863.45 393.678 1863.45 393.67 1863.45 393.662C1863.45 393.654 1863.45 393.646 1863.45 393.638C1863.45 393.63 1863.45 393.622 1863.45 393.613C1863.45 393.605 1863.45 393.597 1863.45 393.589C1863.45 393.581 1863.45 393.573 1863.45 393.565C1863.45 393.557 1863.45 393.549 1863.45 393.541C1863.45 393.533 1863.45 393.525 1863.45 393.517C1863.45 393.508 1863.45 393.5 1863.45 393.492C1863.45 393.484 1863.45 393.476 1863.45 393.468C1863.45 393.46 1863.45 393.452 1863.45 393.444C1863.45 393.436 1863.45 393.428 1863.45 393.42C1863.45 393.412 1863.45 393.403 1863.45 393.395C1863.45 393.387 1863.45 393.379 1863.45 393.371C1863.45 393.363 1863.45 393.355 1863.45 393.347C1863.45 393.339 1863.45 393.331 1863.45 393.323C1863.45 393.315 1863.45 393.306 1863.45 393.298C1863.45 393.29 1863.45 393.282 1863.45 393.274C1863.45 393.266 1863.45 393.258 1863.45 393.25C1863.45 393.242 1863.45 393.234 1863.45 393.226C1863.45 393.218 1863.45 393.21 1863.45 393.201C1863.45 393.193 1863.45 393.185 1863.45 393.177C1863.45 393.169 1863.45 393.161 1863.45 393.153C1863.45 393.145 1863.45 393.137 1863.45 393.129C1863.45 393.121 1863.45 393.113 1863.45 393.104C1863.45 393.096 1863.45 393.088 1863.45 393.08C1863.45 393.072 1863.45 393.064 1863.45 393.056C1863.45 393.048 1863.45 393.04 1863.45 393.032C1863.45 393.024 1863.45 393.016 1863.45 393.007C1863.45 392.999 1863.45 392.991 1863.45 392.983C1863.45 392.975 1863.45 392.967 1863.45 392.959C1863.45 392.951 1863.45 392.943 1863.45 392.935C1863.45 392.927 1863.45 392.919 1863.45 392.91C1863.45 392.902 1863.45 392.894 1863.45 392.886C1863.45 392.878 1863.45 392.87 1863.45 392.862C1863.45 392.854 1863.45 392.846 1863.45 392.838C1863.45 392.83 1863.45 392.821 1863.45 392.813C1863.45 392.805 1863.45 392.797 1863.45 392.789C1863.45 392.781 1863.45 392.773 1863.45 392.765C1863.45 392.757 1863.45 392.749 1863.45 392.741C1863.45 392.733 1863.45 392.724 1863.45 392.716C1863.45 392.708 1863.45 392.7 1863.45 392.692C1863.45 392.684 1863.45 392.676 1863.45 392.668C1863.45 392.66 1863.45 392.652 1863.45 392.644C1863.45 392.635 1863.45 392.627 1863.45 392.619C1863.45 392.611 1863.45 392.603 1863.45 392.595C1863.45 392.587 1863.45 392.579 1863.45 392.571C1863.45 392.563 1863.45 392.555 1863.45 392.546C1863.45 392.538 1863.45 392.53 1863.45 392.522C1863.45 392.514 1863.45 392.506 1863.45 392.498C1863.45 392.49 1863.45 392.482 1863.45 392.474C1863.45 392.466 1863.45 392.457 1863.45 392.449C1863.45 392.441 1863.45 392.433 1863.45 392.425C1863.45 392.417 1863.45 392.409 1863.45 392.401C1863.45 392.393 1863.45 392.385 1863.45 392.377C1863.45 392.368 1863.45 392.36 1863.45 392.352C1863.45 392.344 1863.45 392.336 1863.45 392.328C1863.45 392.32 1863.45 392.312 1863.45 392.304C1863.45 392.296 1863.45 392.287 1863.45 392.279C1863.45 392.271 1863.45 392.263 1863.45 392.255C1863.45 392.247 1863.45 392.239 1863.45 392.231C1863.45 392.223 1863.45 392.215 1863.45 392.207C1863.45 392.198 1863.45 392.19 1863.45 392.182C1863.45 392.174 1863.45 392.166 1863.45 392.158C1863.45 392.15 1863.45 392.142 1863.45 392.134C1863.45 392.126 1863.45 392.117 1863.45 392.109C1863.45 392.101 1863.45 392.093 1863.45 392.085C1863.45 392.077 1863.45 392.069 1863.45 392.061C1863.45 392.053 1863.45 392.045 1863.45 392.036C1863.45 392.028 1863.45 392.02 1863.45 392.012C1863.45 392.004 1863.45 391.996 1863.45 391.988C1863.45 391.98 1863.45 391.972 1863.45 391.964C1863.45 391.955 1863.45 391.947 1863.45 391.939C1863.45 391.931 1863.45 391.923 1863.45 391.915C1863.45 391.907 1863.45 391.899 1863.45 391.891C1863.45 391.883 1863.45 391.874 1863.45 391.866C1863.45 391.858 1863.45 391.85 1863.45 391.842C1863.45 391.834 1863.45 391.826 1863.45 391.818C1863.45 391.81 1863.45 391.802 1863.45 391.793C1863.45 391.785 1863.45 391.777 1863.45 391.769C1863.45 391.761 1863.45 391.753 1863.45 391.745C1863.45 391.737 1863.45 391.729 1863.45 391.721C1863.45 391.712 1863.45 391.704 1863.45 391.696C1863.45 391.688 1863.45 391.68 1863.45 391.672C1863.45 391.664 1863.45 391.656 1863.45 391.648C1863.45 391.639 1863.45 391.631 1863.45 391.623C1863.45 391.615 1863.45 391.607 1863.45 391.599C1863.45 391.591 1863.45 391.583 1863.45 391.575C1863.45 391.567 1863.45 391.558 1863.45 391.55C1863.45 391.542 1863.45 391.534 1863.45 391.526C1863.45 391.518 1863.45 391.51 1863.45 391.502C1863.45 391.494 1863.45 391.485 1863.45 391.477C1863.45 391.469 1863.45 391.461 1863.45 391.453C1863.45 391.445 1863.45 391.437 1863.45 391.429C1863.45 391.421 1863.45 391.413 1863.45 391.404C1863.45 391.396 1863.45 391.388 1863.45 391.38C1863.45 391.372 1863.45 391.364 1863.45 391.356C1863.45 391.348 1863.45 391.34 1863.45 391.331C1863.45 391.323 1863.45 391.315 1863.45 391.307C1863.45 391.299 1863.45 391.291 1863.45 391.283C1863.45 391.275 1863.45 391.267 1863.45 391.258C1863.45 391.25 1863.45 391.242 1863.45 391.234C1863.45 391.226 1863.45 391.218 1863.45 391.21C1863.45 391.202 1863.45 391.194 1863.45 391.185C1863.45 391.177 1863.45 391.169 1863.45 391.161C1863.45 391.153 1863.45 391.145 1863.45 391.137C1863.45 391.129 1863.45 391.121 1863.45 391.112C1863.45 391.104 1863.45 391.096 1863.45 391.088C1863.45 391.08 1863.45 391.072 1863.45 391.064C1863.45 391.056 1863.45 391.048 1863.45 391.039C1863.45 391.031 1863.45 391.023 1863.45 391.015C1863.45 391.007 1863.45 390.999 1863.45 390.991C1863.45 390.983 1863.45 390.974 1863.45 390.966C1863.45 390.958 1863.45 390.95 1863.45 390.942C1863.45 390.934 1863.45 390.926 1863.45 390.918C1863.45 390.91 1863.45 390.901 1863.45 390.893C1863.45 390.885 1863.45 390.877 1863.45 390.869C1863.45 390.861 1863.45 390.853 1863.45 390.845C1863.45 390.837 1863.45 390.828 1863.45 390.82C1863.45 390.812 1863.45 390.804 1863.45 390.796C1863.45 390.788 1863.45 390.78 1863.45 390.772C1863.45 390.763 1863.45 390.755 1863.45 390.747C1863.45 390.739 1863.45 390.731 1863.45 390.723C1863.45 390.715 1863.45 390.707 1863.45 390.699C1863.45 390.69 1863.45 390.682 1863.45 390.674C1863.45 390.666 1863.45 390.658 1863.45 390.65C1863.45 390.642 1863.45 390.634 1863.45 390.625C1863.45 390.617 1863.45 390.609 1863.45 390.601C1863.45 390.593 1863.45 390.585 1863.45 390.577C1863.45 390.569 1863.45 390.56 1863.45 390.552C1863.45 390.544 1863.45 390.536 1863.45 390.528C1863.45 390.52 1863.45 390.512 1863.45 390.504C1863.45 390.496 1863.45 390.487 1863.45 390.479C1863.45 390.471 1863.45 390.463 1863.45 390.455C1863.45 390.447 1863.45 390.439 1863.45 390.431C1863.45 390.422 1863.45 390.414 1863.45 390.406C1863.45 390.398 1863.45 390.39 1863.45 390.382C1863.45 390.374 1863.45 390.366 1863.45 390.357C1863.45 390.349 1863.45 390.341 1863.45 390.333C1863.45 390.325 1863.45 390.317 1863.45 390.309C1863.45 390.301 1863.45 390.292 1863.45 390.284C1863.45 390.276 1863.45 390.268 1863.45 390.26C1863.45 390.252 1863.45 390.244 1863.45 390.236C1863.45 390.227 1863.45 390.219 1863.45 390.211C1863.45 390.203 1863.45 390.195 1863.45 390.187C1863.45 390.179 1863.45 390.171 1863.45 390.162C1863.45 390.154 1863.45 390.146 1863.45 390.138C1863.45 390.13 1863.45 390.122 1863.45 390.114C1863.45 390.106 1863.45 390.097 1863.45 390.089C1863.45 390.081 1863.45 390.073 1863.45 390.065C1863.45 390.057 1863.45 390.049 1863.45 390.041C1863.45 390.032 1863.45 390.024 1863.45 390.016C1863.45 390.008 1863.45 390 1863.45 389.992C1863.45 389.984 1863.45 389.975 1863.45 389.967C1863.45 389.959 1863.45 389.951 1863.45 389.943C1863.45 389.935 1863.45 389.927 1863.45 389.919C1863.45 389.91 1863.45 389.902 1863.45 389.894C1863.45 389.886 1863.45 389.878 1863.45 389.87C1863.45 389.862 1863.45 389.854 1863.45 389.845C1863.45 389.837 1863.45 389.829 1863.45 389.821C1863.45 389.813 1863.45 389.805 1863.45 389.797C1863.45 389.788 1863.45 389.78 1863.45 389.772C1863.45 389.764 1863.45 389.756 1863.45 389.748C1863.45 389.74 1863.45 389.732 1863.45 389.723C1863.45 389.715 1863.45 389.707 1863.45 389.699C1863.45 389.691 1863.45 389.683 1863.45 389.675C1863.45 389.666 1863.45 389.658 1863.45 389.65C1863.45 389.642 1863.45 389.634 1863.45 389.626C1863.45 389.618 1863.45 389.61 1863.45 389.601C1863.45 389.593 1863.45 389.585 1863.45 389.577C1863.45 389.569 1863.45 389.561 1863.45 389.553C1863.45 389.544 1863.45 389.536 1863.45 389.528C1863.45 389.52 1863.45 389.512 1863.45 389.504C1863.45 389.496 1863.45 389.487 1863.45 389.479C1863.45 389.471 1863.45 389.463 1863.45 389.455C1863.45 389.447 1863.45 389.439 1863.45 389.431C1863.45 389.422 1863.45 389.414 1863.45 389.406C1863.45 389.398 1863.45 389.39 1863.45 389.382C1863.45 389.374 1863.45 389.365 1863.45 389.357C1863.45 389.349 1863.45 389.341 1863.45 389.333C1863.45 389.325 1863.45 389.317 1863.45 389.308C1863.45 389.3 1863.45 389.292 1863.45 389.284C1863.45 389.276 1863.45 389.268 1863.45 389.26C1863.45 389.251 1863.45 389.243 1863.45 389.235C1863.45 389.227 1863.45 389.219 1863.45 389.211C1863.45 389.203 1863.45 389.194 1863.45 389.186C1863.45 389.178 1863.45 389.17 1863.45 389.162C1863.45 389.154 1863.45 389.146 1863.45 389.138C1863.45 389.129 1863.45 389.121 1863.45 389.113C1863.45 389.105 1863.45 389.097 1863.45 389.089C1863.45 389.081 1863.45 389.072 1863.45 389.064C1863.45 389.056 1863.45 389.048 1863.45 389.04C1863.45 389.032 1863.45 389.023 1863.45 389.015C1863.45 389.007 1863.45 388.999 1863.45 388.991C1863.45 388.983 1863.45 388.975 1863.45 388.966C1863.45 388.958 1863.45 388.95 1863.45 388.942C1863.45 388.934 1863.45 388.926 1863.45 388.918C1863.45 388.909 1863.45 388.901 1863.45 388.893C1863.45 388.885 1863.45 388.877 1863.45 388.869C1863.45 388.861 1863.45 388.852 1863.45 388.844C1863.45 388.836 1863.45 388.828 1863.45 388.82C1863.45 388.812 1863.45 388.804 1863.45 388.795C1863.45 388.787 1863.45 388.779 1863.45 388.771C1863.45 388.763 1863.45 388.755 1863.45 388.747C1863.45 388.738 1863.45 388.73 1863.45 388.722C1863.45 388.714 1863.45 388.706 1863.45 388.698C1863.45 388.69 1863.45 388.681 1863.45 388.673C1863.45 388.665 1863.45 388.657 1863.45 388.649C1863.45 388.641 1863.45 388.632 1863.45 388.624C1863.45 388.616 1863.45 388.608 1863.45 388.6C1863.45 388.592 1863.45 388.584 1863.45 388.575C1863.45 388.567 1863.45 388.559 1863.45 388.551C1863.45 388.543 1863.45 388.535 1863.45 388.527C1863.45 388.518 1863.45 388.51 1863.45 388.502C1863.45 388.494 1863.45 388.486 1863.45 388.478C1863.45 388.469 1863.45 388.461 1863.45 388.453C1863.45 388.445 1863.45 388.437 1863.45 388.429C1863.45 388.421 1863.45 388.412 1863.45 388.404C1863.45 388.396 1863.45 388.388 1863.45 388.38C1863.45 388.372 1863.45 388.363 1863.45 388.355C1863.45 388.347 1863.45 388.339 1863.45 388.331C1863.45 388.323 1863.45 388.315 1863.45 388.306C1863.45 388.298 1863.45 388.29 1863.45 388.282C1863.45 388.274 1863.45 388.266 1863.45 388.257C1863.45 388.249 1863.45 388.241 1863.45 388.233C1863.45 388.225 1863.45 388.217 1863.45 388.209C1863.45 388.2 1863.45 388.192 1863.45 388.184C1863.45 388.176 1863.45 388.168 1863.45 388.16C1863.45 388.151 1863.45 388.143 1863.45 388.135C1863.45 388.127 1863.45 388.119 1863.45 388.111C1863.45 388.102 1863.45 388.094 1863.45 388.086C1863.45 388.078 1863.45 388.07 1863.45 388.062C1863.45 388.054 1863.45 388.045 1863.45 388.037C1863.45 388.029 1863.45 388.021 1863.45 388.013C1863.45 388.005 1863.45 387.996 1863.45 387.988C1863.45 387.98 1863.45 387.972 1863.45 387.964C1863.45 387.956 1863.45 387.947 1863.45 387.939C1863.45 387.931 1863.45 387.923 1863.45 387.915C1863.45 387.907 1863.45 387.899 1863.45 387.89C1863.45 387.882 1863.45 387.874 1863.45 387.866C1863.45 387.858 1863.45 387.85 1863.45 387.841C1863.45 387.833 1863.45 387.825 1863.45 387.817C1863.45 387.809 1863.45 387.801 1863.45 387.792C1863.45 387.784 1863.45 387.776 1863.45 387.768C1863.45 387.76 1863.45 387.752 1863.45 387.743C1863.45 387.735 1863.45 387.727 1863.45 387.719C1863.45 387.711 1863.45 387.703 1863.45 387.694C1863.45 387.686 1863.45 387.678 1863.45 387.67C1863.45 387.662 1863.45 387.654 1863.45 387.645C1863.45 387.637 1863.45 387.629 1863.45 387.621C1863.45 387.613 1863.45 387.605 1863.45 387.597C1863.45 387.588 1863.45 387.58 1863.45 387.572C1863.45 387.564 1863.45 387.556 1863.45 387.548C1863.45 387.539 1863.45 387.531 1863.45 387.523C1863.45 387.515 1863.45 387.507 1863.45 387.499C1863.45 387.49 1863.45 387.482 1863.45 387.474C1863.45 387.466 1863.45 387.458 1863.45 387.45C1863.45 387.441 1863.45 387.433 1863.45 387.425C1863.45 387.417 1863.45 387.409 1863.45 387.401C1863.45 387.392 1863.45 387.384 1863.45 387.376C1863.45 387.368 1863.45 387.36 1863.45 387.352C1863.45 387.343 1863.45 387.335 1863.45 387.327C1863.45 387.319 1863.45 387.311 1863.45 387.302C1863.45 387.294 1863.45 387.286 1863.45 387.278C1863.45 387.27 1863.45 387.262 1863.45 387.253C1863.45 387.245 1863.45 387.237 1863.45 387.229C1863.45 387.221 1863.45 387.213 1863.45 387.204C1863.45 387.196 1863.45 387.188 1863.45 387.18C1863.45 387.172 1863.45 387.164 1863.45 387.155C1863.45 387.147 1863.45 387.139 1863.45 387.131C1863.45 387.123 1863.45 387.115 1863.45 387.106C1863.45 387.098 1863.45 387.09 1863.45 387.082C1863.45 387.074 1863.45 387.066 1863.45 387.057C1863.45 387.049 1863.45 387.041 1863.45 387.033C1863.45 387.025 1863.45 387.017 1863.45 387.008C1863.45 387 1863.45 386.992 1863.45 386.984C1863.45 386.976 1863.45 386.967 1863.45 386.959C1863.45 386.951 1863.45 386.943 1863.45 386.935C1863.45 386.927 1863.45 386.918 1863.45 386.91C1863.45 386.902 1863.45 386.894 1863.45 386.886C1863.45 386.878 1863.45 386.869 1863.45 386.861C1863.45 386.853 1863.45 386.845 1863.45 386.837C1863.45 386.828 1863.45 386.82 1863.45 386.812C1863.45 386.804 1863.45 386.796 1863.45 386.788C1863.45 386.779 1863.45 386.771 1863.45 386.763H1861.45C1861.45 386.771 1861.45 386.779 1861.45 386.788C1861.45 386.796 1861.45 386.804 1861.45 386.812C1861.45 386.82 1861.45 386.828 1861.45 386.837C1861.45 386.845 1861.45 386.853 1861.45 386.861C1861.45 386.869 1861.45 386.878 1861.45 386.886C1861.45 386.894 1861.45 386.902 1861.45 386.91C1861.45 386.918 1861.45 386.927 1861.45 386.935C1861.45 386.943 1861.45 386.951 1861.45 386.959C1861.45 386.967 1861.45 386.976 1861.45 386.984C1861.45 386.992 1861.45 387 1861.45 387.008C1861.45 387.017 1861.45 387.025 1861.45 387.033C1861.45 387.041 1861.45 387.049 1861.45 387.057C1861.45 387.066 1861.45 387.074 1861.45 387.082C1861.45 387.09 1861.45 387.098 1861.45 387.106C1861.45 387.115 1861.45 387.123 1861.45 387.131C1861.45 387.139 1861.45 387.147 1861.45 387.155C1861.45 387.164 1861.45 387.172 1861.45 387.18C1861.45 387.188 1861.45 387.196 1861.45 387.204C1861.45 387.213 1861.45 387.221 1861.45 387.229C1861.45 387.237 1861.45 387.245 1861.45 387.253C1861.45 387.262 1861.45 387.27 1861.45 387.278C1861.45 387.286 1861.45 387.294 1861.45 387.302C1861.45 387.311 1861.45 387.319 1861.45 387.327C1861.45 387.335 1861.45 387.343 1861.45 387.352C1861.45 387.36 1861.45 387.368 1861.45 387.376C1861.45 387.384 1861.45 387.392 1861.45 387.401C1861.45 387.409 1861.45 387.417 1861.45 387.425C1861.45 387.433 1861.45 387.441 1861.45 387.45C1861.45 387.458 1861.45 387.466 1861.45 387.474C1861.45 387.482 1861.45 387.49 1861.45 387.499C1861.45 387.507 1861.45 387.515 1861.45 387.523C1861.45 387.531 1861.45 387.539 1861.45 387.548C1861.45 387.556 1861.45 387.564 1861.45 387.572C1861.45 387.58 1861.45 387.588 1861.45 387.597C1861.45 387.605 1861.45 387.613 1861.45 387.621C1861.45 387.629 1861.45 387.637 1861.45 387.645C1861.45 387.654 1861.45 387.662 1861.45 387.67C1861.45 387.678 1861.45 387.686 1861.45 387.694C1861.45 387.703 1861.45 387.711 1861.45 387.719C1861.45 387.727 1861.45 387.735 1861.45 387.743C1861.45 387.752 1861.45 387.76 1861.45 387.768C1861.45 387.776 1861.45 387.784 1861.45 387.792C1861.45 387.801 1861.45 387.809 1861.45 387.817C1861.45 387.825 1861.45 387.833 1861.45 387.841C1861.45 387.85 1861.45 387.858 1861.45 387.866C1861.45 387.874 1861.45 387.882 1861.45 387.89C1861.45 387.899 1861.45 387.907 1861.45 387.915C1861.45 387.923 1861.45 387.931 1861.45 387.939C1861.45 387.947 1861.45 387.956 1861.45 387.964C1861.45 387.972 1861.45 387.98 1861.45 387.988C1861.45 387.996 1861.45 388.005 1861.45 388.013C1861.45 388.021 1861.45 388.029 1861.45 388.037C1861.45 388.045 1861.45 388.054 1861.45 388.062C1861.45 388.07 1861.45 388.078 1861.45 388.086C1861.45 388.094 1861.45 388.102 1861.45 388.111C1861.45 388.119 1861.45 388.127 1861.45 388.135C1861.45 388.143 1861.45 388.151 1861.45 388.16C1861.45 388.168 1861.45 388.176 1861.45 388.184C1861.45 388.192 1861.45 388.2 1861.45 388.209C1861.45 388.217 1861.45 388.225 1861.45 388.233C1861.45 388.241 1861.45 388.249 1861.45 388.257C1861.45 388.266 1861.45 388.274 1861.45 388.282C1861.45 388.29 1861.45 388.298 1861.45 388.306C1861.45 388.315 1861.45 388.323 1861.45 388.331C1861.45 388.339 1861.45 388.347 1861.45 388.355C1861.45 388.363 1861.45 388.372 1861.45 388.38C1861.45 388.388 1861.45 388.396 1861.45 388.404C1861.45 388.412 1861.45 388.421 1861.45 388.429C1861.45 388.437 1861.45 388.445 1861.45 388.453C1861.45 388.461 1861.45 388.469 1861.45 388.478C1861.45 388.486 1861.45 388.494 1861.45 388.502C1861.45 388.51 1861.45 388.518 1861.45 388.527C1861.45 388.535 1861.45 388.543 1861.45 388.551C1861.45 388.559 1861.45 388.567 1861.45 388.575C1861.45 388.584 1861.45 388.592 1861.45 388.6C1861.45 388.608 1861.45 388.616 1861.45 388.624C1861.45 388.632 1861.45 388.641 1861.45 388.649C1861.45 388.657 1861.45 388.665 1861.45 388.673C1861.45 388.681 1861.45 388.69 1861.45 388.698C1861.45 388.706 1861.45 388.714 1861.45 388.722C1861.45 388.73 1861.45 388.738 1861.45 388.747C1861.45 388.755 1861.45 388.763 1861.45 388.771C1861.45 388.779 1861.45 388.787 1861.45 388.795C1861.45 388.804 1861.45 388.812 1861.45 388.82C1861.45 388.828 1861.45 388.836 1861.45 388.844C1861.45 388.852 1861.45 388.861 1861.45 388.869C1861.45 388.877 1861.45 388.885 1861.45 388.893C1861.45 388.901 1861.45 388.909 1861.45 388.918C1861.45 388.926 1861.45 388.934 1861.45 388.942C1861.45 388.95 1861.45 388.958 1861.45 388.966C1861.45 388.975 1861.45 388.983 1861.45 388.991C1861.45 388.999 1861.45 389.007 1861.45 389.015C1861.45 389.023 1861.45 389.032 1861.45 389.04C1861.45 389.048 1861.45 389.056 1861.45 389.064C1861.45 389.072 1861.45 389.081 1861.45 389.089C1861.45 389.097 1861.45 389.105 1861.45 389.113C1861.45 389.121 1861.45 389.129 1861.45 389.138C1861.45 389.146 1861.45 389.154 1861.45 389.162C1861.45 389.17 1861.45 389.178 1861.45 389.186C1861.45 389.194 1861.45 389.203 1861.45 389.211C1861.45 389.219 1861.45 389.227 1861.45 389.235C1861.45 389.243 1861.45 389.251 1861.45 389.26C1861.45 389.268 1861.45 389.276 1861.45 389.284C1861.45 389.292 1861.45 389.3 1861.45 389.308C1861.45 389.317 1861.45 389.325 1861.45 389.333C1861.45 389.341 1861.45 389.349 1861.45 389.357C1861.45 389.365 1861.45 389.374 1861.45 389.382C1861.45 389.39 1861.45 389.398 1861.45 389.406C1861.45 389.414 1861.45 389.422 1861.45 389.431C1861.45 389.439 1861.45 389.447 1861.45 389.455C1861.45 389.463 1861.45 389.471 1861.45 389.479C1861.45 389.487 1861.45 389.496 1861.45 389.504C1861.45 389.512 1861.45 389.52 1861.45 389.528C1861.45 389.536 1861.45 389.544 1861.45 389.553C1861.45 389.561 1861.45 389.569 1861.45 389.577C1861.45 389.585 1861.45 389.593 1861.45 389.601C1861.45 389.61 1861.45 389.618 1861.45 389.626C1861.45 389.634 1861.45 389.642 1861.45 389.65C1861.45 389.658 1861.45 389.666 1861.45 389.675C1861.45 389.683 1861.45 389.691 1861.45 389.699C1861.45 389.707 1861.45 389.715 1861.45 389.723C1861.45 389.732 1861.45 389.74 1861.45 389.748C1861.45 389.756 1861.45 389.764 1861.45 389.772C1861.45 389.78 1861.45 389.788 1861.45 389.797C1861.45 389.805 1861.45 389.813 1861.45 389.821C1861.45 389.829 1861.45 389.837 1861.45 389.845C1861.45 389.854 1861.45 389.862 1861.45 389.87C1861.45 389.878 1861.45 389.886 1861.45 389.894C1861.45 389.902 1861.45 389.91 1861.45 389.919C1861.45 389.927 1861.45 389.935 1861.45 389.943C1861.45 389.951 1861.45 389.959 1861.45 389.967C1861.45 389.975 1861.45 389.984 1861.45 389.992C1861.45 390 1861.45 390.008 1861.45 390.016C1861.45 390.024 1861.45 390.032 1861.45 390.041C1861.45 390.049 1861.45 390.057 1861.45 390.065C1861.45 390.073 1861.45 390.081 1861.45 390.089C1861.45 390.097 1861.45 390.106 1861.45 390.114C1861.45 390.122 1861.45 390.13 1861.45 390.138C1861.45 390.146 1861.45 390.154 1861.45 390.162C1861.45 390.171 1861.45 390.179 1861.45 390.187C1861.45 390.195 1861.45 390.203 1861.45 390.211C1861.45 390.219 1861.45 390.227 1861.45 390.236C1861.45 390.244 1861.45 390.252 1861.45 390.26C1861.45 390.268 1861.45 390.276 1861.45 390.284C1861.45 390.292 1861.45 390.301 1861.45 390.309C1861.45 390.317 1861.45 390.325 1861.45 390.333C1861.45 390.341 1861.45 390.349 1861.45 390.357C1861.45 390.366 1861.45 390.374 1861.45 390.382C1861.45 390.39 1861.45 390.398 1861.45 390.406C1861.45 390.414 1861.45 390.422 1861.45 390.431C1861.45 390.439 1861.45 390.447 1861.45 390.455C1861.45 390.463 1861.45 390.471 1861.45 390.479C1861.45 390.487 1861.45 390.496 1861.45 390.504C1861.45 390.512 1861.45 390.52 1861.45 390.528C1861.45 390.536 1861.45 390.544 1861.45 390.552C1861.45 390.56 1861.45 390.569 1861.45 390.577C1861.45 390.585 1861.45 390.593 1861.45 390.601C1861.45 390.609 1861.45 390.617 1861.45 390.625C1861.45 390.634 1861.45 390.642 1861.45 390.65C1861.45 390.658 1861.45 390.666 1861.45 390.674C1861.45 390.682 1861.45 390.69 1861.45 390.699C1861.45 390.707 1861.45 390.715 1861.45 390.723C1861.45 390.731 1861.45 390.739 1861.45 390.747C1861.45 390.755 1861.45 390.763 1861.45 390.772C1861.45 390.78 1861.45 390.788 1861.45 390.796C1861.45 390.804 1861.45 390.812 1861.45 390.82C1861.45 390.828 1861.45 390.837 1861.45 390.845C1861.45 390.853 1861.45 390.861 1861.45 390.869C1861.45 390.877 1861.45 390.885 1861.45 390.893C1861.45 390.901 1861.45 390.91 1861.45 390.918C1861.45 390.926 1861.45 390.934 1861.45 390.942C1861.45 390.95 1861.45 390.958 1861.45 390.966C1861.45 390.974 1861.45 390.983 1861.45 390.991C1861.45 390.999 1861.45 391.007 1861.45 391.015C1861.45 391.023 1861.45 391.031 1861.45 391.039C1861.45 391.048 1861.45 391.056 1861.45 391.064C1861.45 391.072 1861.45 391.08 1861.45 391.088C1861.45 391.096 1861.45 391.104 1861.45 391.112C1861.45 391.121 1861.45 391.129 1861.45 391.137C1861.45 391.145 1861.45 391.153 1861.45 391.161C1861.45 391.169 1861.45 391.177 1861.45 391.185C1861.45 391.194 1861.45 391.202 1861.45 391.21C1861.45 391.218 1861.45 391.226 1861.45 391.234C1861.45 391.242 1861.45 391.25 1861.45 391.258C1861.45 391.267 1861.45 391.275 1861.45 391.283C1861.45 391.291 1861.45 391.299 1861.45 391.307C1861.45 391.315 1861.45 391.323 1861.45 391.331C1861.45 391.34 1861.45 391.348 1861.45 391.356C1861.45 391.364 1861.45 391.372 1861.45 391.38C1861.45 391.388 1861.45 391.396 1861.45 391.404C1861.45 391.413 1861.45 391.421 1861.45 391.429C1861.45 391.437 1861.45 391.445 1861.45 391.453C1861.45 391.461 1861.45 391.469 1861.45 391.477C1861.45 391.485 1861.45 391.494 1861.45 391.502C1861.45 391.51 1861.45 391.518 1861.45 391.526C1861.45 391.534 1861.45 391.542 1861.45 391.55C1861.45 391.558 1861.45 391.567 1861.45 391.575C1861.45 391.583 1861.45 391.591 1861.45 391.599C1861.45 391.607 1861.45 391.615 1861.45 391.623C1861.45 391.631 1861.45 391.639 1861.45 391.648C1861.45 391.656 1861.45 391.664 1861.45 391.672C1861.45 391.68 1861.45 391.688 1861.45 391.696C1861.45 391.704 1861.45 391.712 1861.45 391.721C1861.45 391.729 1861.45 391.737 1861.45 391.745C1861.45 391.753 1861.45 391.761 1861.45 391.769C1861.45 391.777 1861.45 391.785 1861.45 391.793C1861.45 391.802 1861.45 391.81 1861.45 391.818C1861.45 391.826 1861.45 391.834 1861.45 391.842C1861.45 391.85 1861.45 391.858 1861.45 391.866C1861.45 391.874 1861.45 391.883 1861.45 391.891C1861.45 391.899 1861.45 391.907 1861.45 391.915C1861.45 391.923 1861.45 391.931 1861.45 391.939C1861.45 391.947 1861.45 391.955 1861.45 391.964C1861.45 391.972 1861.45 391.98 1861.45 391.988C1861.45 391.996 1861.45 392.004 1861.45 392.012C1861.45 392.02 1861.45 392.028 1861.45 392.036C1861.45 392.045 1861.45 392.053 1861.45 392.061C1861.45 392.069 1861.45 392.077 1861.45 392.085C1861.45 392.093 1861.45 392.101 1861.45 392.109C1861.45 392.117 1861.45 392.126 1861.45 392.134C1861.45 392.142 1861.45 392.15 1861.45 392.158C1861.45 392.166 1861.45 392.174 1861.45 392.182C1861.45 392.19 1861.45 392.198 1861.45 392.207C1861.45 392.215 1861.45 392.223 1861.45 392.231C1861.45 392.239 1861.45 392.247 1861.45 392.255C1861.45 392.263 1861.45 392.271 1861.45 392.279C1861.45 392.287 1861.45 392.296 1861.45 392.304C1861.45 392.312 1861.45 392.32 1861.45 392.328C1861.45 392.336 1861.45 392.344 1861.45 392.352C1861.45 392.36 1861.45 392.368 1861.45 392.377C1861.45 392.385 1861.45 392.393 1861.45 392.401C1861.45 392.409 1861.45 392.417 1861.45 392.425C1861.45 392.433 1861.45 392.441 1861.45 392.449C1861.45 392.457 1861.45 392.466 1861.45 392.474C1861.45 392.482 1861.45 392.49 1861.45 392.498C1861.45 392.506 1861.45 392.514 1861.45 392.522C1861.45 392.53 1861.45 392.538 1861.45 392.546C1861.45 392.555 1861.45 392.563 1861.45 392.571C1861.45 392.579 1861.45 392.587 1861.45 392.595C1861.45 392.603 1861.45 392.611 1861.45 392.619C1861.45 392.627 1861.45 392.635 1861.45 392.644C1861.45 392.652 1861.45 392.66 1861.45 392.668C1861.45 392.676 1861.45 392.684 1861.45 392.692C1861.45 392.7 1861.45 392.708 1861.45 392.716C1861.45 392.724 1861.45 392.733 1861.45 392.741C1861.45 392.749 1861.45 392.757 1861.45 392.765C1861.45 392.773 1861.45 392.781 1861.45 392.789C1861.45 392.797 1861.45 392.805 1861.45 392.813C1861.45 392.821 1861.45 392.83 1861.45 392.838C1861.45 392.846 1861.45 392.854 1861.45 392.862C1861.45 392.87 1861.45 392.878 1861.45 392.886C1861.45 392.894 1861.45 392.902 1861.45 392.91C1861.45 392.919 1861.45 392.927 1861.45 392.935C1861.45 392.943 1861.45 392.951 1861.45 392.959C1861.45 392.967 1861.45 392.975 1861.45 392.983C1861.45 392.991 1861.45 392.999 1861.45 393.007C1861.45 393.016 1861.45 393.024 1861.45 393.032C1861.45 393.04 1861.45 393.048 1861.45 393.056C1861.45 393.064 1861.45 393.072 1861.45 393.08C1861.45 393.088 1861.45 393.096 1861.45 393.104C1861.45 393.113 1861.45 393.121 1861.45 393.129C1861.45 393.137 1861.45 393.145 1861.45 393.153C1861.45 393.161 1861.45 393.169 1861.45 393.177C1861.45 393.185 1861.45 393.193 1861.45 393.201C1861.45 393.21 1861.45 393.218 1861.45 393.226C1861.45 393.234 1861.45 393.242 1861.45 393.25C1861.45 393.258 1861.45 393.266 1861.45 393.274C1861.45 393.282 1861.45 393.29 1861.45 393.298C1861.45 393.306 1861.45 393.315 1861.45 393.323C1861.45 393.331 1861.45 393.339 1861.45 393.347C1861.45 393.355 1861.45 393.363 1861.45 393.371C1861.45 393.379 1861.45 393.387 1861.45 393.395C1861.45 393.403 1861.45 393.412 1861.45 393.42C1861.45 393.428 1861.45 393.436 1861.45 393.444C1861.45 393.452 1861.45 393.46 1861.45 393.468C1861.45 393.476 1861.45 393.484 1861.45 393.492C1861.45 393.5 1861.45 393.508 1861.45 393.517C1861.45 393.525 1861.45 393.533 1861.45 393.541C1861.45 393.549 1861.45 393.557 1861.45 393.565C1861.45 393.573 1861.45 393.581 1861.45 393.589C1861.45 393.597 1861.45 393.605 1861.45 393.613C1861.45 393.622 1861.45 393.63 1861.45 393.638C1861.45 393.646 1861.45 393.654 1861.45 393.662C1861.45 393.67 1861.45 393.678 1861.45 393.686C1861.45 393.694 1861.45 393.702 1861.45 393.71C1861.45 393.718 1861.45 393.726 1861.45 393.735C1861.45 393.743 1861.45 393.751 1861.45 393.759C1861.45 393.767 1861.45 393.775 1861.45 393.783C1861.45 393.791 1861.45 393.799 1861.45 393.807C1861.45 393.815 1861.45 393.823 1861.45 393.831C1861.45 393.839 1861.45 393.848 1861.45 393.856C1861.45 393.864 1861.45 393.872 1861.45 393.88C1861.45 393.888 1861.45 393.896 1861.45 393.904C1861.45 393.912 1861.45 393.92 1861.45 393.928C1861.45 393.936 1861.45 393.944 1861.45 393.952C1861.45 393.961 1861.45 393.969 1861.45 393.977C1861.45 393.985 1861.45 393.993 1861.45 394.001C1861.45 394.009 1861.45 394.017 1861.45 394.025C1861.45 394.033 1861.45 394.041 1861.45 394.049C1861.45 394.057 1861.45 394.065 1861.45 394.074C1861.45 394.082 1861.45 394.09 1861.45 394.098C1861.45 394.106 1861.45 394.114 1861.45 394.122C1861.45 394.13 1861.45 394.138 1861.45 394.146C1861.45 394.154 1861.45 394.162 1861.45 394.17C1861.45 394.178 1861.45 394.186 1861.45 394.195C1861.45 394.203 1861.45 394.211 1861.45 394.219C1861.45 394.227 1861.45 394.235 1861.45 394.243C1861.45 394.251 1861.45 394.259 1861.45 394.267C1861.45 394.275 1861.45 394.283 1861.45 394.291C1861.45 394.299 1861.45 394.307 1861.45 394.316C1861.45 394.324 1861.45 394.332 1861.45 394.34C1861.45 394.348 1861.45 394.356 1861.45 394.364C1861.45 394.372 1861.45 394.38 1861.45 394.388C1861.45 394.396 1861.45 394.404 1861.45 394.412C1861.45 394.42 1861.45 394.428 1861.45 394.436C1861.45 394.445 1861.45 394.453 1861.45 394.461C1861.45 394.469 1861.45 394.477 1861.45 394.485C1861.45 394.493 1861.45 394.501 1861.45 394.509C1861.45 394.517 1861.45 394.525 1861.45 394.533C1861.45 394.541 1861.45 394.549 1861.45 394.557C1861.45 394.565 1861.45 394.574 1861.45 394.582C1861.45 394.59 1861.45 394.598 1861.45 394.606C1861.45 394.614 1861.45 394.622 1861.45 394.63C1861.45 394.638 1861.45 394.646 1861.45 394.654C1861.45 394.662 1861.45 394.67 1861.45 394.678C1861.45 394.686 1861.45 394.694 1861.45 394.702C1861.45 394.711 1861.45 394.719 1861.45 394.727C1861.45 394.735 1861.45 394.743 1861.45 394.751C1861.45 394.759 1861.45 394.767 1861.45 394.775C1861.45 394.783 1861.45 394.791 1861.45 394.799C1861.45 394.807 1861.45 394.815 1861.45 394.823C1861.45 394.831 1861.45 394.839 1861.45 394.848C1861.45 394.856 1861.45 394.864 1861.45 394.872C1861.45 394.88 1861.45 394.888 1861.45 394.896C1861.45 394.904 1861.45 394.912 1861.45 394.92C1861.45 394.928 1861.45 394.936 1861.45 394.944C1861.45 394.952 1861.45 394.96 1861.45 394.968C1861.45 394.976 1861.45 394.984 1861.45 394.993C1861.45 395.001 1861.45 395.009 1861.45 395.017C1861.45 395.025 1861.45 395.033 1861.45 395.041C1861.45 395.049 1861.45 395.057 1861.45 395.065C1861.45 395.073 1861.45 395.081 1861.45 395.089C1861.45 395.097 1861.45 395.105 1861.45 395.113C1861.45 395.121 1861.45 395.129 1861.45 395.137C1861.45 395.146 1861.45 395.154 1861.45 395.162C1861.45 395.17 1861.45 395.178 1861.45 395.186C1861.45 395.194 1861.45 395.202 1861.45 395.21C1861.45 395.218 1861.45 395.226 1861.45 395.234C1861.45 395.242 1861.45 395.25 1861.45 395.258C1861.45 395.266 1861.45 395.274 1861.45 395.282C1861.45 395.29 1861.45 395.299 1861.45 395.307C1861.45 395.315 1861.45 395.323 1861.45 395.331C1861.45 395.339 1861.45 395.347 1861.45 395.355C1861.45 395.363 1861.45 395.371 1861.45 395.379C1861.45 395.387 1861.45 395.395 1861.45 395.403C1861.45 395.411 1861.45 395.419 1861.45 395.427C1861.45 395.435 1861.45 395.443 1861.45 395.451C1861.45 395.459 1861.45 395.468 1861.45 395.476C1861.45 395.484 1861.45 395.492 1861.45 395.5C1861.45 395.508 1861.45 395.516 1861.45 395.524C1861.45 395.532 1861.45 395.54 1861.45 395.548C1861.45 395.556 1861.45 395.564 1861.45 395.572C1861.45 395.58 1861.45 395.588 1861.45 395.596C1861.45 395.604 1861.45 395.612 1861.45 395.62C1861.45 395.628 1861.45 395.636 1861.45 395.645C1861.45 395.653 1861.45 395.661 1861.45 395.669C1861.45 395.677 1861.45 395.685 1861.45 395.693C1861.45 395.701 1861.45 395.709 1861.45 395.717C1861.45 395.725 1861.45 395.733 1861.45 395.741C1861.45 395.749 1861.45 395.757 1861.45 395.765C1861.45 395.773 1861.45 395.781 1861.45 395.789C1861.45 395.797 1861.45 395.805 1861.45 395.813C1861.45 395.821 1861.45 395.83 1861.45 395.838C1861.45 395.846 1861.45 395.854 1861.45 395.862C1861.45 395.87 1861.45 395.878 1861.45 395.886C1861.45 395.894 1861.45 395.902 1861.45 395.91C1861.45 395.918 1861.45 395.926 1861.45 395.934C1861.45 395.942 1861.45 395.95 1861.45 395.958C1861.45 395.966 1861.45 395.974 1861.45 395.982C1861.45 395.99 1861.45 395.998 1861.45 396.006C1861.45 396.014 1861.45 396.022 1861.45 396.031C1861.45 396.039 1861.45 396.047 1861.45 396.055C1861.45 396.063 1861.45 396.071 1861.45 396.079C1861.45 396.087 1861.45 396.095 1861.45 396.103C1861.45 396.111 1861.45 396.119 1861.45 396.127C1861.45 396.135 1861.45 396.143 1861.45 396.151C1861.45 396.159 1861.45 396.167 1861.45 396.175C1861.45 396.183 1861.45 396.191 1861.45 396.199C1861.45 396.207 1861.45 396.215 1861.45 396.223C1861.45 396.231 1861.45 396.24 1861.45 396.248C1861.45 396.256 1861.45 396.264 1861.45 396.272C1861.45 396.28 1861.45 396.288 1861.45 396.296C1861.45 396.304 1861.45 396.312 1861.45 396.32C1861.45 396.328 1861.45 396.336 1861.45 396.344C1861.45 396.352 1861.45 396.36 1861.45 396.368C1861.45 396.376 1861.45 396.384 1861.45 396.392C1861.45 396.4 1861.45 396.408 1861.45 396.416C1861.45 396.424 1861.45 396.432 1861.45 396.44C1861.45 396.448 1861.45 396.456 1861.45 396.464C1861.45 396.472 1861.45 396.481 1861.45 396.489C1861.45 396.497 1861.45 396.505 1861.45 396.513C1861.45 396.521 1861.45 396.529 1861.45 396.537C1861.45 396.545 1861.45 396.553 1861.45 396.561C1861.45 396.569 1861.45 396.577 1861.45 396.585C1861.45 396.593 1861.45 396.601 1861.45 396.609C1861.45 396.617 1861.45 396.625 1861.45 396.633C1861.45 396.641 1861.45 396.649 1861.45 396.657C1861.45 396.665 1861.45 396.673 1861.45 396.681C1861.45 396.689 1861.45 396.697 1861.45 396.705C1861.45 396.713 1861.45 396.721 1861.45 396.729C1861.45 396.737 1861.45 396.746 1861.45 396.754C1861.45 396.762 1861.45 396.77 1861.45 396.778C1861.45 396.786 1861.45 396.794 1861.45 396.802C1861.45 396.81 1861.45 396.818 1861.45 396.826C1861.45 396.834 1861.45 396.842 1861.45 396.85C1861.45 396.858 1861.45 396.866 1861.45 396.874C1861.45 396.882 1861.45 396.89 1861.45 396.898C1861.45 396.906 1861.45 396.914 1861.45 396.922C1861.45 396.93 1861.45 396.938 1861.45 396.946C1861.45 396.954 1861.45 396.962 1861.45 396.97C1861.45 396.978 1861.45 396.986 1861.45 396.994C1861.45 397.002 1861.45 397.01 1861.45 397.018C1861.45 397.026 1861.45 397.034 1861.45 397.042C1861.45 397.05 1861.45 397.059 1861.45 397.067C1861.45 397.075 1861.45 397.083 1861.45 397.091C1861.45 397.099 1861.45 397.107 1861.45 397.115C1861.45 397.123 1861.45 397.131 1861.45 397.139C1861.45 397.147 1861.45 397.155 1861.45 397.163C1861.45 397.171 1861.45 397.179 1861.45 397.187C1861.45 397.195 1861.45 397.203 1861.45 397.211C1861.45 397.219 1861.45 397.227 1861.45 397.235C1861.45 397.243 1861.45 397.251 1861.45 397.259C1861.45 397.267 1861.45 397.275 1861.45 397.283C1861.45 397.291 1861.45 397.299 1861.45 397.307C1861.45 397.315 1861.45 397.323 1861.45 397.331C1861.45 397.339 1861.45 397.347 1861.45 397.355C1861.45 397.363 1861.45 397.371 1861.45 397.379C1861.45 397.387 1861.45 397.395 1861.45 397.403C1861.45 397.411 1861.45 397.419 1861.45 397.427C1861.45 397.435 1861.45 397.444 1861.45 397.452C1861.45 397.46 1861.45 397.468 1861.45 397.476C1861.45 397.484 1861.45 397.492 1861.45 397.5C1861.45 397.508 1861.45 397.516 1861.45 397.524C1861.45 397.532 1861.45 397.54 1861.45 397.548C1861.45 397.556 1861.45 397.564 1861.45 397.572C1861.45 397.58 1861.45 397.588 1861.45 397.596C1861.45 397.604 1861.45 397.612 1861.45 397.62C1861.45 397.628 1861.45 397.636 1861.45 397.644C1861.45 397.652 1861.45 397.66 1861.45 397.668C1861.45 397.676 1861.45 397.684 1861.45 397.692C1861.45 397.7 1861.45 397.708 1861.45 397.716C1861.45 397.724 1861.45 397.732 1861.45 397.74C1861.45 397.748 1861.45 397.756 1861.45 397.764C1861.45 397.772 1861.45 397.78 1861.45 397.788C1861.45 397.796 1861.45 397.804 1861.45 397.812C1861.45 397.82 1861.45 397.828 1861.45 397.836C1861.45 397.844 1861.45 397.852 1861.45 397.86C1861.45 397.868 1861.45 397.876 1861.45 397.884C1861.45 397.892 1861.45 397.9 1861.45 397.908C1861.45 397.916 1861.45 397.924 1861.45 397.932C1861.45 397.94 1861.45 397.948 1861.45 397.956C1861.45 397.964 1861.45 397.972 1861.45 397.98C1861.45 397.988 1861.45 397.996 1861.45 398.004C1861.45 398.012 1861.45 398.02 1861.45 398.028C1861.45 398.036 1861.45 398.044 1861.45 398.052C1861.45 398.061 1861.45 398.069 1861.45 398.077C1861.45 398.085 1861.45 398.093 1861.45 398.101C1861.45 398.109 1861.45 398.117 1861.45 398.125C1861.45 398.133 1861.45 398.141 1861.45 398.149C1861.45 398.157 1861.45 398.165 1861.45 398.173C1861.45 398.181 1861.45 398.189 1861.45 398.197C1861.45 398.205 1861.45 398.213 1861.45 398.221C1861.45 398.229 1861.45 398.237 1861.45 398.245C1861.45 398.253 1861.45 398.261 1861.45 398.269C1861.45 398.277 1861.45 398.285 1861.45 398.293C1861.45 398.301 1861.45 398.309 1861.45 398.317C1861.45 398.325 1861.45 398.333 1861.45 398.341C1861.45 398.349 1861.45 398.357 1861.45 398.365C1861.45 398.373 1861.45 398.381 1861.45 398.389C1861.45 398.397 1861.45 398.405 1861.45 398.413C1861.45 398.421 1861.45 398.429 1861.45 398.437C1861.45 398.445 1861.45 398.453 1861.45 398.461C1861.45 398.469 1861.45 398.477 1861.45 398.485C1861.45 398.493 1861.45 398.501 1861.45 398.509C1861.45 398.517 1861.45 398.525 1861.45 398.533C1861.45 398.541 1861.45 398.549 1861.45 398.557C1861.45 398.565 1861.45 398.573 1861.45 398.581C1861.45 398.589 1861.45 398.597 1861.45 398.605C1861.45 398.613 1861.45 398.621 1861.45 398.629C1861.45 398.637 1861.45 398.645 1861.45 398.653C1861.45 398.661 1861.45 398.669 1861.45 398.677C1861.45 398.685 1861.45 398.693 1861.45 398.701C1861.45 398.709 1861.45 398.717 1861.45 398.725C1861.45 398.733 1861.45 398.741 1861.45 398.749C1861.45 398.757 1861.45 398.765 1861.45 398.773C1861.45 398.781 1861.45 398.789 1861.45 398.797C1861.45 398.805 1861.45 398.813 1861.45 398.821C1861.45 398.829 1861.45 398.837 1861.45 398.845C1861.45 398.853 1861.45 398.861 1861.45 398.869C1861.45 398.877 1861.45 398.885 1861.45 398.893C1861.45 398.901 1861.45 398.909 1861.45 398.917C1861.45 398.925 1861.45 398.933 1861.45 398.941C1861.45 398.949 1861.45 398.957 1861.45 398.965C1861.45 398.973 1861.45 398.981 1861.45 398.989C1861.45 398.997 1861.45 399.005 1861.45 399.013C1861.45 399.021 1861.45 399.029 1861.45 399.037C1861.45 399.045 1861.45 399.053 1861.45 399.061C1861.45 399.069 1861.45 399.077 1861.45 399.085C1861.45 399.093 1861.45 399.101 1861.45 399.109C1861.45 399.117 1861.45 399.125 1861.45 399.133C1861.45 399.141 1861.45 399.149 1861.45 399.156C1861.45 399.164 1861.45 399.172 1861.45 399.18H1863.45ZM1863.45 386.786C1863.55 382.6 1863.64 378.796 1863.74 375.373L1861.74 375.317C1861.64 378.744 1861.55 382.552 1861.45 386.74L1863.45 386.786ZM1863.74 375.373C1863.83 371.946 1863.88 369.46 1863.88 367.923H1861.88C1861.88 369.43 1861.83 371.892 1861.74 375.317L1863.74 375.373ZM1862.88 366.923H1861.74V368.923H1862.88V366.923ZM1860.76 367.727C1860.48 369.134 1860 371.212 1859.34 373.968L1861.28 374.438C1861.95 371.675 1862.43 369.566 1862.72 368.119L1860.76 367.727ZM1859.33 373.993C1858.77 376.643 1858.1 379.436 1857.34 382.374L1859.28 382.874C1860.05 379.912 1860.71 377.092 1861.29 374.412L1859.33 373.993ZM1857.34 382.397C1856.67 385.243 1856.06 387.705 1855.49 389.783L1857.42 390.309C1858 388.2 1858.62 385.714 1859.29 382.851L1857.34 382.397ZM1855.49 389.776L1841.22 440.73L1843.15 441.27L1857.42 390.316L1855.49 389.776ZM1842.18 440H1821.63V442H1842.18V440ZM1822.59 440.728L1808.18 389.774L1806.25 390.318L1820.67 441.272L1822.59 440.728ZM1808.19 389.803C1807.71 387.9 1807.14 385.617 1806.47 382.952L1804.53 383.437C1805.2 386.102 1805.77 388.385 1806.25 390.288L1808.19 389.803ZM1806.47 382.952C1805.81 380.291 1805.14 377.582 1804.48 374.825L1802.53 375.294C1803.2 378.056 1803.87 380.77 1804.53 383.437L1806.47 382.952ZM1804.48 374.857C1803.91 372.089 1803.38 369.744 1802.9 367.823L1800.96 368.308C1801.44 370.194 1801.96 372.511 1802.53 375.262L1804.48 374.857ZM1801.93 367.066H1800.79V369.066H1801.93V367.066ZM1799.79 368.104C1799.89 370.573 1799.98 373.613 1800.08 377.227L1802.08 377.174C1801.98 373.556 1801.89 370.507 1801.79 368.027L1799.79 368.104ZM1800.08 377.227C1800.17 380.747 1800.27 384.457 1800.36 388.357L1802.36 388.309C1802.27 384.407 1802.17 380.695 1802.08 377.173L1800.08 377.227ZM1800.36 388.358C1800.46 392.157 1800.51 395.764 1800.51 399.18H1802.51C1802.51 395.746 1802.46 392.122 1802.36 388.308L1800.36 388.358ZM1800.51 399.18V441H1802.51V399.18H1800.51ZM1801.51 440H1778.24V442H1801.51V440Z" fill="url(#paint1_linear_103_18835)" mask="url(#path-3-outside-1_103_18835)"/>
</g>
<defs>
<linearGradient id="paint0_linear_103_18835" x1="23.9004" y1="478.048" x2="1076.15" y2="-701.183" gradientUnits="userSpaceOnUse">
<stop stop-color="#0F0D0D"/>
<stop offset="0.8" stop-color="#304646"/>
</linearGradient>
<linearGradient id="paint1_linear_103_18835" x1="1454.3" y1="341" x2="1936.83" y2="402.592" gradientUnits="userSpaceOnUse">
<stop stop-color="#FFC631"/>
<stop offset="1" stop-color="#CA9301"/>
</linearGradient>
</defs>
</svg>
