<svg width="151" height="37" viewBox="0 0 151 37" fill="none" xmlns="http://www.w3.org/2000/svg">
<mask id="path-1-outside-1_270_2310" maskUnits="userSpaceOnUse" x="-1" y="0" width="152" height="37" fill="black">
<rect fill="white" x="-1" width="152" height="37"/>
<path d="M11.8993 36V8.46881H0.529974V0.974212H32.3948V8.46881H21.0254V36H11.8993ZM37.6361 36V0.974212H66.5439V8.11193H46.7622V14.6888H64.0457V21.6736H46.7622V28.8623H66.9008V36H37.6361ZM69.767 36L82.9208 0.974212H93.8823L107.036 36H97.2982L95.2079 29.9329H81.2383L79.148 36H69.767ZM83.4306 23.1011H92.9646L90.4664 15.7085C90.3304 15.3346 90.1605 14.8758 89.9565 14.3319C89.7866 13.7541 89.5997 13.1593 89.3957 12.5475C89.2258 11.9017 89.0558 11.2559 88.8859 10.6101C88.7159 9.96433 88.546 9.40351 88.376 8.92767H88.0192C87.8832 9.57346 87.6793 10.3042 87.4074 11.12C87.1694 11.9357 86.9145 12.7514 86.6426 13.5672C86.4047 14.3829 86.1837 15.0967 85.9798 15.7085L83.4306 23.1011ZM111.222 36V0.974212H124.528L128.76 16.5752C128.93 17.119 129.134 17.8668 129.372 18.8185C129.61 19.7362 129.848 20.7049 130.085 21.7246C130.323 22.7442 130.527 23.662 130.697 24.4777H131.105C131.241 23.8319 131.411 23.0671 131.615 22.1834C131.819 21.2657 132.04 20.314 132.278 19.3283C132.516 18.3087 132.737 17.374 132.941 16.5242L137.223 0.974212H150.173V36H141.302V21.0618C141.302 19.6002 141.302 18.1217 141.302 16.6262C141.336 15.1307 141.37 13.7711 141.404 12.5475C141.438 11.3239 141.455 10.4402 141.455 9.89636H141.047C140.945 10.4062 140.775 11.154 140.537 12.1396C140.333 13.0913 140.095 14.094 139.823 15.1477C139.585 16.1673 139.365 17.0511 139.161 17.7988L134.062 36H126.721L121.571 17.7988C121.401 17.119 121.197 16.3033 120.959 15.3516C120.721 14.3999 120.484 13.4312 120.246 12.4455C120.042 11.4599 119.855 10.6271 119.685 9.94734H119.277C119.311 10.8311 119.345 11.9187 119.379 13.2103C119.413 14.4679 119.447 15.7935 119.481 17.187C119.515 18.5466 119.532 19.8382 119.532 21.0618V36H111.222Z"/>
</mask>
<path d="M11.8993 36H11.3683V36.5311H11.8993V36ZM11.8993 8.46881H12.4304V7.93773H11.8993V8.46881ZM0.529968 8.46881H-0.00109863V8.99989H0.529968V8.46881ZM0.529968 0.974212V0.443132H-0.00109863V0.974212H0.529968ZM32.3948 0.974212H32.9259V0.443132H32.3948V0.974212ZM32.3948 8.46881V8.99989H32.9259V8.46881H32.3948ZM21.0254 8.46881V7.93773H20.4943V8.46881H21.0254ZM21.0254 36V36.5311H21.5565V36H21.0254ZM12.4304 36V8.46881H11.3683V36H12.4304ZM11.8993 7.93773H0.529968V8.99989H11.8993V7.93773ZM1.06105 8.46881V0.974212H-0.00109863V8.46881H1.06105ZM0.529968 1.50529H32.3948V0.443132H0.529968V1.50529ZM31.8637 0.974212V8.46881H32.9259V0.974212H31.8637ZM32.3948 7.93773H21.0254V8.99989H32.3948V7.93773ZM20.4943 8.46881V36H21.5565V8.46881H20.4943ZM21.0254 35.4689H11.8993V36.5311H21.0254V35.4689ZM37.6361 36H37.1051V36.5311H37.6361V36ZM37.6361 0.974212V0.443132H37.1051V0.974212H37.6361ZM66.5439 0.974212H67.075V0.443132H66.5439V0.974212ZM66.5439 8.11193V8.64301H67.075V8.11193H66.5439ZM46.7622 8.11193V7.58085H46.2311V8.11193H46.7622ZM46.7622 14.6888H46.2311V15.2199H46.7622V14.6888ZM64.0457 14.6888H64.5768V14.1577H64.0457V14.6888ZM64.0457 21.6736V22.2047H64.5768V21.6736H64.0457ZM46.7622 21.6736V21.1425H46.2311V21.6736H46.7622ZM46.7622 28.8623H46.2311V29.3934H46.7622V28.8623ZM66.9008 28.8623H67.4318V28.3312H66.9008V28.8623ZM66.9008 36V36.5311H67.4318V36H66.9008ZM38.1672 36V0.974212H37.1051V36H38.1672ZM37.6361 1.50529H66.5439V0.443132H37.6361V1.50529ZM66.0128 0.974212V8.11193H67.075V0.974212H66.0128ZM66.5439 7.58085H46.7622V8.64301H66.5439V7.58085ZM46.2311 8.11193V14.6888H47.2933V8.11193H46.2311ZM46.7622 15.2199H64.0457V14.1577H46.7622V15.2199ZM63.5146 14.6888V21.6736H64.5768V14.6888H63.5146ZM64.0457 21.1425H46.7622V22.2047H64.0457V21.1425ZM46.2311 21.6736V28.8623H47.2933V21.6736H46.2311ZM46.7622 29.3934H66.9008V28.3312H46.7622V29.3934ZM66.3697 28.8623V36H67.4318V28.8623H66.3697ZM66.9008 35.4689H37.6361V36.5311H66.9008V35.4689ZM69.767 36L69.2698 35.8133L69.0003 36.5311H69.767V36ZM82.9208 0.974212V0.443132H82.5529L82.4236 0.787499L82.9208 0.974212ZM93.8823 0.974212L94.3795 0.787499L94.2501 0.443132H93.8823V0.974212ZM107.036 36V36.5311H107.803L107.533 35.8133L107.036 36ZM97.2982 36L96.7961 36.173L96.9194 36.5311H97.2982V36ZM95.2079 29.9329L95.71 29.7599L95.5866 29.4019H95.2079V29.9329ZM81.2383 29.9329V29.4019H80.8596L80.7362 29.7599L81.2383 29.9329ZM79.148 36V36.5311H79.5267L79.6501 36.173L79.148 36ZM83.4306 23.1011L82.9286 22.928L82.6857 23.6322H83.4306V23.1011ZM92.9646 23.1011V23.6322H93.7046L93.4677 22.9311L92.9646 23.1011ZM90.4664 15.7085L90.9696 15.5384L90.9655 15.527L90.4664 15.7085ZM89.9565 14.3319L89.447 14.4818L89.4525 14.5003L89.4593 14.5184L89.9565 14.3319ZM89.3957 12.5475L88.8821 12.6827L88.8865 12.6992L88.8919 12.7155L89.3957 12.5475ZM88.8859 10.6101L88.3723 10.7453L88.8859 10.6101ZM88.376 8.92767L88.8762 8.74904L88.7503 8.39659H88.376V8.92767ZM88.0192 8.92767V8.39659H87.5882L87.4995 8.81826L88.0192 8.92767ZM87.4073 11.12L86.9035 10.952L86.9003 10.9616L86.8975 10.9713L87.4073 11.12ZM86.6426 13.5672L86.1388 13.3992L86.1356 13.4088L86.1328 13.4185L86.6426 13.5672ZM85.9798 15.7085L86.4819 15.8816L86.4836 15.8764L85.9798 15.7085ZM70.2642 36.1867L83.418 1.16092L82.4236 0.787499L69.2698 35.8133L70.2642 36.1867ZM82.9208 1.50529H93.8823V0.443132H82.9208V1.50529ZM93.3851 1.16092L106.539 36.1867L107.533 35.8133L94.3795 0.787499L93.3851 1.16092ZM107.036 35.4689H97.2982V36.5311H107.036V35.4689ZM97.8003 35.827L95.71 29.7599L94.7057 30.1059L96.7961 36.173L97.8003 35.827ZM95.2079 29.4019H81.2383V30.464H95.2079V29.4019ZM80.7362 29.7599L78.6459 35.827L79.6501 36.173L81.7404 30.1059L80.7362 29.7599ZM79.148 35.4689H69.767V36.5311H79.148V35.4689ZM83.4306 23.6322H92.9646V22.57H83.4306V23.6322ZM93.4677 22.9311L90.9695 15.5385L89.9632 15.8785L92.4614 23.2712L93.4677 22.9311ZM90.9655 15.527C90.8287 15.1509 90.6581 14.6903 90.4538 14.1455L89.4593 14.5184C89.6628 15.0613 89.8321 15.5183 89.9673 15.89L90.9655 15.527ZM90.466 14.1821C90.2942 13.5978 90.1053 12.9969 89.8995 12.3796L88.8919 12.7155C89.094 13.3217 89.279 13.9104 89.447 14.4818L90.466 14.1821ZM89.9093 12.4124C89.7394 11.7666 89.5694 11.1208 89.3995 10.475L88.3723 10.7453C88.5422 11.3911 88.7122 12.0369 88.8821 12.6827L89.9093 12.4124ZM89.3995 10.475C89.2268 9.81886 89.0526 9.24287 88.8762 8.74904L87.8759 9.10629C88.0394 9.56416 88.2051 10.1098 88.3723 10.7453L89.3995 10.475ZM88.376 8.39659H88.0192V9.45875H88.376V8.39659ZM87.4995 8.81826C87.3687 9.43938 87.1708 10.1501 86.9035 10.952L87.9112 11.2879C88.1877 10.4584 88.3977 9.70754 88.5388 9.03708L87.4995 8.81826ZM86.8975 10.9713C86.6615 11.7805 86.4086 12.5898 86.1388 13.3992L87.1464 13.7351C87.4204 12.9131 87.6774 12.0909 87.9172 11.2687L86.8975 10.9713ZM86.1328 13.4185C85.8962 14.2297 85.6772 14.9368 85.476 15.5406L86.4836 15.8764C86.6902 15.2566 86.9132 14.5362 87.1524 13.7159L86.1328 13.4185ZM85.4777 15.5354L82.9286 22.928L83.9327 23.2743L86.4819 15.8816L85.4777 15.5354ZM111.222 36H110.69V36.5311H111.222V36ZM111.222 0.974212V0.443132H110.69V0.974212H111.222ZM124.528 0.974212L125.041 0.835184L124.934 0.443132H124.528V0.974212ZM128.76 16.5752L128.247 16.7142L128.25 16.724L128.253 16.7336L128.76 16.5752ZM129.372 18.8185L128.856 18.9473L128.858 18.9518L129.372 18.8185ZM130.697 24.4777L130.177 24.586L130.265 25.0088H130.697V24.4777ZM131.105 24.4777V25.0088H131.536L131.625 24.5871L131.105 24.4777ZM131.615 22.1834L132.132 22.3028L132.133 22.2986L131.615 22.1834ZM132.278 19.3283L132.794 19.453L132.795 19.449L132.278 19.3283ZM132.941 16.5242L132.429 16.3832L132.426 16.3917L132.424 16.4003L132.941 16.5242ZM137.223 0.974212V0.443132H136.819L136.711 0.833198L137.223 0.974212ZM150.173 0.974212H150.704V0.443132H150.173V0.974212ZM150.173 36V36.5311H150.704V36H150.173ZM141.302 36H140.771V36.5311H141.302V36ZM141.302 16.6262L140.771 16.6141V16.6262H141.302ZM141.404 12.5475L141.935 12.5623V12.5623L141.404 12.5475ZM141.455 9.89636H141.986V9.36528H141.455V9.89636ZM141.047 9.89636V9.36528H140.612L140.526 9.7922L141.047 9.89636ZM140.537 12.1396L140.021 12.015L140.018 12.0284L140.537 12.1396ZM139.823 15.1477L139.309 15.0149L139.306 15.027L139.823 15.1477ZM139.161 17.7988L139.672 17.9421L139.673 17.9386L139.161 17.7988ZM134.062 36V36.5311H134.465L134.574 36.1432L134.062 36ZM126.721 36L126.21 36.1446L126.319 36.5311H126.721V36ZM121.571 17.7988L121.056 17.9276L121.058 17.9355L121.06 17.9434L121.571 17.7988ZM120.959 15.3516L121.475 15.2228L120.959 15.3516ZM120.246 12.4455L119.726 12.5531L119.727 12.5617L119.729 12.5702L120.246 12.4455ZM119.685 9.94734L120.2 9.81853L120.099 9.41626H119.685V9.94734ZM119.277 9.94734V9.41626H118.725L118.746 9.96775L119.277 9.94734ZM119.379 13.2103L118.848 13.2243L118.848 13.2246L119.379 13.2103ZM119.481 17.187L118.95 17.2V17.2003L119.481 17.187ZM119.532 36V36.5311H120.063V36H119.532ZM111.753 36V0.974212H110.69V36H111.753ZM111.222 1.50529H124.528V0.443132H111.222V1.50529ZM124.016 1.11324L128.247 16.7142L129.272 16.4362L125.041 0.835184L124.016 1.11324ZM128.253 16.7336C128.418 17.2632 128.62 17.9996 128.856 18.9473L129.887 18.6897C129.648 17.734 129.441 16.9749 129.267 16.4168L128.253 16.7336ZM128.858 18.9518C129.094 19.8649 129.331 20.8294 129.568 21.8452L130.603 21.6039C130.364 20.5804 130.125 19.6075 129.886 18.6852L128.858 18.9518ZM129.568 21.8452C129.805 22.8618 130.008 23.7753 130.177 24.586L131.217 24.3694C131.046 23.5486 130.841 22.6267 130.603 21.6039L129.568 21.8452ZM130.697 25.0088H131.105V23.9466H130.697V25.0088ZM131.625 24.5871C131.76 23.9456 131.929 23.1844 132.132 22.3028L131.098 22.064C130.893 22.9499 130.722 23.7182 130.585 24.3683L131.625 24.5871ZM132.133 22.2986C132.337 21.3843 132.557 20.4357 132.794 19.4529L131.762 19.2037C131.523 20.1923 131.301 21.1471 131.097 22.0682L132.133 22.2986ZM132.795 19.449C133.033 18.4302 133.253 17.4966 133.457 16.6482L132.424 16.4003C132.22 17.2513 131.999 18.1871 131.761 19.2077L132.795 19.449ZM133.453 16.6652L137.735 1.11523L136.711 0.833198L132.429 16.3832L133.453 16.6652ZM137.223 1.50529H150.173V0.443132H137.223V1.50529ZM149.642 0.974212V36H150.704V0.974212H149.642ZM150.173 35.4689H141.302V36.5311H150.173V35.4689ZM141.833 36V21.0618H140.771V36H141.833ZM141.833 21.0618C141.833 21.0589 141.833 21.0561 141.833 21.0532C141.833 21.0504 141.833 21.0475 141.833 21.0447C141.833 21.0418 141.833 21.0389 141.833 21.0361C141.833 21.0332 141.833 21.0304 141.833 21.0275C141.833 21.0247 141.833 21.0218 141.833 21.019C141.833 21.0161 141.833 21.0132 141.833 21.0104C141.833 21.0075 141.833 21.0047 141.833 21.0018C141.833 20.999 141.833 20.9961 141.833 20.9933C141.833 20.9904 141.833 20.9875 141.833 20.9847C141.833 20.9818 141.833 20.979 141.833 20.9761C141.833 20.9733 141.833 20.9704 141.833 20.9676C141.833 20.9647 141.833 20.9618 141.833 20.959C141.833 20.9561 141.833 20.9533 141.833 20.9504C141.833 20.9476 141.833 20.9447 141.833 20.9419C141.833 20.939 141.833 20.9361 141.833 20.9333C141.833 20.9304 141.833 20.9276 141.833 20.9247C141.833 20.9219 141.833 20.919 141.833 20.9161C141.833 20.9133 141.833 20.9104 141.833 20.9076C141.833 20.9047 141.833 20.9019 141.833 20.899C141.833 20.8961 141.833 20.8933 141.833 20.8904C141.833 20.8876 141.833 20.8847 141.833 20.8819C141.833 20.879 141.833 20.8761 141.833 20.8733C141.833 20.8704 141.833 20.8676 141.833 20.8647C141.833 20.8619 141.833 20.859 141.833 20.8561C141.833 20.8533 141.833 20.8504 141.833 20.8476C141.833 20.8447 141.833 20.8419 141.833 20.839C141.833 20.8361 141.833 20.8333 141.833 20.8304C141.833 20.8276 141.833 20.8247 141.833 20.8218C141.833 20.819 141.833 20.8161 141.833 20.8133C141.833 20.8104 141.833 20.8076 141.833 20.8047C141.833 20.8018 141.833 20.799 141.833 20.7961C141.833 20.7933 141.833 20.7904 141.833 20.7875C141.833 20.7847 141.833 20.7818 141.833 20.779C141.833 20.7761 141.833 20.7733 141.833 20.7704C141.833 20.7675 141.833 20.7647 141.833 20.7618C141.833 20.759 141.833 20.7561 141.833 20.7532C141.833 20.7504 141.833 20.7475 141.833 20.7447C141.833 20.7418 141.833 20.7389 141.833 20.7361C141.833 20.7332 141.833 20.7304 141.833 20.7275C141.833 20.7246 141.833 20.7218 141.833 20.7189C141.833 20.7161 141.833 20.7132 141.833 20.7103C141.833 20.7075 141.833 20.7046 141.833 20.7018C141.833 20.6989 141.833 20.696 141.833 20.6932C141.833 20.6903 141.833 20.6875 141.833 20.6846C141.833 20.6817 141.833 20.6789 141.833 20.676C141.833 20.6732 141.833 20.6703 141.833 20.6674C141.833 20.6646 141.833 20.6617 141.833 20.6589C141.833 20.656 141.833 20.6531 141.833 20.6503C141.833 20.6474 141.833 20.6446 141.833 20.6417C141.833 20.6388 141.833 20.636 141.833 20.6331C141.833 20.6303 141.833 20.6274 141.833 20.6245C141.833 20.6217 141.833 20.6188 141.833 20.6159C141.833 20.6131 141.833 20.6102 141.833 20.6074C141.833 20.6045 141.833 20.6016 141.833 20.5988C141.833 20.5959 141.833 20.5931 141.833 20.5902C141.833 20.5873 141.833 20.5845 141.833 20.5816C141.833 20.5787 141.833 20.5759 141.833 20.573C141.833 20.5702 141.833 20.5673 141.833 20.5644C141.833 20.5616 141.833 20.5587 141.833 20.5558C141.833 20.553 141.833 20.5501 141.833 20.5473C141.833 20.5444 141.833 20.5415 141.833 20.5387C141.833 20.5358 141.833 20.5329 141.833 20.5301C141.833 20.5272 141.833 20.5244 141.833 20.5215C141.833 20.5186 141.833 20.5158 141.833 20.5129C141.833 20.51 141.833 20.5072 141.833 20.5043C141.833 20.5015 141.833 20.4986 141.833 20.4957C141.833 20.4929 141.833 20.49 141.833 20.4871C141.833 20.4843 141.833 20.4814 141.833 20.4786C141.833 20.4757 141.833 20.4728 141.833 20.47C141.833 20.4671 141.833 20.4642 141.833 20.4614C141.833 20.4585 141.833 20.4556 141.833 20.4528C141.833 20.4499 141.833 20.4471 141.833 20.4442C141.833 20.4413 141.833 20.4385 141.833 20.4356C141.833 20.4327 141.833 20.4299 141.833 20.427C141.833 20.4241 141.833 20.4213 141.833 20.4184C141.833 20.4155 141.833 20.4127 141.833 20.4098C141.833 20.407 141.833 20.4041 141.833 20.4012C141.833 20.3984 141.833 20.3955 141.833 20.3926C141.833 20.3898 141.833 20.3869 141.833 20.384C141.833 20.3812 141.833 20.3783 141.833 20.3754C141.833 20.3726 141.833 20.3697 141.833 20.3668C141.833 20.364 141.833 20.3611 141.833 20.3583C141.833 20.3554 141.833 20.3525 141.833 20.3497C141.833 20.3468 141.833 20.3439 141.833 20.3411C141.833 20.3382 141.833 20.3353 141.833 20.3325C141.833 20.3296 141.833 20.3267 141.833 20.3239C141.833 20.321 141.833 20.3181 141.833 20.3153C141.833 20.3124 141.833 20.3095 141.833 20.3067C141.833 20.3038 141.833 20.3009 141.833 20.2981C141.833 20.2952 141.833 20.2923 141.833 20.2895C141.833 20.2866 141.833 20.2837 141.833 20.2809C141.833 20.278 141.833 20.2751 141.833 20.2723C141.833 20.2694 141.833 20.2665 141.833 20.2637C141.833 20.2608 141.833 20.2579 141.833 20.2551C141.833 20.2522 141.833 20.2493 141.833 20.2465C141.833 20.2436 141.833 20.2407 141.833 20.2379C141.833 20.235 141.833 20.2321 141.833 20.2293C141.833 20.2264 141.833 20.2235 141.833 20.2207C141.833 20.2178 141.833 20.2149 141.833 20.2121C141.833 20.2092 141.833 20.2063 141.833 20.2035C141.833 20.2006 141.833 20.1977 141.833 20.1949C141.833 20.192 141.833 20.1891 141.833 20.1863C141.833 20.1834 141.833 20.1805 141.833 20.1777C141.833 20.1748 141.833 20.1719 141.833 20.1691C141.833 20.1662 141.833 20.1633 141.833 20.1605C141.833 20.1576 141.833 20.1547 141.833 20.1518C141.833 20.149 141.833 20.1461 141.833 20.1432C141.833 20.1404 141.833 20.1375 141.833 20.1346C141.833 20.1318 141.833 20.1289 141.833 20.126C141.833 20.1232 141.833 20.1203 141.833 20.1174C141.833 20.1146 141.833 20.1117 141.833 20.1088C141.833 20.1059 141.833 20.1031 141.833 20.1002C141.833 20.0973 141.833 20.0945 141.833 20.0916C141.833 20.0887 141.833 20.0859 141.833 20.083C141.833 20.0801 141.833 20.0773 141.833 20.0744C141.833 20.0715 141.833 20.0686 141.833 20.0658C141.833 20.0629 141.833 20.06 141.833 20.0572C141.833 20.0543 141.833 20.0514 141.833 20.0486C141.833 20.0457 141.833 20.0428 141.833 20.04C141.833 20.0371 141.833 20.0342 141.833 20.0313C141.833 20.0285 141.833 20.0256 141.833 20.0227C141.833 20.0199 141.833 20.017 141.833 20.0141C141.833 20.0112 141.833 20.0084 141.833 20.0055C141.833 20.0026 141.833 19.9998 141.833 19.9969C141.833 19.994 141.833 19.9912 141.833 19.9883C141.833 19.9854 141.833 19.9825 141.833 19.9797C141.833 19.9768 141.833 19.9739 141.833 19.9711C141.833 19.9682 141.833 19.9653 141.833 19.9624C141.833 19.9596 141.833 19.9567 141.833 19.9538C141.833 19.951 141.833 19.9481 141.833 19.9452C141.833 19.9423 141.833 19.9395 141.833 19.9366C141.833 19.9337 141.833 19.9309 141.833 19.928C141.833 19.9251 141.833 19.9222 141.833 19.9194C141.833 19.9165 141.833 19.9136 141.833 19.9108C141.833 19.9079 141.833 19.905 141.833 19.9021C141.833 19.8993 141.833 19.8964 141.833 19.8935C141.833 19.8907 141.833 19.8878 141.833 19.8849C141.833 19.882 141.833 19.8792 141.833 19.8763C141.833 19.8734 141.833 19.8705 141.833 19.8677C141.833 19.8648 141.833 19.8619 141.833 19.8591C141.833 19.8562 141.833 19.8533 141.833 19.8504C141.833 19.8476 141.833 19.8447 141.833 19.8418C141.833 19.8389 141.833 19.8361 141.833 19.8332C141.833 19.8303 141.833 19.8275 141.833 19.8246C141.833 19.8217 141.833 19.8188 141.833 19.816C141.833 19.8131 141.833 19.8102 141.833 19.8073C141.833 19.8045 141.833 19.8016 141.833 19.7987C141.833 19.7958 141.833 19.793 141.833 19.7901C141.833 19.7872 141.833 19.7844 141.833 19.7815C141.833 19.7786 141.833 19.7757 141.833 19.7729C141.833 19.77 141.833 19.7671 141.833 19.7642C141.833 19.7614 141.833 19.7585 141.833 19.7556C141.833 19.7527 141.833 19.7499 141.833 19.747C141.833 19.7441 141.833 19.7412 141.833 19.7384C141.833 19.7355 141.833 19.7326 141.833 19.7297C141.833 19.7269 141.833 19.724 141.833 19.7211C141.833 19.7182 141.833 19.7154 141.833 19.7125C141.833 19.7096 141.833 19.7067 141.833 19.7039C141.833 19.701 141.833 19.6981 141.833 19.6952C141.833 19.6924 141.833 19.6895 141.833 19.6866C141.833 19.6837 141.833 19.6809 141.833 19.678C141.833 19.6751 141.833 19.6722 141.833 19.6694C141.833 19.6665 141.833 19.6636 141.833 19.6607C141.833 19.6579 141.833 19.655 141.833 19.6521C141.833 19.6492 141.833 19.6464 141.833 19.6435C141.833 19.6406 141.833 19.6377 141.833 19.6349C141.833 19.632 141.833 19.6291 141.833 19.6262C141.833 19.6234 141.833 19.6205 141.833 19.6176C141.833 19.6147 141.833 19.6118 141.833 19.609C141.833 19.6061 141.833 19.6032 141.833 19.6003C141.833 19.5975 141.833 19.5946 141.833 19.5917C141.833 19.5888 141.833 19.586 141.833 19.5831C141.833 19.5802 141.833 19.5773 141.833 19.5744C141.833 19.5716 141.833 19.5687 141.833 19.5658C141.833 19.5629 141.833 19.5601 141.833 19.5572C141.833 19.5543 141.833 19.5514 141.833 19.5486C141.833 19.5457 141.833 19.5428 141.833 19.5399C141.833 19.537 141.833 19.5342 141.833 19.5313C141.833 19.5284 141.833 19.5255 141.833 19.5227C141.833 19.5198 141.833 19.5169 141.833 19.514C141.833 19.5111 141.833 19.5083 141.833 19.5054C141.833 19.5025 141.833 19.4996 141.833 19.4968C141.833 19.4939 141.833 19.491 141.833 19.4881C141.833 19.4852 141.833 19.4824 141.833 19.4795C141.833 19.4766 141.833 19.4737 141.833 19.4708C141.833 19.468 141.833 19.4651 141.833 19.4622C141.833 19.4593 141.833 19.4565 141.833 19.4536C141.833 19.4507 141.833 19.4478 141.833 19.4449C141.833 19.4421 141.833 19.4392 141.833 19.4363C141.833 19.4334 141.833 19.4305 141.833 19.4277C141.833 19.4248 141.833 19.4219 141.833 19.419C141.833 19.4161 141.833 19.4133 141.833 19.4104C141.833 19.4075 141.833 19.4046 141.833 19.4018C141.833 19.3989 141.833 19.396 141.833 19.3931C141.833 19.3902 141.833 19.3874 141.833 19.3845C141.833 19.3816 141.833 19.3787 141.833 19.3758C141.833 19.373 141.833 19.3701 141.833 19.3672C141.833 19.3643 141.833 19.3614 141.833 19.3586C141.833 19.3557 141.833 19.3528 141.833 19.3499C141.833 19.347 141.833 19.3442 141.833 19.3413C141.833 19.3384 141.833 19.3355 141.833 19.3326C141.833 19.3297 141.833 19.3269 141.833 19.324C141.833 19.3211 141.833 19.3182 141.833 19.3153C141.833 19.3125 141.833 19.3096 141.833 19.3067C141.833 19.3038 141.833 19.3009 141.833 19.2981C141.833 19.2952 141.833 19.2923 141.833 19.2894C141.833 19.2865 141.833 19.2837 141.833 19.2808C141.833 19.2779 141.833 19.275 141.833 19.2721C141.833 19.2692 141.833 19.2664 141.833 19.2635C141.833 19.2606 141.833 19.2577 141.833 19.2548C141.833 19.252 141.833 19.2491 141.833 19.2462C141.833 19.2433 141.833 19.2404 141.833 19.2375C141.833 19.2347 141.833 19.2318 141.833 19.2289C141.833 19.226 141.833 19.2231 141.833 19.2203C141.833 19.2174 141.833 19.2145 141.833 19.2116C141.833 19.2087 141.833 19.2058 141.833 19.203C141.833 19.2001 141.833 19.1972 141.833 19.1943C141.833 19.1914 141.833 19.1885 141.833 19.1857C141.833 19.1828 141.833 19.1799 141.833 19.177C141.833 19.1741 141.833 19.1712 141.833 19.1684C141.833 19.1655 141.833 19.1626 141.833 19.1597C141.833 19.1568 141.833 19.1539 141.833 19.1511C141.833 19.1482 141.833 19.1453 141.833 19.1424C141.833 19.1395 141.833 19.1366 141.833 19.1338C141.833 19.1309 141.833 19.128 141.833 19.1251C141.833 19.1222 141.833 19.1193 141.833 19.1165C141.833 19.1136 141.833 19.1107 141.833 19.1078C141.833 19.1049 141.833 19.102 141.833 19.0992C141.833 19.0963 141.833 19.0934 141.833 19.0905C141.833 19.0876 141.833 19.0847 141.833 19.0819C141.833 19.079 141.833 19.0761 141.833 19.0732C141.833 19.0703 141.833 19.0674 141.833 19.0645C141.833 19.0617 141.833 19.0588 141.833 19.0559C141.833 19.053 141.833 19.0501 141.833 19.0472C141.833 19.0443 141.833 19.0415 141.833 19.0386C141.833 19.0357 141.833 19.0328 141.833 19.0299C141.833 19.027 141.833 19.0242 141.833 19.0213C141.833 19.0184 141.833 19.0155 141.833 19.0126C141.833 19.0097 141.833 19.0068 141.833 19.004C141.833 19.0011 141.833 18.9982 141.833 18.9953C141.833 18.9924 141.833 18.9895 141.833 18.9866C141.833 18.9838 141.833 18.9809 141.833 18.978C141.833 18.9751 141.833 18.9722 141.833 18.9693C141.833 18.9664 141.833 18.9636 141.833 18.9607C141.833 18.9578 141.833 18.9549 141.833 18.952C141.833 18.9491 141.833 18.9462 141.833 18.9433C141.833 18.9405 141.833 18.9376 141.833 18.9347C141.833 18.9318 141.833 18.9289 141.833 18.926C141.833 18.9231 141.833 18.9203 141.833 18.9174C141.833 18.9145 141.833 18.9116 141.833 18.9087C141.833 18.9058 141.833 18.9029 141.833 18.9C141.833 18.8972 141.833 18.8943 141.833 18.8914C141.833 18.8885 141.833 18.8856 141.833 18.8827C141.833 18.8798 141.833 18.877 141.833 18.8741C141.833 18.8712 141.833 18.8683 141.833 18.8654C141.833 18.8625 141.833 18.8596 141.833 18.8567C141.833 18.8538 141.833 18.851 141.833 18.8481C141.833 18.8452 141.833 18.8423 141.833 18.8394C141.833 18.8365 141.833 18.8336 141.833 18.8307C141.833 18.8279 141.833 18.825 141.833 18.8221C141.833 18.8192 141.833 18.8163 141.833 18.8134C141.833 18.8105 141.833 18.8076 141.833 18.8048C141.833 18.8019 141.833 18.799 141.833 18.7961C141.833 18.7932 141.833 18.7903 141.833 18.7874C141.833 18.7845 141.833 18.7816 141.833 18.7788C141.833 18.7759 141.833 18.773 141.833 18.7701C141.833 18.7672 141.833 18.7643 141.833 18.7614C141.833 18.7585 141.833 18.7556 141.833 18.7528C141.833 18.7499 141.833 18.747 141.833 18.7441C141.833 18.7412 141.833 18.7383 141.833 18.7354C141.833 18.7325 141.833 18.7296 141.833 18.7267C141.833 18.7239 141.833 18.721 141.833 18.7181C141.833 18.7152 141.833 18.7123 141.833 18.7094C141.833 18.7065 141.833 18.7036 141.833 18.7007C141.833 18.6978 141.833 18.695 141.833 18.6921C141.833 18.6892 141.833 18.6863 141.833 18.6834C141.833 18.6805 141.833 18.6776 141.833 18.6747C141.833 18.6718 141.833 18.6689 141.833 18.6661C141.833 18.6632 141.833 18.6603 141.833 18.6574C141.833 18.6545 141.833 18.6516 141.833 18.6487C141.833 18.6458 141.833 18.6429 141.833 18.64C141.833 18.6371 141.833 18.6343 141.833 18.6314C141.833 18.6285 141.833 18.6256 141.833 18.6227C141.833 18.6198 141.833 18.6169 141.833 18.614C141.833 18.6111 141.833 18.6082 141.833 18.6053C141.833 18.6024 141.833 18.5996 141.833 18.5967C141.833 18.5938 141.833 18.5909 141.833 18.588C141.833 18.5851 141.833 18.5822 141.833 18.5793C141.833 18.5764 141.833 18.5735 141.833 18.5706C141.833 18.5677 141.833 18.5649 141.833 18.562C141.833 18.5591 141.833 18.5562 141.833 18.5533C141.833 18.5504 141.833 18.5475 141.833 18.5446C141.833 18.5417 141.833 18.5388 141.833 18.5359C141.833 18.533 141.833 18.5301 141.833 18.5273C141.833 18.5244 141.833 18.5215 141.833 18.5186C141.833 18.5157 141.833 18.5128 141.833 18.5099C141.833 18.507 141.833 18.5041 141.833 18.5012C141.833 18.4983 141.833 18.4954 141.833 18.4925C141.833 18.4896 141.833 18.4868 141.833 18.4839C141.833 18.481 141.833 18.4781 141.833 18.4752C141.833 18.4723 141.833 18.4694 141.833 18.4665C141.833 18.4636 141.833 18.4607 141.833 18.4578C141.833 18.4549 141.833 18.452 141.833 18.4491C141.833 18.4462 141.833 18.4433 141.833 18.4405C141.833 18.4376 141.833 18.4347 141.833 18.4318C141.833 18.4289 141.833 18.426 141.833 18.4231C141.833 18.4202 141.833 18.4173 141.833 18.4144C141.833 18.4115 141.833 18.4086 141.833 18.4057C141.833 18.4028 141.833 18.3999 141.833 18.397C141.833 18.3941 141.833 18.3913 141.833 18.3884C141.833 18.3855 141.833 18.3826 141.833 18.3797C141.833 18.3768 141.833 18.3739 141.833 18.371C141.833 18.3681 141.833 18.3652 141.833 18.3623C141.833 18.3594 141.833 18.3565 141.833 18.3536C141.833 18.3507 141.833 18.3478 141.833 18.3449C141.833 18.342 141.833 18.3391 141.833 18.3362C141.833 18.3333 141.833 18.3305 141.833 18.3276C141.833 18.3247 141.833 18.3218 141.833 18.3189C141.833 18.316 141.833 18.3131 141.833 18.3102C141.833 18.3073 141.833 18.3044 141.833 18.3015C141.833 18.2986 141.833 18.2957 141.833 18.2928C141.833 18.2899 141.833 18.287 141.833 18.2841C141.833 18.2812 141.833 18.2783 141.833 18.2754C141.833 18.2725 141.833 18.2696 141.833 18.2667C141.833 18.2638 141.833 18.2609 141.833 18.258C141.833 18.2552 141.833 18.2523 141.833 18.2494C141.833 18.2465 141.833 18.2436 141.833 18.2407C141.833 18.2378 141.833 18.2349 141.833 18.232C141.833 18.2291 141.833 18.2262 141.833 18.2233C141.833 18.2204 141.833 18.2175 141.833 18.2146C141.833 18.2117 141.833 18.2088 141.833 18.2059C141.833 18.203 141.833 18.2001 141.833 18.1972C141.833 18.1943 141.833 18.1914 141.833 18.1885C141.833 18.1856 141.833 18.1827 141.833 18.1798C141.833 18.1769 141.833 18.174 141.833 18.1711C141.833 18.1682 141.833 18.1653 141.833 18.1624C141.833 18.1595 141.833 18.1566 141.833 18.1537C141.833 18.1508 141.833 18.1479 141.833 18.145C141.833 18.1421 141.833 18.1392 141.833 18.1363C141.833 18.1334 141.833 18.1306 141.833 18.1277C141.833 18.1248 141.833 18.1219 141.833 18.119C141.833 18.1161 141.833 18.1132 141.833 18.1103C141.833 18.1074 141.833 18.1045 141.833 18.1016C141.833 18.0987 141.833 18.0958 141.833 18.0929C141.833 18.09 141.833 18.0871 141.833 18.0842C141.833 18.0813 141.833 18.0784 141.833 18.0755C141.833 18.0726 141.833 18.0697 141.833 18.0668C141.833 18.0639 141.833 18.061 141.833 18.0581C141.833 18.0552 141.833 18.0523 141.833 18.0494C141.833 18.0465 141.833 18.0436 141.833 18.0407C141.833 18.0378 141.833 18.0349 141.833 18.032C141.833 18.0291 141.833 18.0262 141.833 18.0233C141.833 18.0204 141.833 18.0175 141.833 18.0146C141.833 18.0117 141.833 18.0088 141.833 18.0059C141.833 18.003 141.833 18.0001 141.833 17.9972C141.833 17.9943 141.833 17.9914 141.833 17.9885C141.833 17.9856 141.833 17.9827 141.833 17.9798C141.833 17.9769 141.833 17.974 141.833 17.9711C141.833 17.9682 141.833 17.9653 141.833 17.9624C141.833 17.9595 141.833 17.9566 141.833 17.9537C141.833 17.9508 141.833 17.9479 141.833 17.945C141.833 17.9421 141.833 17.9391 141.833 17.9362C141.833 17.9333 141.833 17.9304 141.833 17.9275C141.833 17.9246 141.833 17.9217 141.833 17.9188C141.833 17.9159 141.833 17.913 141.833 17.9101C141.833 17.9072 141.833 17.9043 141.833 17.9014C141.833 17.8985 141.833 17.8956 141.833 17.8927C141.833 17.8898 141.833 17.8869 141.833 17.884C141.833 17.8811 141.833 17.8782 141.833 17.8753C141.833 17.8724 141.833 17.8695 141.833 17.8666C141.833 17.8637 141.833 17.8608 141.833 17.8579C141.833 17.855 141.833 17.8521 141.833 17.8492C141.833 17.8463 141.833 17.8434 141.833 17.8405C141.833 17.8376 141.833 17.8347 141.833 17.8318C141.833 17.8289 141.833 17.826 141.833 17.8231C141.833 17.8202 141.833 17.8173 141.833 17.8143C141.833 17.8114 141.833 17.8085 141.833 17.8056C141.833 17.8027 141.833 17.7998 141.833 17.7969C141.833 17.794 141.833 17.7911 141.833 17.7882C141.833 17.7853 141.833 17.7824 141.833 17.7795C141.833 17.7766 141.833 17.7737 141.833 17.7708C141.833 17.7679 141.833 17.765 141.833 17.7621C141.833 17.7592 141.833 17.7563 141.833 17.7534C141.833 17.7505 141.833 17.7476 141.833 17.7447C141.833 17.7418 141.833 17.7388 141.833 17.7359C141.833 17.733 141.833 17.7301 141.833 17.7272C141.833 17.7243 141.833 17.7214 141.833 17.7185C141.833 17.7156 141.833 17.7127 141.833 17.7098C141.833 17.7069 141.833 17.704 141.833 17.7011C141.833 17.6982 141.833 17.6953 141.833 17.6924C141.833 17.6895 141.833 17.6866 141.833 17.6837C141.833 17.6807 141.833 17.6778 141.833 17.6749C141.833 17.672 141.833 17.6691 141.833 17.6662C141.833 17.6633 141.833 17.6604 141.833 17.6575C141.833 17.6546 141.833 17.6517 141.833 17.6488C141.833 17.6459 141.833 17.643 141.833 17.6401C141.833 17.6372 141.833 17.6343 141.833 17.6314C141.833 17.6284 141.833 17.6255 141.833 17.6226C141.833 17.6197 141.833 17.6168 141.833 17.6139C141.833 17.611 141.833 17.6081 141.833 17.6052C141.833 17.6023 141.833 17.5994 141.833 17.5965C141.833 17.5936 141.833 17.5907 141.833 17.5878C141.833 17.5849 141.833 17.5819 141.833 17.579C141.833 17.5761 141.833 17.5732 141.833 17.5703C141.833 17.5674 141.833 17.5645 141.833 17.5616C141.833 17.5587 141.833 17.5558 141.833 17.5529C141.833 17.55 141.833 17.5471 141.833 17.5442C141.833 17.5412 141.833 17.5383 141.833 17.5354C141.833 17.5325 141.833 17.5296 141.833 17.5267C141.833 17.5238 141.833 17.5209 141.833 17.518C141.833 17.5151 141.833 17.5122 141.833 17.5093C141.833 17.5064 141.833 17.5034 141.833 17.5005C141.833 17.4976 141.833 17.4947 141.833 17.4918C141.833 17.4889 141.833 17.486 141.833 17.4831C141.833 17.4802 141.833 17.4773 141.833 17.4744C141.833 17.4715 141.833 17.4685 141.833 17.4656C141.833 17.4627 141.833 17.4598 141.833 17.4569C141.833 17.454 141.833 17.4511 141.833 17.4482C141.833 17.4453 141.833 17.4424 141.833 17.4395C141.833 17.4366 141.833 17.4336 141.833 17.4307C141.833 17.4278 141.833 17.4249 141.833 17.422C141.833 17.4191 141.833 17.4162 141.833 17.4133C141.833 17.4104 141.833 17.4075 141.833 17.4046C141.833 17.4016 141.833 17.3987 141.833 17.3958C141.833 17.3929 141.833 17.39 141.833 17.3871C141.833 17.3842 141.833 17.3813 141.833 17.3784C141.833 17.3755 141.833 17.3725 141.833 17.3696C141.833 17.3667 141.833 17.3638 141.833 17.3609C141.833 17.358 141.833 17.3551 141.833 17.3522C141.833 17.3493 141.833 17.3464 141.833 17.3434C141.833 17.3405 141.833 17.3376 141.833 17.3347C141.833 17.3318 141.833 17.3289 141.833 17.326C141.833 17.3231 141.833 17.3202 141.833 17.3173C141.833 17.3143 141.833 17.3114 141.833 17.3085C141.833 17.3056 141.833 17.3027 141.833 17.2998C141.833 17.2969 141.833 17.294 141.833 17.2911C141.833 17.2881 141.833 17.2852 141.833 17.2823C141.833 17.2794 141.833 17.2765 141.833 17.2736C141.833 17.2707 141.833 17.2678 141.833 17.2649C141.833 17.2619 141.833 17.259 141.833 17.2561C141.833 17.2532 141.833 17.2503 141.833 17.2474C141.833 17.2445 141.833 17.2416 141.833 17.2386C141.833 17.2357 141.833 17.2328 141.833 17.2299C141.833 17.227 141.833 17.2241 141.833 17.2212C141.833 17.2183 141.833 17.2153 141.833 17.2124C141.833 17.2095 141.833 17.2066 141.833 17.2037C141.833 17.2008 141.833 17.1979 141.833 17.195C141.833 17.1921 141.833 17.1891 141.833 17.1862C141.833 17.1833 141.833 17.1804 141.833 17.1775C141.833 17.1746 141.833 17.1717 141.833 17.1687C141.833 17.1658 141.833 17.1629 141.833 17.16C141.833 17.1571 141.833 17.1542 141.833 17.1513C141.833 17.1484 141.833 17.1454 141.833 17.1425C141.833 17.1396 141.833 17.1367 141.833 17.1338C141.833 17.1309 141.833 17.128 141.833 17.125C141.833 17.1221 141.833 17.1192 141.833 17.1163C141.833 17.1134 141.833 17.1105 141.833 17.1076C141.833 17.1047 141.833 17.1017 141.833 17.0988C141.833 17.0959 141.833 17.093 141.833 17.0901C141.833 17.0872 141.833 17.0843 141.833 17.0813C141.833 17.0784 141.833 17.0755 141.833 17.0726C141.833 17.0697 141.833 17.0668 141.833 17.0639C141.833 17.0609 141.833 17.058 141.833 17.0551C141.833 17.0522 141.833 17.0493 141.833 17.0464C141.833 17.0435 141.833 17.0405 141.833 17.0376C141.833 17.0347 141.833 17.0318 141.833 17.0289C141.833 17.026 141.833 17.0231 141.833 17.0201C141.833 17.0172 141.833 17.0143 141.833 17.0114C141.833 17.0085 141.833 17.0056 141.833 17.0026C141.833 16.9997 141.833 16.9968 141.833 16.9939C141.833 16.991 141.833 16.9881 141.833 16.9851C141.833 16.9822 141.833 16.9793 141.833 16.9764C141.833 16.9735 141.833 16.9706 141.833 16.9677C141.833 16.9647 141.833 16.9618 141.833 16.9589C141.833 16.956 141.833 16.9531 141.833 16.9502C141.833 16.9472 141.833 16.9443 141.833 16.9414C141.833 16.9385 141.833 16.9356 141.833 16.9327C141.833 16.9297 141.833 16.9268 141.833 16.9239C141.833 16.921 141.833 16.9181 141.833 16.9152C141.833 16.9122 141.833 16.9093 141.833 16.9064C141.833 16.9035 141.833 16.9006 141.833 16.8977C141.833 16.8947 141.833 16.8918 141.833 16.8889C141.833 16.886 141.833 16.8831 141.833 16.8802C141.833 16.8772 141.833 16.8743 141.833 16.8714C141.833 16.8685 141.833 16.8656 141.833 16.8627C141.833 16.8597 141.833 16.8568 141.833 16.8539C141.833 16.851 141.833 16.8481 141.833 16.8451C141.833 16.8422 141.833 16.8393 141.833 16.8364C141.833 16.8335 141.833 16.8306 141.833 16.8276C141.833 16.8247 141.833 16.8218 141.833 16.8189C141.833 16.816 141.833 16.8131 141.833 16.8101C141.833 16.8072 141.833 16.8043 141.833 16.8014C141.833 16.7985 141.833 16.7955 141.833 16.7926C141.833 16.7897 141.833 16.7868 141.833 16.7839C141.833 16.781 141.833 16.778 141.833 16.7751C141.833 16.7722 141.833 16.7693 141.833 16.7664C141.833 16.7634 141.833 16.7605 141.833 16.7576C141.833 16.7547 141.833 16.7518 141.833 16.7488C141.833 16.7459 141.833 16.743 141.833 16.7401C141.833 16.7372 141.833 16.7342 141.833 16.7313C141.833 16.7284 141.833 16.7255 141.833 16.7226C141.833 16.7197 141.833 16.7167 141.833 16.7138C141.833 16.7109 141.833 16.708 141.833 16.7051C141.833 16.7021 141.833 16.6992 141.833 16.6963C141.833 16.6934 141.833 16.6905 141.833 16.6875C141.833 16.6846 141.833 16.6817 141.833 16.6788C141.833 16.6759 141.833 16.6729 141.833 16.67C141.833 16.6671 141.833 16.6642 141.833 16.6612C141.833 16.6583 141.833 16.6554 141.833 16.6525C141.833 16.6496 141.833 16.6466 141.833 16.6437C141.833 16.6408 141.833 16.6379 141.833 16.635C141.833 16.632 141.833 16.6291 141.833 16.6262H140.771C140.771 16.6291 140.771 16.632 140.771 16.635C140.771 16.6379 140.771 16.6408 140.771 16.6437C140.771 16.6466 140.771 16.6496 140.771 16.6525C140.771 16.6554 140.771 16.6583 140.771 16.6612C140.771 16.6642 140.771 16.6671 140.771 16.67C140.771 16.6729 140.771 16.6759 140.771 16.6788C140.771 16.6817 140.771 16.6846 140.771 16.6875C140.771 16.6905 140.771 16.6934 140.771 16.6963C140.771 16.6992 140.771 16.7021 140.771 16.7051C140.771 16.708 140.771 16.7109 140.771 16.7138C140.771 16.7167 140.771 16.7197 140.771 16.7226C140.771 16.7255 140.771 16.7284 140.771 16.7313C140.771 16.7342 140.771 16.7372 140.771 16.7401C140.771 16.743 140.771 16.7459 140.771 16.7488C140.771 16.7518 140.771 16.7547 140.771 16.7576C140.771 16.7605 140.771 16.7634 140.771 16.7664C140.771 16.7693 140.771 16.7722 140.771 16.7751C140.771 16.778 140.771 16.781 140.771 16.7839C140.771 16.7868 140.771 16.7897 140.771 16.7926C140.771 16.7955 140.771 16.7985 140.771 16.8014C140.771 16.8043 140.771 16.8072 140.771 16.8101C140.771 16.8131 140.771 16.816 140.771 16.8189C140.771 16.8218 140.771 16.8247 140.771 16.8276C140.771 16.8306 140.771 16.8335 140.771 16.8364C140.771 16.8393 140.771 16.8422 140.771 16.8451C140.771 16.8481 140.771 16.851 140.771 16.8539C140.771 16.8568 140.771 16.8597 140.771 16.8627C140.771 16.8656 140.771 16.8685 140.771 16.8714C140.771 16.8743 140.771 16.8772 140.771 16.8802C140.771 16.8831 140.771 16.886 140.771 16.8889C140.771 16.8918 140.771 16.8947 140.771 16.8977C140.771 16.9006 140.771 16.9035 140.771 16.9064C140.771 16.9093 140.771 16.9122 140.771 16.9152C140.771 16.9181 140.771 16.921 140.771 16.9239C140.771 16.9268 140.771 16.9297 140.771 16.9327C140.771 16.9356 140.771 16.9385 140.771 16.9414C140.771 16.9443 140.771 16.9472 140.771 16.9502C140.771 16.9531 140.771 16.956 140.771 16.9589C140.771 16.9618 140.771 16.9647 140.771 16.9677C140.771 16.9706 140.771 16.9735 140.771 16.9764C140.771 16.9793 140.771 16.9822 140.771 16.9851C140.771 16.9881 140.771 16.991 140.771 16.9939C140.771 16.9968 140.771 16.9997 140.771 17.0026C140.771 17.0056 140.771 17.0085 140.771 17.0114C140.771 17.0143 140.771 17.0172 140.771 17.0201C140.771 17.0231 140.771 17.026 140.771 17.0289C140.771 17.0318 140.771 17.0347 140.771 17.0376C140.771 17.0405 140.771 17.0435 140.771 17.0464C140.771 17.0493 140.771 17.0522 140.771 17.0551C140.771 17.058 140.771 17.0609 140.771 17.0639C140.771 17.0668 140.771 17.0697 140.771 17.0726C140.771 17.0755 140.771 17.0784 140.771 17.0813C140.771 17.0843 140.771 17.0872 140.771 17.0901C140.771 17.093 140.771 17.0959 140.771 17.0988C140.771 17.1017 140.771 17.1047 140.771 17.1076C140.771 17.1105 140.771 17.1134 140.771 17.1163C140.771 17.1192 140.771 17.1221 140.771 17.125C140.771 17.128 140.771 17.1309 140.771 17.1338C140.771 17.1367 140.771 17.1396 140.771 17.1425C140.771 17.1454 140.771 17.1484 140.771 17.1513C140.771 17.1542 140.771 17.1571 140.771 17.16C140.771 17.1629 140.771 17.1658 140.771 17.1687C140.771 17.1717 140.771 17.1746 140.771 17.1775C140.771 17.1804 140.771 17.1833 140.771 17.1862C140.771 17.1891 140.771 17.1921 140.771 17.195C140.771 17.1979 140.771 17.2008 140.771 17.2037C140.771 17.2066 140.771 17.2095 140.771 17.2124C140.771 17.2153 140.771 17.2183 140.771 17.2212C140.771 17.2241 140.771 17.227 140.771 17.2299C140.771 17.2328 140.771 17.2357 140.771 17.2386C140.771 17.2416 140.771 17.2445 140.771 17.2474C140.771 17.2503 140.771 17.2532 140.771 17.2561C140.771 17.259 140.771 17.2619 140.771 17.2649C140.771 17.2678 140.771 17.2707 140.771 17.2736C140.771 17.2765 140.771 17.2794 140.771 17.2823C140.771 17.2852 140.771 17.2881 140.771 17.2911C140.771 17.294 140.771 17.2969 140.771 17.2998C140.771 17.3027 140.771 17.3056 140.771 17.3085C140.771 17.3114 140.771 17.3143 140.771 17.3173C140.771 17.3202 140.771 17.3231 140.771 17.326C140.771 17.3289 140.771 17.3318 140.771 17.3347C140.771 17.3376 140.771 17.3405 140.771 17.3434C140.771 17.3464 140.771 17.3493 140.771 17.3522C140.771 17.3551 140.771 17.358 140.771 17.3609C140.771 17.3638 140.771 17.3667 140.771 17.3696C140.771 17.3725 140.771 17.3755 140.771 17.3784C140.771 17.3813 140.771 17.3842 140.771 17.3871C140.771 17.39 140.771 17.3929 140.771 17.3958C140.771 17.3987 140.771 17.4016 140.771 17.4046C140.771 17.4075 140.771 17.4104 140.771 17.4133C140.771 17.4162 140.771 17.4191 140.771 17.422C140.771 17.4249 140.771 17.4278 140.771 17.4307C140.771 17.4336 140.771 17.4366 140.771 17.4395C140.771 17.4424 140.771 17.4453 140.771 17.4482C140.771 17.4511 140.771 17.454 140.771 17.4569C140.771 17.4598 140.771 17.4627 140.771 17.4656C140.771 17.4685 140.771 17.4715 140.771 17.4744C140.771 17.4773 140.771 17.4802 140.771 17.4831C140.771 17.486 140.771 17.4889 140.771 17.4918C140.771 17.4947 140.771 17.4976 140.771 17.5005C140.771 17.5034 140.771 17.5064 140.771 17.5093C140.771 17.5122 140.771 17.5151 140.771 17.518C140.771 17.5209 140.771 17.5238 140.771 17.5267C140.771 17.5296 140.771 17.5325 140.771 17.5354C140.771 17.5383 140.771 17.5412 140.771 17.5442C140.771 17.5471 140.771 17.55 140.771 17.5529C140.771 17.5558 140.771 17.5587 140.771 17.5616C140.771 17.5645 140.771 17.5674 140.771 17.5703C140.771 17.5732 140.771 17.5761 140.771 17.579C140.771 17.5819 140.771 17.5849 140.771 17.5878C140.771 17.5907 140.771 17.5936 140.771 17.5965C140.771 17.5994 140.771 17.6023 140.771 17.6052C140.771 17.6081 140.771 17.611 140.771 17.6139C140.771 17.6168 140.771 17.6197 140.771 17.6226C140.771 17.6255 140.771 17.6284 140.771 17.6314C140.771 17.6343 140.771 17.6372 140.771 17.6401C140.771 17.643 140.771 17.6459 140.771 17.6488C140.771 17.6517 140.771 17.6546 140.771 17.6575C140.771 17.6604 140.771 17.6633 140.771 17.6662C140.771 17.6691 140.771 17.672 140.771 17.6749C140.771 17.6778 140.771 17.6807 140.771 17.6837C140.771 17.6866 140.771 17.6895 140.771 17.6924C140.771 17.6953 140.771 17.6982 140.771 17.7011C140.771 17.704 140.771 17.7069 140.771 17.7098C140.771 17.7127 140.771 17.7156 140.771 17.7185C140.771 17.7214 140.771 17.7243 140.771 17.7272C140.771 17.7301 140.771 17.733 140.771 17.7359C140.771 17.7388 140.771 17.7418 140.771 17.7447C140.771 17.7476 140.771 17.7505 140.771 17.7534C140.771 17.7563 140.771 17.7592 140.771 17.7621C140.771 17.765 140.771 17.7679 140.771 17.7708C140.771 17.7737 140.771 17.7766 140.771 17.7795C140.771 17.7824 140.771 17.7853 140.771 17.7882C140.771 17.7911 140.771 17.794 140.771 17.7969C140.771 17.7998 140.771 17.8027 140.771 17.8056C140.771 17.8085 140.771 17.8114 140.771 17.8143C140.771 17.8173 140.771 17.8202 140.771 17.8231C140.771 17.826 140.771 17.8289 140.771 17.8318C140.771 17.8347 140.771 17.8376 140.771 17.8405C140.771 17.8434 140.771 17.8463 140.771 17.8492C140.771 17.8521 140.771 17.855 140.771 17.8579C140.771 17.8608 140.771 17.8637 140.771 17.8666C140.771 17.8695 140.771 17.8724 140.771 17.8753C140.771 17.8782 140.771 17.8811 140.771 17.884C140.771 17.8869 140.771 17.8898 140.771 17.8927C140.771 17.8956 140.771 17.8985 140.771 17.9014C140.771 17.9043 140.771 17.9072 140.771 17.9101C140.771 17.913 140.771 17.9159 140.771 17.9188C140.771 17.9217 140.771 17.9246 140.771 17.9275C140.771 17.9304 140.771 17.9333 140.771 17.9362C140.771 17.9391 140.771 17.9421 140.771 17.945C140.771 17.9479 140.771 17.9508 140.771 17.9537C140.771 17.9566 140.771 17.9595 140.771 17.9624C140.771 17.9653 140.771 17.9682 140.771 17.9711C140.771 17.974 140.771 17.9769 140.771 17.9798C140.771 17.9827 140.771 17.9856 140.771 17.9885C140.771 17.9914 140.771 17.9943 140.771 17.9972C140.771 18.0001 140.771 18.003 140.771 18.0059C140.771 18.0088 140.771 18.0117 140.771 18.0146C140.771 18.0175 140.771 18.0204 140.771 18.0233C140.771 18.0262 140.771 18.0291 140.771 18.032C140.771 18.0349 140.771 18.0378 140.771 18.0407C140.771 18.0436 140.771 18.0465 140.771 18.0494C140.771 18.0523 140.771 18.0552 140.771 18.0581C140.771 18.061 140.771 18.0639 140.771 18.0668C140.771 18.0697 140.771 18.0726 140.771 18.0755C140.771 18.0784 140.771 18.0813 140.771 18.0842C140.771 18.0871 140.771 18.09 140.771 18.0929C140.771 18.0958 140.771 18.0987 140.771 18.1016C140.771 18.1045 140.771 18.1074 140.771 18.1103C140.771 18.1132 140.771 18.1161 140.771 18.119C140.771 18.1219 140.771 18.1248 140.771 18.1277C140.771 18.1306 140.771 18.1334 140.771 18.1363C140.771 18.1392 140.771 18.1421 140.771 18.145C140.771 18.1479 140.771 18.1508 140.771 18.1537C140.771 18.1566 140.771 18.1595 140.771 18.1624C140.771 18.1653 140.771 18.1682 140.771 18.1711C140.771 18.174 140.771 18.1769 140.771 18.1798C140.771 18.1827 140.771 18.1856 140.771 18.1885C140.771 18.1914 140.771 18.1943 140.771 18.1972C140.771 18.2001 140.771 18.203 140.771 18.2059C140.771 18.2088 140.771 18.2117 140.771 18.2146C140.771 18.2175 140.771 18.2204 140.771 18.2233C140.771 18.2262 140.771 18.2291 140.771 18.232C140.771 18.2349 140.771 18.2378 140.771 18.2407C140.771 18.2436 140.771 18.2465 140.771 18.2494C140.771 18.2523 140.771 18.2552 140.771 18.258C140.771 18.2609 140.771 18.2638 140.771 18.2667C140.771 18.2696 140.771 18.2725 140.771 18.2754C140.771 18.2783 140.771 18.2812 140.771 18.2841C140.771 18.287 140.771 18.2899 140.771 18.2928C140.771 18.2957 140.771 18.2986 140.771 18.3015C140.771 18.3044 140.771 18.3073 140.771 18.3102C140.771 18.3131 140.771 18.316 140.771 18.3189C140.771 18.3218 140.771 18.3247 140.771 18.3276C140.771 18.3305 140.771 18.3333 140.771 18.3362C140.771 18.3391 140.771 18.342 140.771 18.3449C140.771 18.3478 140.771 18.3507 140.771 18.3536C140.771 18.3565 140.771 18.3594 140.771 18.3623C140.771 18.3652 140.771 18.3681 140.771 18.371C140.771 18.3739 140.771 18.3768 140.771 18.3797C140.771 18.3826 140.771 18.3855 140.771 18.3884C140.771 18.3913 140.771 18.3941 140.771 18.397C140.771 18.3999 140.771 18.4028 140.771 18.4057C140.771 18.4086 140.771 18.4115 140.771 18.4144C140.771 18.4173 140.771 18.4202 140.771 18.4231C140.771 18.426 140.771 18.4289 140.771 18.4318C140.771 18.4347 140.771 18.4376 140.771 18.4405C140.771 18.4433 140.771 18.4462 140.771 18.4491C140.771 18.452 140.771 18.4549 140.771 18.4578C140.771 18.4607 140.771 18.4636 140.771 18.4665C140.771 18.4694 140.771 18.4723 140.771 18.4752C140.771 18.4781 140.771 18.481 140.771 18.4839C140.771 18.4868 140.771 18.4896 140.771 18.4925C140.771 18.4954 140.771 18.4983 140.771 18.5012C140.771 18.5041 140.771 18.507 140.771 18.5099C140.771 18.5128 140.771 18.5157 140.771 18.5186C140.771 18.5215 140.771 18.5244 140.771 18.5273C140.771 18.5301 140.771 18.533 140.771 18.5359C140.771 18.5388 140.771 18.5417 140.771 18.5446C140.771 18.5475 140.771 18.5504 140.771 18.5533C140.771 18.5562 140.771 18.5591 140.771 18.562C140.771 18.5649 140.771 18.5677 140.771 18.5706C140.771 18.5735 140.771 18.5764 140.771 18.5793C140.771 18.5822 140.771 18.5851 140.771 18.588C140.771 18.5909 140.771 18.5938 140.771 18.5967C140.771 18.5996 140.771 18.6024 140.771 18.6053C140.771 18.6082 140.771 18.6111 140.771 18.614C140.771 18.6169 140.771 18.6198 140.771 18.6227C140.771 18.6256 140.771 18.6285 140.771 18.6314C140.771 18.6343 140.771 18.6371 140.771 18.64C140.771 18.6429 140.771 18.6458 140.771 18.6487C140.771 18.6516 140.771 18.6545 140.771 18.6574C140.771 18.6603 140.771 18.6632 140.771 18.6661C140.771 18.6689 140.771 18.6718 140.771 18.6747C140.771 18.6776 140.771 18.6805 140.771 18.6834C140.771 18.6863 140.771 18.6892 140.771 18.6921C140.771 18.695 140.771 18.6978 140.771 18.7007C140.771 18.7036 140.771 18.7065 140.771 18.7094C140.771 18.7123 140.771 18.7152 140.771 18.7181C140.771 18.721 140.771 18.7239 140.771 18.7267C140.771 18.7296 140.771 18.7325 140.771 18.7354C140.771 18.7383 140.771 18.7412 140.771 18.7441C140.771 18.747 140.771 18.7499 140.771 18.7528C140.771 18.7556 140.771 18.7585 140.771 18.7614C140.771 18.7643 140.771 18.7672 140.771 18.7701C140.771 18.773 140.771 18.7759 140.771 18.7788C140.771 18.7816 140.771 18.7845 140.771 18.7874C140.771 18.7903 140.771 18.7932 140.771 18.7961C140.771 18.799 140.771 18.8019 140.771 18.8048C140.771 18.8076 140.771 18.8105 140.771 18.8134C140.771 18.8163 140.771 18.8192 140.771 18.8221C140.771 18.825 140.771 18.8279 140.771 18.8307C140.771 18.8336 140.771 18.8365 140.771 18.8394C140.771 18.8423 140.771 18.8452 140.771 18.8481C140.771 18.851 140.771 18.8538 140.771 18.8567C140.771 18.8596 140.771 18.8625 140.771 18.8654C140.771 18.8683 140.771 18.8712 140.771 18.8741C140.771 18.877 140.771 18.8798 140.771 18.8827C140.771 18.8856 140.771 18.8885 140.771 18.8914C140.771 18.8943 140.771 18.8972 140.771 18.9C140.771 18.9029 140.771 18.9058 140.771 18.9087C140.771 18.9116 140.771 18.9145 140.771 18.9174C140.771 18.9203 140.771 18.9231 140.771 18.926C140.771 18.9289 140.771 18.9318 140.771 18.9347C140.771 18.9376 140.771 18.9405 140.771 18.9433C140.771 18.9462 140.771 18.9491 140.771 18.952C140.771 18.9549 140.771 18.9578 140.771 18.9607C140.771 18.9636 140.771 18.9664 140.771 18.9693C140.771 18.9722 140.771 18.9751 140.771 18.978C140.771 18.9809 140.771 18.9838 140.771 18.9866C140.771 18.9895 140.771 18.9924 140.771 18.9953C140.771 18.9982 140.771 19.0011 140.771 19.004C140.771 19.0068 140.771 19.0097 140.771 19.0126C140.771 19.0155 140.771 19.0184 140.771 19.0213C140.771 19.0242 140.771 19.027 140.771 19.0299C140.771 19.0328 140.771 19.0357 140.771 19.0386C140.771 19.0415 140.771 19.0443 140.771 19.0472C140.771 19.0501 140.771 19.053 140.771 19.0559C140.771 19.0588 140.771 19.0617 140.771 19.0645C140.771 19.0674 140.771 19.0703 140.771 19.0732C140.771 19.0761 140.771 19.079 140.771 19.0819C140.771 19.0847 140.771 19.0876 140.771 19.0905C140.771 19.0934 140.771 19.0963 140.771 19.0992C140.771 19.102 140.771 19.1049 140.771 19.1078C140.771 19.1107 140.771 19.1136 140.771 19.1165C140.771 19.1193 140.771 19.1222 140.771 19.1251C140.771 19.128 140.771 19.1309 140.771 19.1338C140.771 19.1366 140.771 19.1395 140.771 19.1424C140.771 19.1453 140.771 19.1482 140.771 19.1511C140.771 19.1539 140.771 19.1568 140.771 19.1597C140.771 19.1626 140.771 19.1655 140.771 19.1684C140.771 19.1712 140.771 19.1741 140.771 19.177C140.771 19.1799 140.771 19.1828 140.771 19.1857C140.771 19.1885 140.771 19.1914 140.771 19.1943C140.771 19.1972 140.771 19.2001 140.771 19.203C140.771 19.2058 140.771 19.2087 140.771 19.2116C140.771 19.2145 140.771 19.2174 140.771 19.2203C140.771 19.2231 140.771 19.226 140.771 19.2289C140.771 19.2318 140.771 19.2347 140.771 19.2375C140.771 19.2404 140.771 19.2433 140.771 19.2462C140.771 19.2491 140.771 19.252 140.771 19.2548C140.771 19.2577 140.771 19.2606 140.771 19.2635C140.771 19.2664 140.771 19.2692 140.771 19.2721C140.771 19.275 140.771 19.2779 140.771 19.2808C140.771 19.2837 140.771 19.2865 140.771 19.2894C140.771 19.2923 140.771 19.2952 140.771 19.2981C140.771 19.3009 140.771 19.3038 140.771 19.3067C140.771 19.3096 140.771 19.3125 140.771 19.3153C140.771 19.3182 140.771 19.3211 140.771 19.324C140.771 19.3269 140.771 19.3297 140.771 19.3326C140.771 19.3355 140.771 19.3384 140.771 19.3413C140.771 19.3442 140.771 19.347 140.771 19.3499C140.771 19.3528 140.771 19.3557 140.771 19.3586C140.771 19.3614 140.771 19.3643 140.771 19.3672C140.771 19.3701 140.771 19.373 140.771 19.3758C140.771 19.3787 140.771 19.3816 140.771 19.3845C140.771 19.3874 140.771 19.3902 140.771 19.3931C140.771 19.396 140.771 19.3989 140.771 19.4018C140.771 19.4046 140.771 19.4075 140.771 19.4104C140.771 19.4133 140.771 19.4161 140.771 19.419C140.771 19.4219 140.771 19.4248 140.771 19.4277C140.771 19.4305 140.771 19.4334 140.771 19.4363C140.771 19.4392 140.771 19.4421 140.771 19.4449C140.771 19.4478 140.771 19.4507 140.771 19.4536C140.771 19.4565 140.771 19.4593 140.771 19.4622C140.771 19.4651 140.771 19.468 140.771 19.4708C140.771 19.4737 140.771 19.4766 140.771 19.4795C140.771 19.4824 140.771 19.4852 140.771 19.4881C140.771 19.491 140.771 19.4939 140.771 19.4968C140.771 19.4996 140.771 19.5025 140.771 19.5054C140.771 19.5083 140.771 19.5111 140.771 19.514C140.771 19.5169 140.771 19.5198 140.771 19.5227C140.771 19.5255 140.771 19.5284 140.771 19.5313C140.771 19.5342 140.771 19.537 140.771 19.5399C140.771 19.5428 140.771 19.5457 140.771 19.5486C140.771 19.5514 140.771 19.5543 140.771 19.5572C140.771 19.5601 140.771 19.5629 140.771 19.5658C140.771 19.5687 140.771 19.5716 140.771 19.5744C140.771 19.5773 140.771 19.5802 140.771 19.5831C140.771 19.586 140.771 19.5888 140.771 19.5917C140.771 19.5946 140.771 19.5975 140.771 19.6003C140.771 19.6032 140.771 19.6061 140.771 19.609C140.771 19.6118 140.771 19.6147 140.771 19.6176C140.771 19.6205 140.771 19.6234 140.771 19.6262C140.771 19.6291 140.771 19.632 140.771 19.6349C140.771 19.6377 140.771 19.6406 140.771 19.6435C140.771 19.6464 140.771 19.6492 140.771 19.6521C140.771 19.655 140.771 19.6579 140.771 19.6607C140.771 19.6636 140.771 19.6665 140.771 19.6694C140.771 19.6722 140.771 19.6751 140.771 19.678C140.771 19.6809 140.771 19.6837 140.771 19.6866C140.771 19.6895 140.771 19.6924 140.771 19.6952C140.771 19.6981 140.771 19.701 140.771 19.7039C140.771 19.7067 140.771 19.7096 140.771 19.7125C140.771 19.7154 140.771 19.7182 140.771 19.7211C140.771 19.724 140.771 19.7269 140.771 19.7297C140.771 19.7326 140.771 19.7355 140.771 19.7384C140.771 19.7412 140.771 19.7441 140.771 19.747C140.771 19.7499 140.771 19.7527 140.771 19.7556C140.771 19.7585 140.771 19.7614 140.771 19.7642C140.771 19.7671 140.771 19.77 140.771 19.7729C140.771 19.7757 140.771 19.7786 140.771 19.7815C140.771 19.7844 140.771 19.7872 140.771 19.7901C140.771 19.793 140.771 19.7958 140.771 19.7987C140.771 19.8016 140.771 19.8045 140.771 19.8073C140.771 19.8102 140.771 19.8131 140.771 19.816C140.771 19.8188 140.771 19.8217 140.771 19.8246C140.771 19.8275 140.771 19.8303 140.771 19.8332C140.771 19.8361 140.771 19.8389 140.771 19.8418C140.771 19.8447 140.771 19.8476 140.771 19.8504C140.771 19.8533 140.771 19.8562 140.771 19.8591C140.771 19.8619 140.771 19.8648 140.771 19.8677C140.771 19.8705 140.771 19.8734 140.771 19.8763C140.771 19.8792 140.771 19.882 140.771 19.8849C140.771 19.8878 140.771 19.8907 140.771 19.8935C140.771 19.8964 140.771 19.8993 140.771 19.9021C140.771 19.905 140.771 19.9079 140.771 19.9108C140.771 19.9136 140.771 19.9165 140.771 19.9194C140.771 19.9222 140.771 19.9251 140.771 19.928C140.771 19.9309 140.771 19.9337 140.771 19.9366C140.771 19.9395 140.771 19.9423 140.771 19.9452C140.771 19.9481 140.771 19.951 140.771 19.9538C140.771 19.9567 140.771 19.9596 140.771 19.9624C140.771 19.9653 140.771 19.9682 140.771 19.9711C140.771 19.9739 140.771 19.9768 140.771 19.9797C140.771 19.9825 140.771 19.9854 140.771 19.9883C140.771 19.9912 140.771 19.994 140.771 19.9969C140.771 19.9998 140.771 20.0026 140.771 20.0055C140.771 20.0084 140.771 20.0112 140.771 20.0141C140.771 20.017 140.771 20.0199 140.771 20.0227C140.771 20.0256 140.771 20.0285 140.771 20.0313C140.771 20.0342 140.771 20.0371 140.771 20.04C140.771 20.0428 140.771 20.0457 140.771 20.0486C140.771 20.0514 140.771 20.0543 140.771 20.0572C140.771 20.06 140.771 20.0629 140.771 20.0658C140.771 20.0686 140.771 20.0715 140.771 20.0744C140.771 20.0773 140.771 20.0801 140.771 20.083C140.771 20.0859 140.771 20.0887 140.771 20.0916C140.771 20.0945 140.771 20.0973 140.771 20.1002C140.771 20.1031 140.771 20.1059 140.771 20.1088C140.771 20.1117 140.771 20.1146 140.771 20.1174C140.771 20.1203 140.771 20.1232 140.771 20.126C140.771 20.1289 140.771 20.1318 140.771 20.1346C140.771 20.1375 140.771 20.1404 140.771 20.1432C140.771 20.1461 140.771 20.149 140.771 20.1518C140.771 20.1547 140.771 20.1576 140.771 20.1605C140.771 20.1633 140.771 20.1662 140.771 20.1691C140.771 20.1719 140.771 20.1748 140.771 20.1777C140.771 20.1805 140.771 20.1834 140.771 20.1863C140.771 20.1891 140.771 20.192 140.771 20.1949C140.771 20.1977 140.771 20.2006 140.771 20.2035C140.771 20.2063 140.771 20.2092 140.771 20.2121C140.771 20.2149 140.771 20.2178 140.771 20.2207C140.771 20.2235 140.771 20.2264 140.771 20.2293C140.771 20.2321 140.771 20.235 140.771 20.2379C140.771 20.2407 140.771 20.2436 140.771 20.2465C140.771 20.2493 140.771 20.2522 140.771 20.2551C140.771 20.2579 140.771 20.2608 140.771 20.2637C140.771 20.2665 140.771 20.2694 140.771 20.2723C140.771 20.2751 140.771 20.278 140.771 20.2809C140.771 20.2837 140.771 20.2866 140.771 20.2895C140.771 20.2923 140.771 20.2952 140.771 20.2981C140.771 20.3009 140.771 20.3038 140.771 20.3067C140.771 20.3095 140.771 20.3124 140.771 20.3153C140.771 20.3181 140.771 20.321 140.771 20.3239C140.771 20.3267 140.771 20.3296 140.771 20.3325C140.771 20.3353 140.771 20.3382 140.771 20.3411C140.771 20.3439 140.771 20.3468 140.771 20.3497C140.771 20.3525 140.771 20.3554 140.771 20.3583C140.771 20.3611 140.771 20.364 140.771 20.3668C140.771 20.3697 140.771 20.3726 140.771 20.3754C140.771 20.3783 140.771 20.3812 140.771 20.384C140.771 20.3869 140.771 20.3898 140.771 20.3926C140.771 20.3955 140.771 20.3984 140.771 20.4012C140.771 20.4041 140.771 20.407 140.771 20.4098C140.771 20.4127 140.771 20.4155 140.771 20.4184C140.771 20.4213 140.771 20.4241 140.771 20.427C140.771 20.4299 140.771 20.4327 140.771 20.4356C140.771 20.4385 140.771 20.4413 140.771 20.4442C140.771 20.4471 140.771 20.4499 140.771 20.4528C140.771 20.4556 140.771 20.4585 140.771 20.4614C140.771 20.4642 140.771 20.4671 140.771 20.47C140.771 20.4728 140.771 20.4757 140.771 20.4786C140.771 20.4814 140.771 20.4843 140.771 20.4871C140.771 20.49 140.771 20.4929 140.771 20.4957C140.771 20.4986 140.771 20.5015 140.771 20.5043C140.771 20.5072 140.771 20.51 140.771 20.5129C140.771 20.5158 140.771 20.5186 140.771 20.5215C140.771 20.5244 140.771 20.5272 140.771 20.5301C140.771 20.5329 140.771 20.5358 140.771 20.5387C140.771 20.5415 140.771 20.5444 140.771 20.5473C140.771 20.5501 140.771 20.553 140.771 20.5558C140.771 20.5587 140.771 20.5616 140.771 20.5644C140.771 20.5673 140.771 20.5702 140.771 20.573C140.771 20.5759 140.771 20.5787 140.771 20.5816C140.771 20.5845 140.771 20.5873 140.771 20.5902C140.771 20.5931 140.771 20.5959 140.771 20.5988C140.771 20.6016 140.771 20.6045 140.771 20.6074C140.771 20.6102 140.771 20.6131 140.771 20.6159C140.771 20.6188 140.771 20.6217 140.771 20.6245C140.771 20.6274 140.771 20.6303 140.771 20.6331C140.771 20.636 140.771 20.6388 140.771 20.6417C140.771 20.6446 140.771 20.6474 140.771 20.6503C140.771 20.6531 140.771 20.656 140.771 20.6589C140.771 20.6617 140.771 20.6646 140.771 20.6674C140.771 20.6703 140.771 20.6732 140.771 20.676C140.771 20.6789 140.771 20.6817 140.771 20.6846C140.771 20.6875 140.771 20.6903 140.771 20.6932C140.771 20.696 140.771 20.6989 140.771 20.7018C140.771 20.7046 140.771 20.7075 140.771 20.7103C140.771 20.7132 140.771 20.7161 140.771 20.7189C140.771 20.7218 140.771 20.7246 140.771 20.7275C140.771 20.7304 140.771 20.7332 140.771 20.7361C140.771 20.7389 140.771 20.7418 140.771 20.7447C140.771 20.7475 140.771 20.7504 140.771 20.7532C140.771 20.7561 140.771 20.759 140.771 20.7618C140.771 20.7647 140.771 20.7675 140.771 20.7704C140.771 20.7733 140.771 20.7761 140.771 20.779C140.771 20.7818 140.771 20.7847 140.771 20.7875C140.771 20.7904 140.771 20.7933 140.771 20.7961C140.771 20.799 140.771 20.8018 140.771 20.8047C140.771 20.8076 140.771 20.8104 140.771 20.8133C140.771 20.8161 140.771 20.819 140.771 20.8218C140.771 20.8247 140.771 20.8276 140.771 20.8304C140.771 20.8333 140.771 20.8361 140.771 20.839C140.771 20.8419 140.771 20.8447 140.771 20.8476C140.771 20.8504 140.771 20.8533 140.771 20.8561C140.771 20.859 140.771 20.8619 140.771 20.8647C140.771 20.8676 140.771 20.8704 140.771 20.8733C140.771 20.8761 140.771 20.879 140.771 20.8819C140.771 20.8847 140.771 20.8876 140.771 20.8904C140.771 20.8933 140.771 20.8961 140.771 20.899C140.771 20.9019 140.771 20.9047 140.771 20.9076C140.771 20.9104 140.771 20.9133 140.771 20.9161C140.771 20.919 140.771 20.9219 140.771 20.9247C140.771 20.9276 140.771 20.9304 140.771 20.9333C140.771 20.9361 140.771 20.939 140.771 20.9419C140.771 20.9447 140.771 20.9476 140.771 20.9504C140.771 20.9533 140.771 20.9561 140.771 20.959C140.771 20.9618 140.771 20.9647 140.771 20.9676C140.771 20.9704 140.771 20.9733 140.771 20.9761C140.771 20.979 140.771 20.9818 140.771 20.9847C140.771 20.9875 140.771 20.9904 140.771 20.9933C140.771 20.9961 140.771 20.999 140.771 21.0018C140.771 21.0047 140.771 21.0075 140.771 21.0104C140.771 21.0132 140.771 21.0161 140.771 21.019C140.771 21.0218 140.771 21.0247 140.771 21.0275C140.771 21.0304 140.771 21.0332 140.771 21.0361C140.771 21.0389 140.771 21.0418 140.771 21.0447C140.771 21.0475 140.771 21.0504 140.771 21.0532C140.771 21.0561 140.771 21.0589 140.771 21.0618H141.833ZM141.833 16.6383C141.867 15.1435 141.901 13.7848 141.935 12.5623L140.873 12.5328C140.839 13.7574 140.805 15.1179 140.771 16.6141L141.833 16.6383ZM141.935 12.5623C141.969 11.3382 141.986 10.4482 141.986 9.89636H140.924C140.924 10.4322 140.907 11.3096 140.873 12.5328L141.935 12.5623ZM141.455 9.36528H141.047V10.4274H141.455V9.36528ZM140.526 9.7922C140.426 10.2915 140.258 11.0311 140.021 12.015L141.053 12.2642C141.292 11.2769 141.464 10.5209 141.568 10.0005L140.526 9.7922ZM140.018 12.0284C139.816 12.9721 139.579 13.9676 139.309 15.015L140.338 15.2804C140.611 14.2204 140.851 13.2106 141.056 12.2509L140.018 12.0284ZM139.306 15.027C139.069 16.0423 138.85 16.9194 138.648 17.6591L139.673 17.9386C139.879 17.1827 140.102 16.2924 140.341 15.2684L139.306 15.027ZM138.649 17.6556L133.551 35.8568L134.574 36.1432L139.672 17.9421L138.649 17.6556ZM134.062 35.4689H126.721V36.5311H134.062V35.4689ZM127.232 35.8554L122.082 17.6543L121.06 17.9434L126.21 36.1446L127.232 35.8554ZM122.086 17.67C121.916 16.9902 121.713 16.1745 121.475 15.2228L120.444 15.4804C120.682 16.4321 120.886 17.2479 121.056 17.9276L122.086 17.67ZM121.475 15.2228C121.237 14.2726 120.999 13.3053 120.762 12.3209L119.729 12.5702C119.968 13.5572 120.206 14.5273 120.444 15.4804L121.475 15.2228ZM120.766 12.3379C120.561 11.3479 120.372 10.5076 120.2 9.81853L119.17 10.0761C119.337 10.7466 119.523 11.5718 119.726 12.5531L120.766 12.3379ZM119.685 9.41626H119.277V10.4784H119.685V9.41626ZM118.746 9.96775C118.78 10.8486 118.814 11.9339 118.848 13.2243L119.91 13.1963C119.876 11.9035 119.842 10.8135 119.808 9.92693L118.746 9.96775ZM118.848 13.2246C118.882 14.4817 118.916 15.8068 118.95 17.2L120.012 17.1741C119.978 15.7801 119.944 14.4541 119.91 13.1959L118.848 13.2246ZM118.95 17.2003C118.984 18.5559 119.001 19.8431 119.001 21.0618H120.063C120.063 19.8333 120.046 18.5373 120.012 17.1737L118.95 17.2003ZM119.001 21.0618V36H120.063V21.0618H119.001ZM119.532 35.4689H111.222V36.5311H119.532V35.4689Z" fill="url(#paint0_linear_270_2310)" mask="url(#path-1-outside-1_270_2310)"/>
<defs>
<linearGradient id="paint0_linear_270_2310" x1="-147.592" y1="-0.129032" x2="166.93" y2="76.7765" gradientUnits="userSpaceOnUse">
<stop stop-color="#FFC631"/>
<stop offset="1" stop-color="#CA9301"/>
</linearGradient>
</defs>
</svg>
